STARTFONT 2.1
COMMENT
COMMENT Converted from OpenType font "malgun.ttf" by "otf2bdf.exe 3.0".
COMMENT
FONT -FreeType-Malgun Gothic-Medium-R-Normal--19-140-100-100-P-156-ISO10646-1
SIZE 14 100 100
FONTBOUNDINGBOX 25 23 -2 -5
STARTPROPERTIES 19
FOUNDRY "FreeType"
FAMILY_NAME "Malgun Gothic"
WEIGHT_NAME "Medium"
SLANT "R"
SETWIDTH_NAME "Normal"
ADD_STYLE_NAME ""
PIXEL_SIZE 19
POINT_SIZE 140
RESOLUTION_X 100
RESOLUTION_Y 100
SPACING "P"
AVERAGE_WIDTH 156
CHARSET_REGISTRY "ISO10646"
CHARSET_ENCODING "1"
FONT_ASCENT 20
FONT_DESCENT 4
COPYRIGHT "© 2008 Microsoft Corporation. All Rights Reserved."
_OTF_FONTFILE "malgun.ttf"
_OTF_PSNAME "MalgunGothicRegular"
ENDPROPERTIES
CHARS 12620
STARTCHAR 0000
ENCODING 0
SWIDTH 462 0
DWIDTH 9 0
BBX 0 0 0 0
BITMAP
ENDCHAR
STARTCHAR 000D
ENCODING 13
SWIDTH 102 0
DWIDTH 2 0
BBX 0 0 0 0
BITMAP
ENDCHAR
STARTCHAR 0020
ENCODING 32
SWIDTH 360 0
DWIDTH 7 0
BBX 0 0 0 0
BITMAP
ENDCHAR
STARTCHAR 0021
ENCODING 33
SWIDTH 308 0
DWIDTH 6 0
BBX 2 14 2 0
BITMAP
80
80
80
80
80
80
80
80
80
80
00
00
C0
C0
ENDCHAR
STARTCHAR 0022
ENCODING 34
SWIDTH 411 0
DWIDTH 8 0
BBX 4 4 2 10
BITMAP
90
90
90
90
ENDCHAR
STARTCHAR 0023
ENCODING 35
SWIDTH 617 0
DWIDTH 12 0
BBX 12 13 0 1
BITMAP
0440
0440
0880
0880
7FF0
0880
1180
1100
FFE0
1100
1300
2200
2200
ENDCHAR
STARTCHAR 0024
ENCODING 36
SWIDTH 514 0
DWIDTH 10 0
BBX 8 18 2 -2
BITMAP
10
10
3C
7E
D2
D0
D0
F0
70
1C
16
13
13
97
FE
7C
10
10
ENDCHAR
STARTCHAR 0025
ENCODING 37
SWIDTH 822 0
DWIDTH 16 0
BBX 14 14 1 0
BITMAP
7810
CC20
8440
8440
8480
CD00
7900
0278
02CC
0484
0884
0884
10CC
2078
ENDCHAR
STARTCHAR 0026
ENCODING 38
SWIDTH 822 0
DWIDTH 16 0
BBX 14 14 1 0
BITMAP
1E00
3F00
3300
2110
2110
3210
1C10
3E20
63A0
80E0
80C0
C1E0
7FBC
3E1C
ENDCHAR
STARTCHAR 0027
ENCODING 39
SWIDTH 205 0
DWIDTH 4 0
BBX 1 4 2 10
BITMAP
80
80
80
80
ENDCHAR
STARTCHAR 0028
ENCODING 40
SWIDTH 308 0
DWIDTH 6 0
BBX 5 17 1 -3
BITMAP
08
10
20
40
40
80
80
80
80
80
80
80
40
40
20
30
10
ENDCHAR
STARTCHAR 0029
ENCODING 41
SWIDTH 308 0
DWIDTH 6 0
BBX 4 17 0 -3
BITMAP
80
40
20
20
20
10
10
10
10
10
10
10
20
20
20
40
80
ENDCHAR
STARTCHAR 002A
ENCODING 42
SWIDTH 411 0
DWIDTH 8 0
BBX 8 7 0 7
BITMAP
10
10
D3
3C
38
2C
46
ENDCHAR
STARTCHAR 002B
ENCODING 43
SWIDTH 668 0
DWIDTH 13 0
BBX 9 9 2 1
BITMAP
0800
0800
0800
0800
FF80
0800
0800
0800
0800
ENDCHAR
STARTCHAR 002C
ENCODING 44
SWIDTH 205 0
DWIDTH 4 0
BBX 3 5 0 -3
BITMAP
20
40
40
40
80
ENDCHAR
STARTCHAR 002D
ENCODING 45
SWIDTH 411 0
DWIDTH 8 0
BBX 6 2 1 4
BITMAP
FC
FC
ENDCHAR
STARTCHAR 002E
ENCODING 46
SWIDTH 205 0
DWIDTH 4 0
BBX 2 2 1 0
BITMAP
C0
C0
ENDCHAR
STARTCHAR 002F
ENCODING 47
SWIDTH 411 0
DWIDTH 8 0
BBX 8 16 0 -2
BITMAP
01
02
02
04
04
04
08
08
10
10
20
20
20
40
40
80
ENDCHAR
STARTCHAR 0030
ENCODING 48
SWIDTH 514 0
DWIDTH 10 0
BBX 8 14 1 0
BITMAP
3C
7E
42
C3
81
81
81
81
81
81
C3
42
7E
3C
ENDCHAR
STARTCHAR 0031
ENCODING 49
SWIDTH 514 0
DWIDTH 10 0
BBX 7 14 2 0
BITMAP
30
F0
D0
10
10
10
10
10
10
10
10
10
FE
FE
ENDCHAR
STARTCHAR 0032
ENCODING 50
SWIDTH 514 0
DWIDTH 10 0
BBX 7 14 1 0
BITMAP
3C
7E
46
02
02
02
04
0C
18
30
20
40
FE
FE
ENDCHAR
STARTCHAR 0033
ENCODING 51
SWIDTH 514 0
DWIDTH 10 0
BBX 6 14 2 0
BITMAP
38
7C
44
04
04
0C
78
78
0C
04
04
8C
F8
70
ENDCHAR
STARTCHAR 0034
ENCODING 52
SWIDTH 514 0
DWIDTH 10 0
BBX 9 14 0 0
BITMAP
0600
0600
0A00
0A00
1200
3200
2200
4200
C200
FF80
FF80
0200
0200
0200
ENDCHAR
STARTCHAR 0035
ENCODING 53
SWIDTH 514 0
DWIDTH 10 0
BBX 6 14 2 0
BITMAP
F8
F8
80
80
80
F0
F8
0C
04
04
04
8C
F8
F0
ENDCHAR
STARTCHAR 0036
ENCODING 54
SWIDTH 514 0
DWIDTH 10 0
BBX 8 14 1 0
BITMAP
1E
3E
72
60
C0
DC
FE
E3
C1
C1
C1
63
7E
3C
ENDCHAR
STARTCHAR 0037
ENCODING 55
SWIDTH 514 0
DWIDTH 10 0
BBX 8 14 1 0
BITMAP
FF
FF
02
06
06
04
0C
0C
08
18
10
10
30
20
ENDCHAR
STARTCHAR 0038
ENCODING 56
SWIDTH 514 0
DWIDTH 10 0
BBX 7 14 1 0
BITMAP
3C
7E
C6
82
82
4C
78
78
44
82
82
C6
FC
78
ENDCHAR
STARTCHAR 0039
ENCODING 57
SWIDTH 514 0
DWIDTH 10 0
BBX 9 14 1 0
BITMAP
3E00
7F00
C300
8180
8180
8180
C380
7F80
3D80
0180
0300
4700
7E00
3C00
ENDCHAR
STARTCHAR 003A
ENCODING 58
SWIDTH 205 0
DWIDTH 4 0
BBX 2 10 1 0
BITMAP
C0
C0
00
00
00
00
00
00
C0
C0
ENDCHAR
STARTCHAR 003B
ENCODING 59
SWIDTH 205 0
DWIDTH 4 0
BBX 3 13 0 -3
BITMAP
60
60
00
00
00
00
00
00
20
40
40
40
80
ENDCHAR
STARTCHAR 003C
ENCODING 60
SWIDTH 668 0
DWIDTH 13 0
BBX 8 9 3 1
BITMAP
01
07
1C
30
C0
70
1C
07
01
ENDCHAR
STARTCHAR 003D
ENCODING 61
SWIDTH 668 0
DWIDTH 13 0
BBX 9 5 2 3
BITMAP
FF80
0000
0000
0000
FF80
ENDCHAR
STARTCHAR 003E
ENCODING 62
SWIDTH 668 0
DWIDTH 13 0
BBX 8 9 2 1
BITMAP
80
E0
38
0C
03
0E
38
E0
80
ENDCHAR
STARTCHAR 003F
ENCODING 63
SWIDTH 462 0
DWIDTH 9 0
BBX 6 14 1 0
BITMAP
78
8C
04
04
04
08
08
10
10
10
00
00
30
30
ENDCHAR
STARTCHAR 0040
ENCODING 64
SWIDTH 977 0
DWIDTH 19 0
BBX 15 16 2 -2
BITMAP
07E0
1810
2008
4004
43C2
8442
8842
8842
8842
8846
8CC4
4738
4000
2000
1810
07E0
ENDCHAR
STARTCHAR 0041
ENCODING 65
SWIDTH 668 0
DWIDTH 13 0
BBX 13 14 0 0
BITMAP
0200
0700
0500
0D80
0D80
0880
18C0
18C0
3060
3FE0
7FF0
6030
6030
C018
ENDCHAR
STARTCHAR 0042
ENCODING 66
SWIDTH 565 0
DWIDTH 11 0
BBX 7 14 2 0
BITMAP
FC
FE
86
82
82
84
FC
FC
86
82
82
86
FC
F8
ENDCHAR
STARTCHAR 0043
ENCODING 67
SWIDTH 617 0
DWIDTH 12 0
BBX 10 14 1 0
BITMAP
0F80
3FC0
3040
4000
C000
8000
8000
8000
8000
C000
4000
7040
3FC0
0F80
ENDCHAR
STARTCHAR 0044
ENCODING 68
SWIDTH 720 0
DWIDTH 14 0
BBX 10 14 2 0
BITMAP
FC00
FF00
8380
8080
8040
8040
8040
8040
8040
80C0
8080
8380
FF00
FC00
ENDCHAR
STARTCHAR 0045
ENCODING 69
SWIDTH 514 0
DWIDTH 10 0
BBX 7 14 2 0
BITMAP
FE
FE
80
80
80
80
FC
FC
80
80
80
80
FE
FE
ENDCHAR
STARTCHAR 0046
ENCODING 70
SWIDTH 462 0
DWIDTH 9 0
BBX 7 14 2 0
BITMAP
FE
FE
80
80
80
80
FE
FE
80
80
80
80
80
80
ENDCHAR
STARTCHAR 0047
ENCODING 71
SWIDTH 668 0
DWIDTH 13 0
BBX 10 14 1 0
BITMAP
0F80
3FC0
7040
4000
C000
8000
83C0
83C0
8040
C040
4040
7040
3FC0
1F80
ENDCHAR
STARTCHAR 0048
ENCODING 72
SWIDTH 720 0
DWIDTH 14 0
BBX 10 14 2 0
BITMAP
8040
8040
8040
8040
8040
8040
FFC0
FFC0
8040
8040
8040
8040
8040
8040
ENDCHAR
STARTCHAR 0049
ENCODING 73
SWIDTH 257 0
DWIDTH 5 0
BBX 3 14 1 0
BITMAP
E0
E0
40
40
40
40
40
40
40
40
40
40
E0
E0
ENDCHAR
STARTCHAR 004A
ENCODING 74
SWIDTH 360 0
DWIDTH 7 0
BBX 4 14 1 0
BITMAP
10
10
10
10
10
10
10
10
10
10
10
30
E0
C0
ENDCHAR
STARTCHAR 004B
ENCODING 75
SWIDTH 565 0
DWIDTH 11 0
BBX 9 14 2 0
BITMAP
8180
8300
8600
8C00
9800
B000
E000
B000
9000
9800
8C00
8600
8300
8180
ENDCHAR
STARTCHAR 004C
ENCODING 76
SWIDTH 462 0
DWIDTH 9 0
BBX 7 14 2 0
BITMAP
80
80
80
80
80
80
80
80
80
80
80
80
FE
FE
ENDCHAR
STARTCHAR 004D
ENCODING 77
SWIDTH 874 0
DWIDTH 17 0
BBX 13 14 2 0
BITMAP
C008
E018
E018
E038
B028
B068
9048
9848
8888
8C88
8D88
8508
8708
8208
ENDCHAR
STARTCHAR 004E
ENCODING 78
SWIDTH 771 0
DWIDTH 15 0
BBX 11 14 2 0
BITMAP
C020
E020
F020
B020
9820
9C20
8C20
8620
8320
8320
81A0
80E0
8060
8060
ENDCHAR
STARTCHAR 004F
ENCODING 79
SWIDTH 771 0
DWIDTH 15 0
BBX 12 14 1 0
BITMAP
0F80
3FC0
7060
4020
C010
8010
8010
8010
8010
C030
4020
70E0
3FC0
1F00
ENDCHAR
STARTCHAR 0050
ENCODING 80
SWIDTH 565 0
DWIDTH 11 0
BBX 8 14 2 0
BITMAP
FC
FE
83
81
81
81
83
FE
F8
80
80
80
80
80
ENDCHAR
STARTCHAR 0051
ENCODING 81
SWIDTH 771 0
DWIDTH 15 0
BBX 13 18 1 -4
BITMAP
0F80
3FC0
7060
4020
C010
8010
8010
8010
8010
C030
4020
70E0
3FC0
0F80
0380
01C0
00F8
0038
ENDCHAR
STARTCHAR 0052
ENCODING 82
SWIDTH 617 0
DWIDTH 12 0
BBX 10 14 2 0
BITMAP
FC00
FE00
8300
8100
8100
8100
8200
FE00
F800
8C00
8600
8300
8180
80C0
ENDCHAR
STARTCHAR 0053
ENCODING 83
SWIDTH 514 0
DWIDTH 10 0
BBX 8 14 1 0
BITMAP
3C
7E
C2
80
80
40
30
1C
02
01
01
83
FE
7C
ENDCHAR
STARTCHAR 0054
ENCODING 84
SWIDTH 514 0
DWIDTH 10 0
BBX 9 14 0 0
BITMAP
FF80
FF80
0800
0800
0800
0800
0800
0800
0800
0800
0800
0800
0800
0800
ENDCHAR
STARTCHAR 0055
ENCODING 85
SWIDTH 668 0
DWIDTH 13 0
BBX 9 14 2 0
BITMAP
8080
8080
8080
8080
8080
8080
8080
8080
8080
8080
C180
E100
7F00
3E00
ENDCHAR
STARTCHAR 0056
ENCODING 86
SWIDTH 617 0
DWIDTH 12 0
BBX 12 14 0 0
BITMAP
C010
C010
6020
6020
6060
3040
30C0
1880
1980
1980
0D00
0F00
0F00
0600
ENDCHAR
STARTCHAR 0057
ENCODING 87
SWIDTH 925 0
DWIDTH 18 0
BBX 18 14 0 0
BITMAP
C080C0
C0C0C0
614180
614180
616180
216100
332300
323300
323300
121200
1E1E00
1E1E00
0C0C00
0C0C00
ENDCHAR
STARTCHAR 0058
ENCODING 88
SWIDTH 565 0
DWIDTH 11 0
BBX 11 14 0 0
BITMAP
C060
60C0
3180
3180
1B00
1A00
0E00
0E00
1A00
1B00
3180
2180
60C0
C060
ENDCHAR
STARTCHAR 0059
ENCODING 89
SWIDTH 565 0
DWIDTH 11 0
BBX 11 14 0 0
BITMAP
C020
6040
60C0
3080
3180
1B00
0A00
0E00
0400
0400
0400
0400
0400
0400
ENDCHAR
STARTCHAR 005A
ENCODING 90
SWIDTH 565 0
DWIDTH 11 0
BBX 11 14 0 0
BITMAP
7FE0
7FC0
0080
0080
0100
0200
0400
0400
0800
1000
2000
2000
7FE0
FFE0
ENDCHAR
STARTCHAR 005B
ENCODING 91
SWIDTH 308 0
DWIDTH 6 0
BBX 3 17 2 -3
BITMAP
E0
80
80
80
80
80
80
80
80
80
80
80
80
80
80
80
E0
ENDCHAR
STARTCHAR 005C
ENCODING 92
SWIDTH 771 0
DWIDTH 15 0
BBX 14 14 0 0
BITMAP
4108
4108
2108
2290
2290
2290
FFFC
12B0
14A0
14A0
1460
1C60
0C60
0C60
ENDCHAR
STARTCHAR 005D
ENCODING 93
SWIDTH 308 0
DWIDTH 6 0
BBX 3 17 1 -3
BITMAP
E0
20
20
20
20
20
20
20
20
20
20
20
20
20
20
20
E0
ENDCHAR
STARTCHAR 005E
ENCODING 94
SWIDTH 668 0
DWIDTH 13 0
BBX 9 8 2 6
BITMAP
0800
1C00
1400
3600
2200
4100
4100
8080
ENDCHAR
STARTCHAR 005F
ENCODING 95
SWIDTH 411 0
DWIDTH 8 0
BBX 8 2 0 -4
BITMAP
FF
FF
ENDCHAR
STARTCHAR 0060
ENCODING 96
SWIDTH 257 0
DWIDTH 5 0
BBX 3 3 1 12
BITMAP
C0
60
20
ENDCHAR
STARTCHAR 0061
ENCODING 97
SWIDTH 514 0
DWIDTH 10 0
BBX 7 10 1 0
BITMAP
3C
7E
46
02
1E
7E
82
86
FA
7A
ENDCHAR
STARTCHAR 0062
ENCODING 98
SWIDTH 565 0
DWIDTH 11 0
BBX 8 15 2 0
BITMAP
80
80
80
80
80
BC
FE
C3
81
81
81
81
C2
FE
BC
ENDCHAR
STARTCHAR 0063
ENCODING 99
SWIDTH 462 0
DWIDTH 9 0
BBX 7 10 1 0
BITMAP
1C
7E
62
80
80
80
80
C2
7E
3C
ENDCHAR
STARTCHAR 0064
ENCODING 100
SWIDTH 565 0
DWIDTH 11 0
BBX 8 15 1 0
BITMAP
01
01
01
01
01
3D
7F
43
81
81
81
81
C3
7F
3D
ENDCHAR
STARTCHAR 0065
ENCODING 101
SWIDTH 514 0
DWIDTH 10 0
BBX 8 10 1 0
BITMAP
3C
7E
43
81
FF
FF
80
C1
7F
3E
ENDCHAR
STARTCHAR 0066
ENCODING 102
SWIDTH 308 0
DWIDTH 6 0
BBX 6 15 0 0
BITMAP
1C
3C
20
20
20
FC
FC
20
20
20
20
20
20
20
20
ENDCHAR
STARTCHAR 0067
ENCODING 103
SWIDTH 565 0
DWIDTH 11 0
BBX 8 14 1 -4
BITMAP
3D
7F
43
81
81
81
81
C3
7F
3D
01
43
7E
3C
ENDCHAR
STARTCHAR 0068
ENCODING 104
SWIDTH 565 0
DWIDTH 11 0
BBX 7 15 2 0
BITMAP
80
80
80
80
80
BC
FE
C6
82
82
82
82
82
82
82
ENDCHAR
STARTCHAR 0069
ENCODING 105
SWIDTH 257 0
DWIDTH 5 0
BBX 2 14 1 0
BITMAP
C0
C0
00
00
80
80
80
80
80
80
80
80
80
80
ENDCHAR
STARTCHAR 006A
ENCODING 106
SWIDTH 257 0
DWIDTH 5 0
BBX 5 18 -2 -4
BITMAP
18
18
00
00
10
10
10
10
10
10
10
10
10
10
10
30
E0
E0
ENDCHAR
STARTCHAR 006B
ENCODING 107
SWIDTH 514 0
DWIDTH 10 0
BBX 7 15 2 0
BITMAP
80
80
80
80
80
86
8C
98
B0
E0
E0
B0
98
8C
86
ENDCHAR
STARTCHAR 006C
ENCODING 108
SWIDTH 257 0
DWIDTH 5 0
BBX 1 15 2 0
BITMAP
80
80
80
80
80
80
80
80
80
80
80
80
80
80
80
ENDCHAR
STARTCHAR 006D
ENCODING 109
SWIDTH 874 0
DWIDTH 17 0
BBX 13 10 2 0
BITMAP
BCF0
FFF8
C718
8208
8208
8208
8208
8208
8208
8208
ENDCHAR
STARTCHAR 006E
ENCODING 110
SWIDTH 565 0
DWIDTH 11 0
BBX 7 10 2 0
BITMAP
BC
FE
C6
82
82
82
82
82
82
82
ENDCHAR
STARTCHAR 006F
ENCODING 111
SWIDTH 565 0
DWIDTH 11 0
BBX 9 10 1 0
BITMAP
3E00
7F00
4180
8080
8080
8080
8080
C100
7F00
3E00
ENDCHAR
STARTCHAR 0070
ENCODING 112
SWIDTH 565 0
DWIDTH 11 0
BBX 8 14 2 -4
BITMAP
BC
FE
C3
81
81
81
81
C2
FE
BC
80
80
80
80
ENDCHAR
STARTCHAR 0071
ENCODING 113
SWIDTH 565 0
DWIDTH 11 0
BBX 8 14 1 -4
BITMAP
3D
7F
C3
81
81
81
81
C3
7F
3D
01
01
01
01
ENDCHAR
STARTCHAR 0072
ENCODING 114
SWIDTH 360 0
DWIDTH 7 0
BBX 5 10 2 0
BITMAP
B8
C0
80
80
80
80
80
80
80
80
ENDCHAR
STARTCHAR 0073
ENCODING 115
SWIDTH 411 0
DWIDTH 8 0
BBX 6 10 1 0
BITMAP
38
FC
84
80
60
18
04
84
FC
78
ENDCHAR
STARTCHAR 0074
ENCODING 116
SWIDTH 360 0
DWIDTH 7 0
BBX 5 13 0 0
BITMAP
20
20
20
F8
F8
20
20
20
20
20
20
38
18
ENDCHAR
STARTCHAR 0075
ENCODING 117
SWIDTH 565 0
DWIDTH 11 0
BBX 8 10 1 0
BITMAP
81
81
81
81
81
81
81
C3
7F
3D
ENDCHAR
STARTCHAR 0076
ENCODING 118
SWIDTH 462 0
DWIDTH 9 0
BBX 9 10 0 0
BITMAP
C180
C300
6300
6600
6600
2400
2C00
2800
1800
1000
ENDCHAR
STARTCHAR 0077
ENCODING 119
SWIDTH 720 0
DWIDTH 14 0
BBX 14 10 0 0
BITMAP
C104
C384
6388
6288
64C8
24D0
3850
3870
1860
1020
ENDCHAR
STARTCHAR 0078
ENCODING 120
SWIDTH 462 0
DWIDTH 9 0
BBX 9 10 0 0
BITMAP
C180
6300
3200
3600
1C00
1C00
1400
2600
6300
C180
ENDCHAR
STARTCHAR 0079
ENCODING 121
SWIDTH 462 0
DWIDTH 9 0
BBX 9 14 0 -4
BITMAP
C080
6100
6100
2300
3200
3200
1400
1C00
0C00
0800
1800
3000
F000
E000
ENDCHAR
STARTCHAR 007A
ENCODING 122
SWIDTH 462 0
DWIDTH 9 0
BBX 9 10 0 0
BITMAP
7F80
7F00
0200
0400
0800
1000
1000
2000
7F80
FF80
ENDCHAR
STARTCHAR 007B
ENCODING 123
SWIDTH 308 0
DWIDTH 6 0
BBX 5 17 1 -3
BITMAP
18
30
20
20
20
20
20
60
80
60
20
20
20
20
20
20
18
ENDCHAR
STARTCHAR 007C
ENCODING 124
SWIDTH 257 0
DWIDTH 5 0
BBX 1 19 2 -4
BITMAP
80
80
80
80
80
80
80
80
80
80
80
80
80
80
80
80
80
80
80
ENDCHAR
STARTCHAR 007D
ENCODING 125
SWIDTH 308 0
DWIDTH 6 0
BBX 5 17 0 -3
BITMAP
C0
60
20
20
20
20
20
30
08
30
20
20
20
20
20
20
C0
ENDCHAR
STARTCHAR 007E
ENCODING 126
SWIDTH 668 0
DWIDTH 13 0
BBX 9 3 2 4
BITMAP
7080
8C80
8700
ENDCHAR
STARTCHAR 00A0
ENCODING 160
SWIDTH 360 0
DWIDTH 7 0
BBX 0 0 0 0
BITMAP
ENDCHAR
STARTCHAR 00A1
ENCODING 161
SWIDTH 308 0
DWIDTH 6 0
BBX 2 14 2 -4
BITMAP
C0
C0
00
00
C0
C0
C0
C0
C0
C0
C0
C0
C0
C0
ENDCHAR
STARTCHAR 00A2
ENCODING 162
SWIDTH 514 0
DWIDTH 10 0
BBX 7 14 2 0
BITMAP
08
08
1C
7E
6A
88
88
88
88
EA
7E
3C
08
08
ENDCHAR
STARTCHAR 00A3
ENCODING 163
SWIDTH 514 0
DWIDTH 10 0
BBX 8 14 1 0
BITMAP
0E
1E
32
20
20
20
FC
FC
20
20
20
40
FF
FF
ENDCHAR
STARTCHAR 00A4
ENCODING 164
SWIDTH 565 0
DWIDTH 11 0
BBX 9 10 1 2
BITMAP
8080
7F00
2200
4100
4100
4100
4100
2200
7F00
8080
ENDCHAR
STARTCHAR 00A5
ENCODING 165
SWIDTH 514 0
DWIDTH 10 0
BBX 8 14 1 0
BITMAP
C3
66
66
24
38
38
7E
7E
10
10
7E
7E
10
10
ENDCHAR
STARTCHAR 00A6
ENCODING 166
SWIDTH 257 0
DWIDTH 5 0
BBX 1 19 2 -4
BITMAP
80
80
80
80
80
80
80
80
00
00
00
80
80
80
80
80
80
80
80
ENDCHAR
STARTCHAR 00A7
ENCODING 167
SWIDTH 462 0
DWIDTH 9 0
BBX 8 15 1 -1
BITMAP
3C
7E
62
60
38
7E
C7
C3
E3
7E
1C
06
86
FE
78
ENDCHAR
STARTCHAR 00A8
ENCODING 168
SWIDTH 411 0
DWIDTH 8 0
BBX 6 2 1 11
BITMAP
CC
CC
ENDCHAR
STARTCHAR 00A9
ENCODING 169
SWIDTH 874 0
DWIDTH 17 0
BBX 14 14 2 0
BITMAP
0FC0
1860
2010
4788
C84C
9004
9004
9004
9004
C84C
4788
2010
1860
0FC0
ENDCHAR
STARTCHAR 00AA
ENCODING 170
SWIDTH 411 0
DWIDTH 8 0
BBX 6 7 1 7
BITMAP
38
44
04
7C
84
8C
74
ENDCHAR
STARTCHAR 00AB
ENCODING 171
SWIDTH 514 0
DWIDTH 10 0
BBX 7 6 1 2
BITMAP
32
64
C8
98
4C
26
ENDCHAR
STARTCHAR 00AC
ENCODING 172
SWIDTH 668 0
DWIDTH 13 0
BBX 9 5 2 3
BITMAP
FF80
0080
0080
0080
0080
ENDCHAR
STARTCHAR 00AD
ENCODING 173
SWIDTH 411 0
DWIDTH 8 0
BBX 6 2 1 4
BITMAP
FC
FC
ENDCHAR
STARTCHAR 00AE
ENCODING 174
SWIDTH 874 0
DWIDTH 17 0
BBX 14 14 2 0
BITMAP
0FC0
1860
2010
4F88
C84C
8844
8844
8F84
8984
C88C
4848
2010
1860
0FC0
ENDCHAR
STARTCHAR 00AF
ENCODING 175
SWIDTH 411 0
DWIDTH 8 0
BBX 8 2 0 13
BITMAP
FF
FF
ENDCHAR
STARTCHAR 00B0
ENCODING 176
SWIDTH 360 0
DWIDTH 7 0
BBX 5 5 1 9
BITMAP
70
88
88
88
70
ENDCHAR
STARTCHAR 00B1
ENCODING 177
SWIDTH 668 0
DWIDTH 13 0
BBX 9 11 2 0
BITMAP
0800
0800
0800
0800
FF80
0800
0800
0800
0800
0000
FF80
ENDCHAR
STARTCHAR 00B2
ENCODING 178
SWIDTH 360 0
DWIDTH 7 0
BBX 5 8 1 6
BITMAP
70
88
08
08
10
20
40
F8
ENDCHAR
STARTCHAR 00B3
ENCODING 179
SWIDTH 360 0
DWIDTH 7 0
BBX 5 8 1 6
BITMAP
70
88
08
70
18
08
88
F0
ENDCHAR
STARTCHAR 00B4
ENCODING 180
SWIDTH 257 0
DWIDTH 5 0
BBX 3 3 1 12
BITMAP
60
C0
80
ENDCHAR
STARTCHAR 00B5
ENCODING 181
SWIDTH 565 0
DWIDTH 11 0
BBX 7 14 2 -4
BITMAP
82
82
82
82
82
82
82
82
C6
BA
80
80
80
80
ENDCHAR
STARTCHAR 00B6
ENCODING 182
SWIDTH 462 0
DWIDTH 9 0
BBX 7 14 1 0
BITMAP
7E
E4
E4
E4
64
24
24
24
24
24
24
24
24
24
ENDCHAR
STARTCHAR 00B7
ENCODING 183
SWIDTH 205 0
DWIDTH 4 0
BBX 2 2 1 5
BITMAP
C0
C0
ENDCHAR
STARTCHAR 00B8
ENCODING 184
SWIDTH 205 0
DWIDTH 4 0
BBX 3 4 1 -4
BITMAP
80
E0
20
E0
ENDCHAR
STARTCHAR 00B9
ENCODING 185
SWIDTH 360 0
DWIDTH 7 0
BBX 5 8 1 6
BITMAP
20
60
A0
20
20
20
20
F8
ENDCHAR
STARTCHAR 00BA
ENCODING 186
SWIDTH 411 0
DWIDTH 8 0
BBX 6 7 1 7
BITMAP
78
CC
84
84
84
CC
78
ENDCHAR
STARTCHAR 00BB
ENCODING 187
SWIDTH 514 0
DWIDTH 10 0
BBX 7 6 2 2
BITMAP
B0
58
2C
36
6C
D8
ENDCHAR
STARTCHAR 00BC
ENCODING 188
SWIDTH 874 0
DWIDTH 17 0
BBX 15 14 1 0
BITMAP
2010
6020
A020
2040
2080
2080
210C
F90C
0214
0224
0464
087E
0804
1004
ENDCHAR
STARTCHAR 00BD
ENCODING 189
SWIDTH 925 0
DWIDTH 18 0
BBX 15 14 1 0
BITMAP
2010
6020
A020
2040
2080
2080
211C
F922
0202
0202
0404
0808
0810
103E
ENDCHAR
STARTCHAR 00BE
ENCODING 190
SWIDTH 925 0
DWIDTH 18 0
BBX 15 14 1 0
BITMAP
7010
8820
0820
7040
1880
0880
890C
F10C
0214
0224
0464
087E
0804
1004
ENDCHAR
STARTCHAR 00BF
ENCODING 191
SWIDTH 462 0
DWIDTH 9 0
BBX 6 14 1 -4
BITMAP
18
18
00
00
10
10
10
20
40
80
80
80
C4
78
ENDCHAR
STARTCHAR 00C0
ENCODING 192
SWIDTH 668 0
DWIDTH 13 0
BBX 13 18 0 0
BITMAP
0600
0300
0100
0000
0200
0700
0500
0D00
0D80
0880
18C0
18C0
3060
3FE0
7FE0
6030
6030
C018
ENDCHAR
STARTCHAR 00C1
ENCODING 193
SWIDTH 668 0
DWIDTH 13 0
BBX 13 18 0 0
BITMAP
0300
0600
0400
0000
0200
0700
0500
0D00
0D80
0880
18C0
18C0
3060
3FE0
7FE0
6030
6030
C018
ENDCHAR
STARTCHAR 00C2
ENCODING 194
SWIDTH 668 0
DWIDTH 13 0
BBX 13 18 0 0
BITMAP
0200
0500
0880
0000
0200
0700
0500
0D00
0D80
0880
18C0
18C0
3060
3FE0
7FE0
6030
6030
C018
ENDCHAR
STARTCHAR 00C3
ENCODING 195
SWIDTH 668 0
DWIDTH 13 0
BBX 13 17 0 0
BITMAP
0E40
1380
0000
0200
0700
0500
0D00
0D80
0880
18C0
18C0
3060
3FE0
7FE0
6030
6030
C018
ENDCHAR
STARTCHAR 00C4
ENCODING 196
SWIDTH 668 0
DWIDTH 13 0
BBX 13 17 0 0
BITMAP
0CC0
0CC0
0000
0200
0700
0500
0D00
0D80
0880
18C0
18C0
3060
3FE0
7FE0
6030
6030
C018
ENDCHAR
STARTCHAR 00C5
ENCODING 197
SWIDTH 668 0
DWIDTH 13 0
BBX 13 17 0 0
BITMAP
0700
0880
0880
0F00
0600
0700
0D00
0980
1980
18C0
10C0
3060
3FE0
7FE0
6030
6030
C018
ENDCHAR
STARTCHAR 00C6
ENCODING 198
SWIDTH 874 0
DWIDTH 17 0
BBX 16 14 0 0
BITMAP
01FF
03FF
0340
0640
0640
0C40
0C7E
187E
1840
3FC0
3FC0
7040
607F
C07F
ENDCHAR
STARTCHAR 00C7
ENCODING 199
SWIDTH 617 0
DWIDTH 12 0
BBX 10 18 1 -4
BITMAP
0F80
3FC0
3040
4000
C000
8000
8000
8000
8000
C000
4000
7040
3FC0
1F80
0400
0700
0100
0700
ENDCHAR
STARTCHAR 00C8
ENCODING 200
SWIDTH 514 0
DWIDTH 10 0
BBX 7 18 2 0
BITMAP
30
18
08
00
FE
FE
80
80
80
80
FC
FC
80
80
80
80
FE
FE
ENDCHAR
STARTCHAR 00C9
ENCODING 201
SWIDTH 514 0
DWIDTH 10 0
BBX 7 18 2 0
BITMAP
0C
18
10
00
FE
FE
80
80
80
80
FC
FC
80
80
80
80
FE
FE
ENDCHAR
STARTCHAR 00CA
ENCODING 202
SWIDTH 514 0
DWIDTH 10 0
BBX 7 18 2 0
BITMAP
10
28
44
00
FE
FE
80
80
80
80
FC
FC
80
80
80
80
FE
FE
ENDCHAR
STARTCHAR 00CB
ENCODING 203
SWIDTH 514 0
DWIDTH 10 0
BBX 7 17 2 0
BITMAP
66
66
00
FE
FE
80
80
80
80
FC
FC
80
80
80
80
FE
FE
ENDCHAR
STARTCHAR 00CC
ENCODING 204
SWIDTH 257 0
DWIDTH 5 0
BBX 3 18 1 0
BITMAP
C0
60
20
00
E0
E0
40
40
40
40
40
40
40
40
40
40
E0
E0
ENDCHAR
STARTCHAR 00CD
ENCODING 205
SWIDTH 257 0
DWIDTH 5 0
BBX 4 18 1 0
BITMAP
30
60
40
00
E0
E0
40
40
40
40
40
40
40
40
40
40
E0
E0
ENDCHAR
STARTCHAR 00CE
ENCODING 206
SWIDTH 257 0
DWIDTH 5 0
BBX 5 18 0 0
BITMAP
20
50
88
00
70
70
20
20
20
20
20
20
20
20
20
20
70
70
ENDCHAR
STARTCHAR 00CF
ENCODING 207
SWIDTH 257 0
DWIDTH 5 0
BBX 6 17 0 0
BITMAP
CC
CC
00
70
70
20
20
20
20
20
20
20
20
20
20
70
70
ENDCHAR
STARTCHAR 00D0
ENCODING 208
SWIDTH 720 0
DWIDTH 14 0
BBX 12 14 0 0
BITMAP
3F00
3FC0
20E0
2020
2010
2010
FC10
FC10
2010
2030
2020
20E0
3FC0
3F00
ENDCHAR
STARTCHAR 00D1
ENCODING 209
SWIDTH 771 0
DWIDTH 15 0
BBX 11 17 2 0
BITMAP
0E40
1380
0000
C020
E020
F020
B020
9820
9C20
8C20
8620
8320
8320
81A0
80E0
8060
8060
ENDCHAR
STARTCHAR 00D2
ENCODING 210
SWIDTH 771 0
DWIDTH 15 0
BBX 12 18 1 0
BITMAP
0C00
0600
0200
0000
0F80
3FC0
7060
4020
C010
8010
8010
8010
8010
C030
4020
70E0
3FC0
1F00
ENDCHAR
STARTCHAR 00D3
ENCODING 211
SWIDTH 771 0
DWIDTH 15 0
BBX 12 18 1 0
BITMAP
0300
0600
0400
0000
0F80
3FC0
7060
4020
C010
8010
8010
8010
8010
C030
4020
70E0
3FC0
1F00
ENDCHAR
STARTCHAR 00D4
ENCODING 212
SWIDTH 771 0
DWIDTH 15 0
BBX 12 18 1 0
BITMAP
0200
0500
0880
0000
0F80
3FC0
7060
4020
C010
8010
8010
8010
8010
C030
4020
70E0
3FC0
1F00
ENDCHAR
STARTCHAR 00D5
ENCODING 213
SWIDTH 771 0
DWIDTH 15 0
BBX 12 17 1 0
BITMAP
0E40
1380
0000
0F80
3FC0
7060
4020
C010
8010
8010
8010
8010
C030
4020
70E0
3FC0
1F00
ENDCHAR
STARTCHAR 00D6
ENCODING 214
SWIDTH 771 0
DWIDTH 15 0
BBX 12 17 1 0
BITMAP
1980
1980
0000
0F80
3FC0
7060
4020
C010
8010
8010
8010
8010
C030
4020
70E0
3FC0
1F00
ENDCHAR
STARTCHAR 00D7
ENCODING 215
SWIDTH 668 0
DWIDTH 13 0
BBX 7 8 3 2
BITMAP
82
44
6C
38
38
6C
44
82
ENDCHAR
STARTCHAR 00D8
ENCODING 216
SWIDTH 771 0
DWIDTH 15 0
BBX 12 14 1 0
BITMAP
0F10
3FE0
7060
40E0
C190
8110
8210
8410
8810
9030
6020
60E0
7FC0
8F00
ENDCHAR
STARTCHAR 00D9
ENCODING 217
SWIDTH 668 0
DWIDTH 13 0
BBX 9 18 2 0
BITMAP
1800
0C00
0400
0000
8080
8080
8080
8080
8080
8080
8080
8080
8080
8080
C180
E100
7F00
3E00
ENDCHAR
STARTCHAR 00DA
ENCODING 218
SWIDTH 668 0
DWIDTH 13 0
BBX 9 18 2 0
BITMAP
0600
0C00
0800
0000
8080
8080
8080
8080
8080
8080
8080
8080
8080
8080
C180
E100
7F00
3E00
ENDCHAR
STARTCHAR 00DB
ENCODING 219
SWIDTH 668 0
DWIDTH 13 0
BBX 9 18 2 0
BITMAP
0800
1400
2200
0000
8080
8080
8080
8080
8080
8080
8080
8080
8080
8080
C180
E100
7F00
3E00
ENDCHAR
STARTCHAR 00DC
ENCODING 220
SWIDTH 668 0
DWIDTH 13 0
BBX 9 17 2 0
BITMAP
3300
3300
0000
8080
8080
8080
8080
8080
8080
8080
8080
8080
8080
C180
E100
7F00
3E00
ENDCHAR
STARTCHAR 00DD
ENCODING 221
SWIDTH 565 0
DWIDTH 11 0
BBX 11 18 0 0
BITMAP
0300
0600
0400
0000
C020
6040
60C0
3080
3180
1B00
0A00
0E00
0400
0400
0400
0400
0400
0400
ENDCHAR
STARTCHAR 00DE
ENCODING 222
SWIDTH 565 0
DWIDTH 11 0
BBX 8 14 2 0
BITMAP
80
80
FC
FE
83
81
81
81
83
FE
F8
80
80
80
ENDCHAR
STARTCHAR 00DF
ENCODING 223
SWIDTH 565 0
DWIDTH 11 0
BBX 8 15 2 0
BITMAP
3C
7E
C6
82
82
84
98
9C
86
81
81
81
83
BE
BC
ENDCHAR
STARTCHAR 00E0
ENCODING 224
SWIDTH 514 0
DWIDTH 10 0
BBX 7 14 1 0
BITMAP
30
18
08
00
3C
7E
46
02
1E
7E
82
86
FA
7A
ENDCHAR
STARTCHAR 00E1
ENCODING 225
SWIDTH 514 0
DWIDTH 10 0
BBX 7 14 1 0
BITMAP
0C
18
10
00
3C
7E
46
02
1E
7E
82
86
FA
7A
ENDCHAR
STARTCHAR 00E2
ENCODING 226
SWIDTH 514 0
DWIDTH 10 0
BBX 7 14 1 0
BITMAP
08
14
22
00
3C
7E
46
02
1E
7E
82
86
FA
7A
ENDCHAR
STARTCHAR 00E3
ENCODING 227
SWIDTH 514 0
DWIDTH 10 0
BBX 8 13 1 0
BITMAP
39
4E
00
3C
7E
46
02
1E
7E
82
86
FA
7A
ENDCHAR
STARTCHAR 00E4
ENCODING 228
SWIDTH 514 0
DWIDTH 10 0
BBX 7 13 1 0
BITMAP
66
66
00
3C
7E
46
02
1E
7E
82
86
FA
7A
ENDCHAR
STARTCHAR 00E5
ENCODING 229
SWIDTH 514 0
DWIDTH 10 0
BBX 7 15 1 0
BITMAP
18
24
24
18
00
3C
7E
46
02
1E
7E
82
86
FA
7A
ENDCHAR
STARTCHAR 00E6
ENCODING 230
SWIDTH 822 0
DWIDTH 16 0
BBX 14 10 1 0
BITMAP
3CF0
7FF8
438C
0304
3FFC
FFFC
8200
8704
FDFC
78F8
ENDCHAR
STARTCHAR 00E7
ENCODING 231
SWIDTH 462 0
DWIDTH 9 0
BBX 7 14 1 -4
BITMAP
1C
7E
62
80
80
80
80
42
7E
1C
08
0C
04
0C
ENDCHAR
STARTCHAR 00E8
ENCODING 232
SWIDTH 514 0
DWIDTH 10 0
BBX 8 14 1 0
BITMAP
18
0C
04
00
3C
7E
43
81
FF
FF
80
C1
7F
3E
ENDCHAR
STARTCHAR 00E9
ENCODING 233
SWIDTH 514 0
DWIDTH 10 0
BBX 8 14 1 0
BITMAP
0C
18
10
00
3C
7E
43
81
FF
FF
80
C1
7F
3E
ENDCHAR
STARTCHAR 00EA
ENCODING 234
SWIDTH 514 0
DWIDTH 10 0
BBX 8 14 1 0
BITMAP
08
14
22
00
3C
7E
43
81
FF
FF
80
C1
7F
3E
ENDCHAR
STARTCHAR 00EB
ENCODING 235
SWIDTH 514 0
DWIDTH 10 0
BBX 8 13 1 0
BITMAP
66
66
00
3C
7E
43
81
FF
FF
80
C1
7F
3E
ENDCHAR
STARTCHAR 00EC
ENCODING 236
SWIDTH 257 0
DWIDTH 5 0
BBX 3 14 1 0
BITMAP
C0
60
20
00
40
40
40
40
40
40
40
40
40
40
ENDCHAR
STARTCHAR 00ED
ENCODING 237
SWIDTH 257 0
DWIDTH 5 0
BBX 3 14 2 0
BITMAP
60
C0
80
00
80
80
80
80
80
80
80
80
80
80
ENDCHAR
STARTCHAR 00EE
ENCODING 238
SWIDTH 257 0
DWIDTH 5 0
BBX 5 14 0 0
BITMAP
20
50
88
00
20
20
20
20
20
20
20
20
20
20
ENDCHAR
STARTCHAR 00EF
ENCODING 239
SWIDTH 257 0
DWIDTH 5 0
BBX 6 13 0 0
BITMAP
CC
CC
00
20
20
20
20
20
20
20
20
20
20
ENDCHAR
STARTCHAR 00F0
ENCODING 240
SWIDTH 565 0
DWIDTH 11 0
BBX 9 15 1 0
BITMAP
3100
1E00
0C00
3600
4200
3F00
7F00
4180
8080
8080
8080
8080
C100
7F00
3E00
ENDCHAR
STARTCHAR 00F1
ENCODING 241
SWIDTH 565 0
DWIDTH 11 0
BBX 7 13 2 0
BITMAP
72
9C
00
BC
FE
C6
82
82
82
82
82
82
82
ENDCHAR
STARTCHAR 00F2
ENCODING 242
SWIDTH 565 0
DWIDTH 11 0
BBX 9 14 1 0
BITMAP
1800
0C00
0400
0000
3E00
7F00
4180
8080
8080
8080
8080
C100
7F00
3E00
ENDCHAR
STARTCHAR 00F3
ENCODING 243
SWIDTH 565 0
DWIDTH 11 0
BBX 9 14 1 0
BITMAP
0600
0C00
0800
0000
3E00
7F00
4180
8080
8080
8080
8080
C100
7F00
3E00
ENDCHAR
STARTCHAR 00F4
ENCODING 244
SWIDTH 565 0
DWIDTH 11 0
BBX 9 14 1 0
BITMAP
0800
1400
2200
0000
3E00
7F00
4180
8080
8080
8080
8080
C100
7F00
3E00
ENDCHAR
STARTCHAR 00F5
ENCODING 245
SWIDTH 565 0
DWIDTH 11 0
BBX 9 13 1 0
BITMAP
3900
4E00
0000
3E00
7F00
4180
8080
8080
8080
8080
C100
7F00
3E00
ENDCHAR
STARTCHAR 00F6
ENCODING 246
SWIDTH 565 0
DWIDTH 11 0
BBX 9 13 1 0
BITMAP
3300
3300
0000
3E00
7F00
4180
8080
8080
8080
8080
C100
7F00
3E00
ENDCHAR
STARTCHAR 00F7
ENCODING 247
SWIDTH 668 0
DWIDTH 13 0
BBX 8 9 3 1
BITMAP
18
18
00
00
FF
00
00
18
18
ENDCHAR
STARTCHAR 00F8
ENCODING 248
SWIDTH 565 0
DWIDTH 11 0
BBX 10 12 1 -1
BITMAP
0040
3E80
7F00
6380
C680
8C80
9880
B080
E100
7F00
FE00
8000
ENDCHAR
STARTCHAR 00F9
ENCODING 249
SWIDTH 565 0
DWIDTH 11 0
BBX 8 14 1 0
BITMAP
30
18
08
00
81
81
81
81
81
81
81
C3
7F
3D
ENDCHAR
STARTCHAR 00FA
ENCODING 250
SWIDTH 565 0
DWIDTH 11 0
BBX 8 14 1 0
BITMAP
06
0C
08
00
81
81
81
81
81
81
81
C3
7F
3D
ENDCHAR
STARTCHAR 00FB
ENCODING 251
SWIDTH 565 0
DWIDTH 11 0
BBX 8 14 1 0
BITMAP
08
14
22
00
81
81
81
81
81
81
81
C3
7F
3D
ENDCHAR
STARTCHAR 00FC
ENCODING 252
SWIDTH 565 0
DWIDTH 11 0
BBX 8 13 1 0
BITMAP
66
66
00
81
81
81
81
81
81
81
C3
7F
3D
ENDCHAR
STARTCHAR 00FD
ENCODING 253
SWIDTH 462 0
DWIDTH 9 0
BBX 9 18 0 -4
BITMAP
0600
0C00
0800
0000
C080
6100
6100
2300
3200
3200
1400
1C00
0C00
0800
1800
3000
F000
E000
ENDCHAR
STARTCHAR 00FE
ENCODING 254
SWIDTH 565 0
DWIDTH 11 0
BBX 8 19 2 -4
BITMAP
80
80
80
80
80
BC
FE
C3
81
81
81
81
C2
FE
BC
80
80
80
80
ENDCHAR
STARTCHAR 00FF
ENCODING 255
SWIDTH 462 0
DWIDTH 9 0
BBX 9 17 0 -4
BITMAP
3300
3300
0000
C080
6100
6100
2300
3200
3200
1400
1C00
0C00
0800
1800
3000
F000
E000
ENDCHAR
STARTCHAR 0111
ENCODING 273
SWIDTH 565 0
DWIDTH 11 0
BBX 9 15 1 0
BITMAP
0100
0100
0F80
0F80
0100
3D00
7F00
C300
8100
8100
8100
8100
C300
FF00
3D00
ENDCHAR
STARTCHAR 0126
ENCODING 294
SWIDTH 720 0
DWIDTH 14 0
BBX 14 14 0 0
BITMAP
2010
2010
FFFC
FFFC
2010
2010
3FF0
3FF0
2010
2010
2010
2010
2010
2010
ENDCHAR
STARTCHAR 0127
ENCODING 295
SWIDTH 565 0
DWIDTH 11 0
BBX 8 15 1 0
BITMAP
40
40
F8
F8
40
5E
7F
63
41
41
41
41
41
41
41
ENDCHAR
STARTCHAR 0131
ENCODING 305
SWIDTH 257 0
DWIDTH 5 0
BBX 1 10 2 0
BITMAP
80
80
80
80
80
80
80
80
80
80
ENDCHAR
STARTCHAR 0132
ENCODING 306
SWIDTH 617 0
DWIDTH 12 0
BBX 9 14 1 0
BITMAP
E080
E080
4080
4080
4080
4080
4080
4080
4080
4080
4080
4180
E700
E600
ENDCHAR
STARTCHAR 0133
ENCODING 307
SWIDTH 462 0
DWIDTH 9 0
BBX 7 18 1 -4
BITMAP
C6
C6
00
00
84
84
84
84
84
84
84
84
84
84
04
0C
38
38
ENDCHAR
STARTCHAR 0138
ENCODING 312
SWIDTH 514 0
DWIDTH 10 0
BBX 7 10 2 0
BITMAP
86
8C
98
B0
E0
E0
B0
98
8C
86
ENDCHAR
STARTCHAR 013F
ENCODING 319
SWIDTH 462 0
DWIDTH 9 0
BBX 7 14 2 0
BITMAP
80
80
80
80
80
80
8C
8C
80
80
80
80
FE
FE
ENDCHAR
STARTCHAR 0140
ENCODING 320
SWIDTH 308 0
DWIDTH 6 0
BBX 5 15 2 0
BITMAP
80
80
80
80
80
80
80
98
98
80
80
80
80
80
80
ENDCHAR
STARTCHAR 0141
ENCODING 321
SWIDTH 462 0
DWIDTH 9 0
BBX 8 14 1 0
BITMAP
40
40
40
40
48
58
70
60
C0
40
40
40
7F
7F
ENDCHAR
STARTCHAR 0142
ENCODING 322
SWIDTH 257 0
DWIDTH 5 0
BBX 3 15 1 0
BITMAP
40
40
40
40
40
40
60
60
C0
C0
40
40
40
40
40
ENDCHAR
STARTCHAR 0149
ENCODING 329
SWIDTH 617 0
DWIDTH 12 0
BBX 10 14 0 0
BITMAP
4000
4000
8000
8000
1780
1FC0
18C0
1040
1040
1040
1040
1040
1040
1040
ENDCHAR
STARTCHAR 014A
ENCODING 330
SWIDTH 771 0
DWIDTH 15 0
BBX 11 18 2 -4
BITMAP
C020
E020
E020
B020
9820
9820
8C20
8620
8320
8120
81A0
80E0
8060
8020
0020
0060
03C0
0380
ENDCHAR
STARTCHAR 014B
ENCODING 331
SWIDTH 565 0
DWIDTH 11 0
BBX 7 14 2 -4
BITMAP
BC
FE
C6
82
82
82
82
82
82
82
02
02
1E
1C
ENDCHAR
STARTCHAR 0152
ENCODING 338
SWIDTH 925 0
DWIDTH 18 0
BBX 16 14 1 0
BITMAP
0FFF
3FFF
7040
4040
C040
8040
807E
807E
8040
C040
4040
7040
3FFF
0FFF
ENDCHAR
STARTCHAR 0153
ENCODING 339
SWIDTH 925 0
DWIDTH 18 0
BBX 16 10 1 0
BITMAP
3E3C
7F7E
41C3
8081
80FF
80FF
8080
C1C1
7FFF
3E3E
ENDCHAR
STARTCHAR 0160
ENCODING 352
SWIDTH 514 0
DWIDTH 10 0
BBX 8 18 1 0
BITMAP
22
14
08
00
3C
7E
C2
80
80
40
30
1C
02
01
01
83
FE
7C
ENDCHAR
STARTCHAR 0161
ENCODING 353
SWIDTH 411 0
DWIDTH 8 0
BBX 6 14 1 0
BITMAP
44
28
10
00
38
FC
84
80
60
18
04
84
FC
78
ENDCHAR
STARTCHAR 0166
ENCODING 358
SWIDTH 514 0
DWIDTH 10 0
BBX 9 14 0 0
BITMAP
FF80
FF80
0800
0800
0800
0800
3E00
3E00
0800
0800
0800
0800
0800
0800
ENDCHAR
STARTCHAR 0167
ENCODING 359
SWIDTH 360 0
DWIDTH 7 0
BBX 5 13 0 0
BITMAP
20
20
20
F8
F8
20
20
F8
F8
20
20
38
38
ENDCHAR
STARTCHAR 0178
ENCODING 376
SWIDTH 565 0
DWIDTH 11 0
BBX 11 17 0 0
BITMAP
1980
1980
0000
C020
6040
60C0
3080
3180
1B00
0A00
0E00
0400
0400
0400
0400
0400
0400
ENDCHAR
STARTCHAR 017D
ENCODING 381
SWIDTH 565 0
DWIDTH 11 0
BBX 11 18 0 0
BITMAP
1100
0A00
0400
0000
7FE0
7FC0
0080
0080
0100
0200
0400
0400
0800
1000
2000
2000
7FE0
FFE0
ENDCHAR
STARTCHAR 017E
ENCODING 382
SWIDTH 462 0
DWIDTH 9 0
BBX 9 14 0 0
BITMAP
1100
0A00
0400
0000
7F80
7F00
0200
0400
0800
1000
1000
2000
7F80
FF80
ENDCHAR
STARTCHAR 0192
ENCODING 402
SWIDTH 514 0
DWIDTH 10 0
BBX 8 17 1 -3
BITMAP
07
0F
0C
08
08
1E
1E
18
18
18
10
10
10
30
30
E0
C0
ENDCHAR
STARTCHAR 02C6
ENCODING 710
SWIDTH 360 0
DWIDTH 7 0
BBX 5 3 1 12
BITMAP
20
50
88
ENDCHAR
STARTCHAR 02C7
ENCODING 711
SWIDTH 360 0
DWIDTH 7 0
BBX 5 3 1 12
BITMAP
88
50
20
ENDCHAR
STARTCHAR 02D0
ENCODING 720
SWIDTH 205 0
DWIDTH 4 0
BBX 2 10 1 0
BITMAP
C0
80
00
00
00
00
00
00
80
C0
ENDCHAR
STARTCHAR 02D8
ENCODING 728
SWIDTH 308 0
DWIDTH 6 0
BBX 6 3 0 11
BITMAP
84
CC
78
ENDCHAR
STARTCHAR 02D9
ENCODING 729
SWIDTH 205 0
DWIDTH 4 0
BBX 2 2 1 11
BITMAP
C0
C0
ENDCHAR
STARTCHAR 02DA
ENCODING 730
SWIDTH 257 0
DWIDTH 5 0
BBX 4 4 1 11
BITMAP
60
90
90
60
ENDCHAR
STARTCHAR 02DB
ENCODING 731
SWIDTH 205 0
DWIDTH 4 0
BBX 3 4 1 -4
BITMAP
40
80
80
E0
ENDCHAR
STARTCHAR 02DC
ENCODING 732
SWIDTH 360 0
DWIDTH 7 0
BBX 7 2 0 12
BITMAP
72
9C
ENDCHAR
STARTCHAR 02DD
ENCODING 733
SWIDTH 308 0
DWIDTH 6 0
BBX 5 3 1 12
BITMAP
28
50
A0
ENDCHAR
STARTCHAR 0391
ENCODING 913
SWIDTH 668 0
DWIDTH 13 0
BBX 13 14 0 0
BITMAP
0200
0700
0500
0D80
0D80
0880
18C0
18C0
3060
3FE0
7FF0
6030
6030
C018
ENDCHAR
STARTCHAR 0392
ENCODING 914
SWIDTH 565 0
DWIDTH 11 0
BBX 7 14 2 0
BITMAP
FC
FE
86
82
82
84
FC
FC
86
82
82
86
FC
F8
ENDCHAR
STARTCHAR 0393
ENCODING 915
SWIDTH 462 0
DWIDTH 9 0
BBX 7 14 2 0
BITMAP
FE
FE
80
80
80
80
80
80
80
80
80
80
80
80
ENDCHAR
STARTCHAR 0394
ENCODING 916
SWIDTH 668 0
DWIDTH 13 0
BBX 13 14 0 0
BITMAP
0200
0700
0500
0D80
0880
0880
1040
1040
3060
2020
6030
4010
FFF8
FFF8
ENDCHAR
STARTCHAR 0395
ENCODING 917
SWIDTH 514 0
DWIDTH 10 0
BBX 7 14 2 0
BITMAP
FE
FE
80
80
80
80
FC
FC
80
80
80
80
FE
FE
ENDCHAR
STARTCHAR 0396
ENCODING 918
SWIDTH 565 0
DWIDTH 11 0
BBX 11 14 0 0
BITMAP
7FE0
7FC0
0080
0080
0100
0200
0400
0400
0800
1000
2000
2000
7FE0
FFE0
ENDCHAR
STARTCHAR 0397
ENCODING 919
SWIDTH 720 0
DWIDTH 14 0
BBX 10 14 2 0
BITMAP
8040
8040
8040
8040
8040
8040
FFC0
FFC0
8040
8040
8040
8040
8040
8040
ENDCHAR
STARTCHAR 0398
ENCODING 920
SWIDTH 771 0
DWIDTH 15 0
BBX 12 14 1 0
BITMAP
0F80
3FC0
7060
4020
C030
8010
9F90
9F90
8010
C030
4020
70E0
3FC0
1F00
ENDCHAR
STARTCHAR 0399
ENCODING 921
SWIDTH 257 0
DWIDTH 5 0
BBX 3 14 1 0
BITMAP
E0
E0
40
40
40
40
40
40
40
40
40
40
E0
E0
ENDCHAR
STARTCHAR 039A
ENCODING 922
SWIDTH 565 0
DWIDTH 11 0
BBX 9 14 2 0
BITMAP
8180
8300
8600
8C00
9800
B000
E000
B000
9000
9800
8C00
8600
8300
8180
ENDCHAR
STARTCHAR 039B
ENCODING 923
SWIDTH 617 0
DWIDTH 12 0
BBX 12 14 0 0
BITMAP
0600
0F00
0F00
0B00
1980
1980
1080
30C0
20C0
6060
4060
4060
8030
8030
ENDCHAR
STARTCHAR 039C
ENCODING 924
SWIDTH 874 0
DWIDTH 17 0
BBX 13 14 2 0
BITMAP
C008
E018
E018
E038
B028
B068
9048
9848
8888
8C88
8D88
8508
8708
8208
ENDCHAR
STARTCHAR 039D
ENCODING 925
SWIDTH 771 0
DWIDTH 15 0
BBX 11 14 2 0
BITMAP
C020
E020
F020
B020
9820
9C20
8C20
8620
8320
8320
81A0
80E0
8060
8060
ENDCHAR
STARTCHAR 039E
ENCODING 926
SWIDTH 514 0
DWIDTH 10 0
BBX 8 14 1 0
BITMAP
FF
FF
00
00
00
00
7E
7E
00
00
00
00
FF
FF
ENDCHAR
STARTCHAR 039F
ENCODING 927
SWIDTH 771 0
DWIDTH 15 0
BBX 12 14 1 0
BITMAP
0F80
3FC0
7060
4020
C010
8010
8010
8010
8010
C030
4020
70E0
3FC0
1F00
ENDCHAR
STARTCHAR 03A0
ENCODING 928
SWIDTH 720 0
DWIDTH 14 0
BBX 10 14 2 0
BITMAP
FFC0
FFC0
C040
C040
C040
C040
C040
C040
C040
C040
C040
C040
C040
C040
ENDCHAR
STARTCHAR 03A1
ENCODING 929
SWIDTH 565 0
DWIDTH 11 0
BBX 8 14 2 0
BITMAP
FC
FE
83
81
81
81
83
FE
F8
80
80
80
80
80
ENDCHAR
STARTCHAR 03A3
ENCODING 931
SWIDTH 514 0
DWIDTH 10 0
BBX 10 14 0 0
BITMAP
FF80
7F80
6000
3000
1800
0C00
0600
0600
0C00
1800
3000
6000
7FC0
FFC0
ENDCHAR
STARTCHAR 03A4
ENCODING 932
SWIDTH 514 0
DWIDTH 10 0
BBX 9 14 0 0
BITMAP
FF80
FF80
0800
0800
0800
0800
0800
0800
0800
0800
0800
0800
0800
0800
ENDCHAR
STARTCHAR 03A5
ENCODING 933
SWIDTH 565 0
DWIDTH 11 0
BBX 11 14 0 0
BITMAP
C020
6040
60C0
3080
3180
1B00
0A00
0E00
0400
0400
0400
0400
0400
0400
ENDCHAR
STARTCHAR 03A6
ENCODING 934
SWIDTH 771 0
DWIDTH 15 0
BBX 13 14 1 0
BITMAP
0200
0200
1FC0
7FF0
6230
8208
8208
8208
8208
6230
7FF0
1FC0
0200
0200
ENDCHAR
STARTCHAR 03A7
ENCODING 935
SWIDTH 565 0
DWIDTH 11 0
BBX 11 14 0 0
BITMAP
C060
60C0
3180
3180
1B00
1A00
0E00
0E00
1A00
1B00
3180
2180
60C0
C060
ENDCHAR
STARTCHAR 03A8
ENCODING 936
SWIDTH 771 0
DWIDTH 15 0
BBX 12 14 1 0
BITMAP
8210
8210
8210
8210
8210
8210
8210
C210
6220
7FE0
1FC0
0200
0200
0200
ENDCHAR
STARTCHAR 03A9
ENCODING 937
SWIDTH 771 0
DWIDTH 15 0
BBX 12 14 1 0
BITMAP
1F80
3FC0
70E0
C030
8010
8010
8010
8010
8010
4020
4020
2040
F0F0
F0F0
ENDCHAR
STARTCHAR 03B1
ENCODING 945
SWIDTH 617 0
DWIDTH 12 0
BBX 10 10 1 0
BITMAP
3CC0
7E80
4380
8380
8100
8100
8300
C780
7CC0
38C0
ENDCHAR
STARTCHAR 03B2
ENCODING 946
SWIDTH 565 0
DWIDTH 11 0
BBX 8 19 2 -4
BITMAP
3C
7E
C2
82
82
84
98
9E
86
81
81
81
C3
FE
BC
80
80
80
80
ENDCHAR
STARTCHAR 03B3
ENCODING 947
SWIDTH 514 0
DWIDTH 10 0
BBX 9 14 0 -4
BITMAP
C080
6080
6080
3080
3180
1900
1900
0A00
0E00
0C00
0C00
0C00
0C00
0C00
ENDCHAR
STARTCHAR 03B4
ENCODING 948
SWIDTH 565 0
DWIDTH 11 0
BBX 9 15 1 0
BITMAP
1E00
3F00
2100
2000
1800
0C00
3300
6100
C080
C080
C080
C080
E180
7F00
3E00
ENDCHAR
STARTCHAR 03B5
ENCODING 949
SWIDTH 462 0
DWIDTH 9 0
BBX 7 10 1 0
BITMAP
3C
FE
82
80
7C
7C
80
82
FE
7C
ENDCHAR
STARTCHAR 03B6
ENCODING 950
SWIDTH 462 0
DWIDTH 9 0
BBX 8 18 1 -3
BITMAP
3E
3E
04
08
10
20
40
40
80
80
80
80
C0
78
3E
06
02
03
ENDCHAR
STARTCHAR 03B7
ENCODING 951
SWIDTH 565 0
DWIDTH 11 0
BBX 7 14 2 -4
BITMAP
BC
FE
C6
82
82
82
82
82
82
82
02
02
02
02
ENDCHAR
STARTCHAR 03B8
ENCODING 952
SWIDTH 565 0
DWIDTH 11 0
BBX 9 15 1 0
BITMAP
1E00
3F00
6300
4180
8080
8080
FF80
FF80
8080
8080
8080
C100
6300
7E00
1C00
ENDCHAR
STARTCHAR 03B9
ENCODING 953
SWIDTH 257 0
DWIDTH 5 0
BBX 3 10 2 0
BITMAP
80
80
80
80
80
80
80
80
E0
60
ENDCHAR
STARTCHAR 03BA
ENCODING 954
SWIDTH 514 0
DWIDTH 10 0
BBX 8 10 2 0
BITMAP
86
8E
98
B0
E0
F0
98
8C
86
83
ENDCHAR
STARTCHAR 03BB
ENCODING 955
SWIDTH 514 0
DWIDTH 10 0
BBX 10 15 0 0
BITMAP
7000
7800
0800
0C00
0C00
0600
0E00
0A00
1B00
1300
3180
3180
6180
60C0
C0C0
ENDCHAR
STARTCHAR 03BC
ENCODING 956
SWIDTH 565 0
DWIDTH 11 0
BBX 7 14 2 -4
BITMAP
82
82
82
82
82
82
82
82
C6
BA
80
80
80
80
ENDCHAR
STARTCHAR 03BD
ENCODING 957
SWIDTH 514 0
DWIDTH 10 0
BBX 8 10 0 0
BITMAP
C1
41
61
61
21
32
12
14
1C
08
ENDCHAR
STARTCHAR 03BE
ENCODING 958
SWIDTH 462 0
DWIDTH 9 0
BBX 7 18 1 -3
BITMAP
7E
7E
10
60
40
60
3C
3C
60
80
80
80
C0
78
3E
02
02
02
ENDCHAR
STARTCHAR 03BF
ENCODING 959
SWIDTH 565 0
DWIDTH 11 0
BBX 9 10 1 0
BITMAP
3E00
7F00
4180
8080
8080
8080
8080
C100
7F00
3E00
ENDCHAR
STARTCHAR 03C0
ENCODING 960
SWIDTH 617 0
DWIDTH 12 0
BBX 10 10 0 0
BITMAP
FFC0
FFC0
A100
2100
2100
2100
2100
2100
21C0
20C0
ENDCHAR
STARTCHAR 03C1
ENCODING 961
SWIDTH 565 0
DWIDTH 11 0
BBX 8 14 2 -4
BITMAP
3C
7E
C3
81
81
81
81
C3
FE
BC
80
80
80
80
ENDCHAR
STARTCHAR 03C3
ENCODING 963
SWIDTH 565 0
DWIDTH 11 0
BBX 9 10 1 0
BITMAP
3F80
7F80
C200
8100
8100
8100
8100
C300
7E00
3C00
ENDCHAR
STARTCHAR 03C4
ENCODING 964
SWIDTH 462 0
DWIDTH 9 0
BBX 9 10 0 0
BITMAP
7F80
FF80
8800
0800
0800
0800
0800
0800
0E00
0600
ENDCHAR
STARTCHAR 03C5
ENCODING 965
SWIDTH 565 0
DWIDTH 11 0
BBX 9 10 1 0
BITMAP
C300
C180
4080
4080
4080
4080
4080
6180
3F00
1E00
ENDCHAR
STARTCHAR 03C6
ENCODING 966
SWIDTH 720 0
DWIDTH 14 0
BBX 11 14 1 -4
BITMAP
6380
C7C0
8460
8420
8420
8420
C420
6440
7FC0
3F80
0400
0400
0400
0400
ENDCHAR
STARTCHAR 03C7
ENCODING 967
SWIDTH 514 0
DWIDTH 10 0
BBX 10 14 0 -4
BITMAP
6180
6300
3300
1200
1E00
0C00
0C00
0C00
1E00
3200
3300
6180
61C0
C0C0
ENDCHAR
STARTCHAR 03C8
ENCODING 968
SWIDTH 771 0
DWIDTH 15 0
BBX 12 17 1 -4
BITMAP
0200
0200
0200
8210
8210
8210
8210
8210
8210
C230
6260
3FE0
1F80
0200
0200
0200
0200
ENDCHAR
STARTCHAR 03C9
ENCODING 969
SWIDTH 822 0
DWIDTH 16 0
BBX 14 10 1 0
BITMAP
C018
C008
820C
8204
8204
8204
8204
C70C
7DF8
38F0
ENDCHAR
STARTCHAR 0401
ENCODING 1025
SWIDTH 514 0
DWIDTH 10 0
BBX 7 17 2 0
BITMAP
66
66
00
FE
FE
80
80
80
80
FC
FC
80
80
80
80
FE
FE
ENDCHAR
STARTCHAR 0410
ENCODING 1040
SWIDTH 668 0
DWIDTH 13 0
BBX 13 14 0 0
BITMAP
0200
0700
0500
0D80
0D80
0880
18C0
18C0
3060
3FE0
7FF0
6030
6030
C018
ENDCHAR
STARTCHAR 0411
ENCODING 1041
SWIDTH 565 0
DWIDTH 11 0
BBX 8 14 2 0
BITMAP
FE
FE
80
80
80
80
FC
FE
83
81
81
83
FE
FC
ENDCHAR
STARTCHAR 0412
ENCODING 1042
SWIDTH 565 0
DWIDTH 11 0
BBX 7 14 2 0
BITMAP
FC
FE
86
82
82
84
FC
FC
86
82
82
86
FC
F8
ENDCHAR
STARTCHAR 0413
ENCODING 1043
SWIDTH 462 0
DWIDTH 9 0
BBX 7 14 2 0
BITMAP
FE
FE
80
80
80
80
80
80
80
80
80
80
80
80
ENDCHAR
STARTCHAR 0414
ENCODING 1044
SWIDTH 668 0
DWIDTH 13 0
BBX 12 18 0 -4
BITMAP
0FC0
0FC0
0840
0840
1840
1840
1040
1040
3040
3040
2040
6040
FFF0
FFF0
8010
8010
8010
8010
ENDCHAR
STARTCHAR 0415
ENCODING 1045
SWIDTH 514 0
DWIDTH 10 0
BBX 7 14 2 0
BITMAP
FE
FE
80
80
80
80
FC
FC
80
80
80
80
FE
FE
ENDCHAR
STARTCHAR 0416
ENCODING 1046
SWIDTH 874 0
DWIDTH 17 0
BBX 17 14 0 0
BITMAP
608180
308300
188600
0C8C00
069800
03B000
01E000
03B000
069000
0C9800
188C00
308600
608300
C08180
ENDCHAR
STARTCHAR 0417
ENCODING 1047
SWIDTH 565 0
DWIDTH 11 0
BBX 8 14 1 0
BITMAP
7C
FE
83
01
01
03
3E
3E
03
01
01
83
FE
7C
ENDCHAR
STARTCHAR 0418
ENCODING 1048
SWIDTH 771 0
DWIDTH 15 0
BBX 11 14 2 0
BITMAP
8020
8060
80E0
80E0
81A0
8320
8620
8620
8C20
9820
9020
A020
E020
C020
ENDCHAR
STARTCHAR 0419
ENCODING 1049
SWIDTH 771 0
DWIDTH 15 0
BBX 11 18 2 0
BITMAP
1080
1980
0F00
0000
8020
8060
80E0
80E0
81A0
8320
8620
8620
8C20
9820
9020
A020
E020
C020
ENDCHAR
STARTCHAR 041A
ENCODING 1050
SWIDTH 565 0
DWIDTH 11 0
BBX 9 14 2 0
BITMAP
8180
8300
8600
8C00
9800
B000
E000
B000
9000
9800
8C00
8600
8300
8180
ENDCHAR
STARTCHAR 041B
ENCODING 1051
SWIDTH 668 0
DWIDTH 13 0
BBX 11 14 0 0
BITMAP
07E0
07E0
0420
0C20
0C20
0820
0820
0820
0820
1820
1820
3020
F020
E020
ENDCHAR
STARTCHAR 041C
ENCODING 1052
SWIDTH 874 0
DWIDTH 17 0
BBX 13 14 2 0
BITMAP
C008
E018
E018
E038
B028
B068
9048
9848
8888
8C88
8D88
8508
8708
8208
ENDCHAR
STARTCHAR 041D
ENCODING 1053
SWIDTH 720 0
DWIDTH 14 0
BBX 10 14 2 0
BITMAP
8040
8040
8040
8040
8040
8040
FFC0
FFC0
8040
8040
8040
8040
8040
8040
ENDCHAR
STARTCHAR 041E
ENCODING 1054
SWIDTH 771 0
DWIDTH 15 0
BBX 12 14 1 0
BITMAP
0F80
3FC0
7060
4020
C010
8010
8010
8010
8010
C030
4020
70E0
3FC0
1F00
ENDCHAR
STARTCHAR 041F
ENCODING 1055
SWIDTH 720 0
DWIDTH 14 0
BBX 10 14 2 0
BITMAP
FFC0
FFC0
8040
8040
8040
8040
8040
8040
8040
8040
8040
8040
8040
8040
ENDCHAR
STARTCHAR 0420
ENCODING 1056
SWIDTH 565 0
DWIDTH 11 0
BBX 8 14 2 0
BITMAP
FC
FE
83
81
81
81
83
FE
F8
80
80
80
80
80
ENDCHAR
STARTCHAR 0421
ENCODING 1057
SWIDTH 617 0
DWIDTH 12 0
BBX 10 14 1 0
BITMAP
0F80
3FC0
3040
4000
C000
8000
8000
8000
8000
C000
4000
7040
3FC0
0F80
ENDCHAR
STARTCHAR 0422
ENCODING 1058
SWIDTH 514 0
DWIDTH 10 0
BBX 9 14 0 0
BITMAP
FF80
FF80
0800
0800
0800
0800
0800
0800
0800
0800
0800
0800
0800
0800
ENDCHAR
STARTCHAR 0423
ENCODING 1059
SWIDTH 565 0
DWIDTH 11 0
BBX 10 14 1 0
BITMAP
C040
6080
6080
2180
3100
1300
1A00
0E00
0C00
0C00
0C00
1800
F000
E000
ENDCHAR
STARTCHAR 0424
ENCODING 1060
SWIDTH 720 0
DWIDTH 14 0
BBX 12 14 1 0
BITMAP
0200
0200
1F80
3FE0
6260
C210
8210
8210
C210
6260
3FE0
1F80
0200
0200
ENDCHAR
STARTCHAR 0425
ENCODING 1061
SWIDTH 565 0
DWIDTH 11 0
BBX 11 14 0 0
BITMAP
C060
60C0
3180
3180
1B00
1A00
0E00
0E00
1A00
1B00
3180
2180
60C0
C060
ENDCHAR
STARTCHAR 0426
ENCODING 1062
SWIDTH 720 0
DWIDTH 14 0
BBX 11 18 2 -4
BITMAP
8080
8080
8080
8080
8080
8080
8080
8080
8080
8080
8080
8080
FFE0
FFE0
0020
0020
0020
0020
ENDCHAR
STARTCHAR 0427
ENCODING 1063
SWIDTH 668 0
DWIDTH 13 0
BBX 9 14 2 0
BITMAP
8080
8080
8080
8080
8080
8080
C180
7F80
3E80
0080
0080
0080
0080
0080
ENDCHAR
STARTCHAR 0428
ENCODING 1064
SWIDTH 925 0
DWIDTH 18 0
BBX 14 14 2 0
BITMAP
8104
8104
8104
8104
8104
8104
8104
8104
8104
8104
8104
8104
FFFC
FFFC
ENDCHAR
STARTCHAR 0429
ENCODING 1065
SWIDTH 977 0
DWIDTH 19 0
BBX 16 18 2 -4
BITMAP
8104
8104
8104
8104
8104
8104
8104
8104
8104
8104
8104
8104
FFFF
FFFF
0001
0001
0001
0001
ENDCHAR
STARTCHAR 042A
ENCODING 1066
SWIDTH 720 0
DWIDTH 14 0
BBX 13 14 0 0
BITMAP
F800
F800
0800
0800
0800
0800
0FE0
0FF0
0838
0818
0818
0838
0FF0
0FE0
ENDCHAR
STARTCHAR 042B
ENCODING 1067
SWIDTH 771 0
DWIDTH 15 0
BBX 11 14 2 0
BITMAP
8020
8020
8020
8020
8020
8020
FE20
FF20
83A0
81A0
81A0
83A0
FF20
FE20
ENDCHAR
STARTCHAR 042C
ENCODING 1068
SWIDTH 565 0
DWIDTH 11 0
BBX 9 14 2 0
BITMAP
8000
8000
8000
8000
8000
8000
FE00
FF00
8380
8180
8180
8380
FF00
FE00
ENDCHAR
STARTCHAR 042D
ENCODING 1069
SWIDTH 617 0
DWIDTH 12 0
BBX 10 14 1 0
BITMAP
7C00
FF00
8380
0080
0040
0040
1FC0
1FC0
0040
0040
0080
8380
FF00
7C00
ENDCHAR
STARTCHAR 042E
ENCODING 1070
SWIDTH 1028 0
DWIDTH 20 0
BBX 17 14 2 0
BITMAP
807C00
81FE00
838300
820100
860080
840080
FC0080
FC0080
840080
840080
860100
830700
81FE00
80F800
ENDCHAR
STARTCHAR 042F
ENCODING 1071
SWIDTH 565 0
DWIDTH 11 0
BBX 8 14 1 0
BITMAP
1F
3F
61
41
41
41
61
3F
1F
31
21
61
61
C1
ENDCHAR
STARTCHAR 0430
ENCODING 1072
SWIDTH 514 0
DWIDTH 10 0
BBX 7 10 1 0
BITMAP
3C
7E
46
02
1E
7E
82
86
FA
7A
ENDCHAR
STARTCHAR 0431
ENCODING 1073
SWIDTH 565 0
DWIDTH 11 0
BBX 9 15 1 0
BITMAP
0100
1F00
3C00
4000
4000
9E00
FF00
C180
8080
8080
8080
8080
6180
7F00
3E00
ENDCHAR
STARTCHAR 0432
ENCODING 1074
SWIDTH 514 0
DWIDTH 10 0
BBX 6 10 2 0
BITMAP
F8
FC
84
84
F8
FC
84
84
FC
F8
ENDCHAR
STARTCHAR 0433
ENCODING 1075
SWIDTH 360 0
DWIDTH 7 0
BBX 5 10 2 0
BITMAP
F8
F8
80
80
80
80
80
80
80
80
ENDCHAR
STARTCHAR 0434
ENCODING 1076
SWIDTH 565 0
DWIDTH 11 0
BBX 10 14 0 -4
BITMAP
0F00
0F00
0900
1900
1900
1100
3100
6100
FFC0
FFC0
8040
8040
8040
8040
ENDCHAR
STARTCHAR 0435
ENCODING 1077
SWIDTH 514 0
DWIDTH 10 0
BBX 8 10 1 0
BITMAP
3C
7E
43
81
FF
FF
80
C1
7F
3E
ENDCHAR
STARTCHAR 0436
ENCODING 1078
SWIDTH 720 0
DWIDTH 14 0
BBX 13 10 0 0
BITMAP
C218
6230
3260
1AC0
0F80
0F80
1AC0
3260
6230
C218
ENDCHAR
STARTCHAR 0437
ENCODING 1079
SWIDTH 462 0
DWIDTH 9 0
BBX 6 10 1 0
BITMAP
78
FC
84
04
38
3C
04
84
FC
78
ENDCHAR
STARTCHAR 0438
ENCODING 1080
SWIDTH 565 0
DWIDTH 11 0
BBX 7 10 2 0
BITMAP
86
86
8E
8A
9A
B2
A2
E2
C2
C2
ENDCHAR
STARTCHAR 0439
ENCODING 1081
SWIDTH 565 0
DWIDTH 11 0
BBX 7 14 2 0
BITMAP
42
66
3C
00
86
86
8E
8A
9A
B2
A2
E2
C2
C2
ENDCHAR
STARTCHAR 043A
ENCODING 1082
SWIDTH 514 0
DWIDTH 10 0
BBX 7 10 2 0
BITMAP
86
8C
98
B0
E0
E0
B0
98
8C
86
ENDCHAR
STARTCHAR 043B
ENCODING 1083
SWIDTH 514 0
DWIDTH 10 0
BBX 7 10 1 0
BITMAP
1E
1E
12
12
32
32
22
62
E2
C2
ENDCHAR
STARTCHAR 043C
ENCODING 1084
SWIDTH 720 0
DWIDTH 14 0
BBX 10 10 2 0
BITMAP
C0C0
C0C0
E0C0
A140
B140
9140
9A40
8A40
8E40
8440
ENDCHAR
STARTCHAR 043D
ENCODING 1085
SWIDTH 565 0
DWIDTH 11 0
BBX 7 10 2 0
BITMAP
82
82
82
82
FE
FE
82
82
82
82
ENDCHAR
STARTCHAR 043E
ENCODING 1086
SWIDTH 565 0
DWIDTH 11 0
BBX 9 10 1 0
BITMAP
3E00
7F00
4180
8080
8080
8080
8080
C100
7F00
3E00
ENDCHAR
STARTCHAR 043F
ENCODING 1087
SWIDTH 565 0
DWIDTH 11 0
BBX 7 10 2 0
BITMAP
FE
FE
82
82
82
82
82
82
82
82
ENDCHAR
STARTCHAR 0440
ENCODING 1088
SWIDTH 565 0
DWIDTH 11 0
BBX 8 14 2 -4
BITMAP
BC
FE
C3
81
81
81
81
C2
FE
BC
80
80
80
80
ENDCHAR
STARTCHAR 0441
ENCODING 1089
SWIDTH 462 0
DWIDTH 9 0
BBX 7 10 1 0
BITMAP
1C
7E
62
80
80
80
80
C2
7E
3C
ENDCHAR
STARTCHAR 0442
ENCODING 1090
SWIDTH 411 0
DWIDTH 8 0
BBX 7 10 0 0
BITMAP
FE
FE
10
10
10
10
10
10
10
10
ENDCHAR
STARTCHAR 0443
ENCODING 1091
SWIDTH 462 0
DWIDTH 9 0
BBX 9 14 0 -4
BITMAP
C080
6100
6100
2300
3200
3200
1400
1C00
0C00
0800
1800
3000
F000
E000
ENDCHAR
STARTCHAR 0444
ENCODING 1092
SWIDTH 668 0
DWIDTH 13 0
BBX 11 18 1 -4
BITMAP
0400
0400
0400
0400
1F00
7FC0
4440
8420
8420
8420
8420
6440
7FC0
3F80
0400
0400
0400
0400
ENDCHAR
STARTCHAR 0445
ENCODING 1093
SWIDTH 462 0
DWIDTH 9 0
BBX 9 10 0 0
BITMAP
C180
6300
3200
3600
1C00
1C00
1400
2600
6300
C180
ENDCHAR
STARTCHAR 0446
ENCODING 1094
SWIDTH 617 0
DWIDTH 12 0
BBX 9 14 2 -4
BITMAP
8200
8200
8200
8200
8200
8200
8200
8200
FF80
FF80
0080
0080
0080
0080
ENDCHAR
STARTCHAR 0447
ENCODING 1095
SWIDTH 565 0
DWIDTH 11 0
BBX 8 10 1 0
BITMAP
81
81
81
81
C3
FF
7D
01
01
01
ENDCHAR
STARTCHAR 0448
ENCODING 1096
SWIDTH 822 0
DWIDTH 16 0
BBX 12 10 2 0
BITMAP
8210
8210
8210
8210
8210
8210
8210
8210
FFF0
FFF0
ENDCHAR
STARTCHAR 0449
ENCODING 1097
SWIDTH 822 0
DWIDTH 16 0
BBX 13 14 2 -4
BITMAP
8420
8420
8420
8420
8420
8420
8420
8420
FFF8
FFF8
0008
0008
0008
0008
ENDCHAR
STARTCHAR 044A
ENCODING 1098
SWIDTH 565 0
DWIDTH 11 0
BBX 10 10 0 0
BITMAP
F000
F000
1000
1000
1F80
1FC0
1040
1040
1FC0
1F80
ENDCHAR
STARTCHAR 044B
ENCODING 1099
SWIDTH 720 0
DWIDTH 14 0
BBX 10 10 2 0
BITMAP
8040
8040
8040
8040
FC40
FE40
8240
8240
FE40
FC40
ENDCHAR
STARTCHAR 044C
ENCODING 1100
SWIDTH 514 0
DWIDTH 10 0
BBX 7 10 2 0
BITMAP
80
80
80
80
FC
FE
82
82
FE
FC
ENDCHAR
STARTCHAR 044D
ENCODING 1101
SWIDTH 462 0
DWIDTH 9 0
BBX 7 10 1 0
BITMAP
78
FC
86
02
3E
3E
02
86
FC
78
ENDCHAR
STARTCHAR 044E
ENCODING 1102
SWIDTH 822 0
DWIDTH 16 0
BBX 13 10 2 0
BITMAP
83E0
87F0
8C18
8808
F808
F808
8808
8C18
87F0
83E0
ENDCHAR
STARTCHAR 044F
ENCODING 1103
SWIDTH 514 0
DWIDTH 10 0
BBX 7 10 1 0
BITMAP
3E
7E
42
42
42
3E
1E
32
62
C2
ENDCHAR
STARTCHAR 0451
ENCODING 1105
SWIDTH 514 0
DWIDTH 10 0
BBX 8 13 1 0
BITMAP
66
66
00
3C
7E
43
81
FF
FF
80
C1
7F
3E
ENDCHAR
STARTCHAR 1100
ENCODING 4352
SWIDTH 977 0
DWIDTH 19 0
BBX 12 6 3 7
BITMAP
FFF0
0010
0010
0010
0010
0010
ENDCHAR
STARTCHAR 1101
ENCODING 4353
SWIDTH 977 0
DWIDTH 19 0
BBX 13 6 3 8
BITMAP
FDF8
0C08
0C08
0C08
0C08
0C08
ENDCHAR
STARTCHAR 1102
ENCODING 4354
SWIDTH 977 0
DWIDTH 19 0
BBX 11 6 4 8
BITMAP
8000
8000
8000
8000
8000
FFE0
ENDCHAR
STARTCHAR 1103
ENCODING 4355
SWIDTH 977 0
DWIDTH 19 0
BBX 11 6 4 8
BITMAP
FFE0
C000
C000
C000
C000
FFE0
ENDCHAR
STARTCHAR 1104
ENCODING 4356
SWIDTH 977 0
DWIDTH 19 0
BBX 14 6 3 8
BITMAP
FDF8
8100
8100
8100
8100
FDFC
ENDCHAR
STARTCHAR 1105
ENCODING 4357
SWIDTH 977 0
DWIDTH 19 0
BBX 11 7 4 7
BITMAP
FFE0
0020
0020
FFE0
8000
8000
FFE0
ENDCHAR
STARTCHAR 1106
ENCODING 4358
SWIDTH 977 0
DWIDTH 19 0
BBX 11 6 4 8
BITMAP
FFE0
8020
8020
8020
8020
FFE0
ENDCHAR
STARTCHAR 1107
ENCODING 4359
SWIDTH 977 0
DWIDTH 19 0
BBX 11 6 4 8
BITMAP
8020
8020
FFE0
8020
8020
FFE0
ENDCHAR
STARTCHAR 1108
ENCODING 4360
SWIDTH 977 0
DWIDTH 19 0
BBX 13 6 3 8
BITMAP
8508
8508
FDF8
8508
8508
FDF8
ENDCHAR
STARTCHAR 1109
ENCODING 4361
SWIDTH 977 0
DWIDTH 19 0
BBX 15 6 2 8
BITMAP
0100
0100
0280
06C0
1830
E00E
ENDCHAR
STARTCHAR 110A
ENCODING 4362
SWIDTH 977 0
DWIDTH 19 0
BBX 15 6 2 8
BITMAP
1830
1830
3870
64D8
C28C
0006
ENDCHAR
STARTCHAR 110B
ENCODING 4363
SWIDTH 977 0
DWIDTH 19 0
BBX 11 7 4 8
BITMAP
3F80
60C0
8020
8020
8020
60C0
3F80
ENDCHAR
STARTCHAR 110C
ENCODING 4364
SWIDTH 977 0
DWIDTH 19 0
BBX 15 6 2 8
BITMAP
7FFC
0100
0280
0440
1830
E00E
ENDCHAR
STARTCHAR 110D
ENCODING 4365
SWIDTH 977 0
DWIDTH 19 0
BBX 14 6 2 8
BITMAP
7FFC
0820
1830
1450
64C8
C284
ENDCHAR
STARTCHAR 110E
ENCODING 4366
SWIDTH 977 0
DWIDTH 19 0
BBX 15 7 2 8
BITMAP
0100
0100
7FFC
0380
06C0
1C30
E00E
ENDCHAR
STARTCHAR 110F
ENCODING 4367
SWIDTH 977 0
DWIDTH 19 0
BBX 11 6 4 7
BITMAP
FFE0
0020
0020
FFE0
0020
0020
ENDCHAR
STARTCHAR 1110
ENCODING 4368
SWIDTH 977 0
DWIDTH 19 0
BBX 11 6 4 8
BITMAP
FFE0
8000
FFE0
8000
8000
FFE0
ENDCHAR
STARTCHAR 1111
ENCODING 4369
SWIDTH 977 0
DWIDTH 19 0
BBX 13 6 3 8
BITMAP
FFF0
1040
1040
1040
1040
FFF8
ENDCHAR
STARTCHAR 1112
ENCODING 4370
SWIDTH 977 0
DWIDTH 19 0
BBX 13 9 3 6
BITMAP
0200
0200
FFF8
0000
1FC0
6030
4010
6030
1FC0
ENDCHAR
STARTCHAR 1113
ENCODING 4371
SWIDTH 977 0
DWIDTH 19 0
BBX 11 6 4 8
BITMAP
87E0
8020
8020
8020
8820
F020
ENDCHAR
STARTCHAR 1114
ENCODING 4372
SWIDTH 977 0
DWIDTH 19 0
BBX 14 6 3 8
BITMAP
8180
8180
8180
8180
8180
FDFC
ENDCHAR
STARTCHAR 1115
ENCODING 4373
SWIDTH 977 0
DWIDTH 19 0
BBX 13 6 3 8
BITMAP
81F8
8100
8100
8100
8100
FDF8
ENDCHAR
STARTCHAR 1116
ENCODING 4374
SWIDTH 977 0
DWIDTH 19 0
BBX 13 6 3 8
BITMAP
8108
8108
81F8
8108
8108
FDF8
ENDCHAR
STARTCHAR 1117
ENCODING 4375
SWIDTH 977 0
DWIDTH 19 0
BBX 12 6 3 7
BITMAP
FDF0
8010
8010
8010
8010
FC10
ENDCHAR
STARTCHAR 1118
ENCODING 4376
SWIDTH 977 0
DWIDTH 19 0
BBX 13 7 3 8
BITMAP
FD80
0580
0580
FD80
8180
8180
FDF8
ENDCHAR
STARTCHAR 1119
ENCODING 4377
SWIDTH 977 0
DWIDTH 19 0
BBX 14 7 3 7
BITMAP
FCFC
040C
040C
FCFC
8080
8080
FCFC
ENDCHAR
STARTCHAR 111A
ENCODING 4378
SWIDTH 977 0
DWIDTH 19 0
BBX 14 9 3 6
BITMAP
0060
F860
0BFC
0800
F8F0
8118
8108
FD18
00F0
ENDCHAR
STARTCHAR 111B
ENCODING 4379
SWIDTH 977 0
DWIDTH 19 0
BBX 11 13 4 1
BITMAP
FFE0
0020
0020
FFE0
8000
FFE0
0000
1F00
3180
2080
2080
3180
1F00
ENDCHAR
STARTCHAR 111C
ENCODING 4380
SWIDTH 977 0
DWIDTH 19 0
BBX 13 6 3 8
BITMAP
FD08
8508
85F8
8508
8508
FDF8
ENDCHAR
STARTCHAR 111D
ENCODING 4381
SWIDTH 977 0
DWIDTH 19 0
BBX 11 13 4 1
BITMAP
FFE0
8020
8020
8020
8020
FFE0
0000
1F00
3180
2080
2080
3180
1F00
ENDCHAR
STARTCHAR 111E
ENCODING 4382
SWIDTH 977 0
DWIDTH 19 0
BBX 12 6 3 9
BITMAP
85F0
8410
FC10
8410
8410
FC10
ENDCHAR
STARTCHAR 111F
ENCODING 4383
SWIDTH 977 0
DWIDTH 19 0
BBX 14 6 3 8
BITMAP
8580
8580
FD80
8580
8580
FDFC
ENDCHAR
STARTCHAR 1120
ENCODING 4384
SWIDTH 977 0
DWIDTH 19 0
BBX 13 6 3 9
BITMAP
85F8
8580
FD80
8580
8580
FDF8
ENDCHAR
STARTCHAR 1121
ENCODING 4385
SWIDTH 977 0
DWIDTH 19 0
BBX 14 7 3 7
BITMAP
8460
8460
FC60
8460
84F0
8598
FF0C
ENDCHAR
STARTCHAR 1122
ENCODING 4386
SWIDTH 977 0
DWIDTH 19 0
BBX 14 6 2 9
BITMAP
C89C
C884
F884
C9C4
CB44
FA24
ENDCHAR
STARTCHAR 1123
ENCODING 4387
SWIDTH 977 0
DWIDTH 19 0
BBX 14 6 3 8
BITMAP
913C
9120
F320
9320
96A0
F47C
ENDCHAR
STARTCHAR 1124
ENCODING 4388
SWIDTH 977 0
DWIDTH 19 0
BBX 14 6 2 8
BITMAP
D134
D134
F13C
D2B4
D2B4
F47C
ENDCHAR
STARTCHAR 1125
ENCODING 4389
SWIDTH 977 0
DWIDTH 19 0
BBX 13 6 3 8
BITMAP
9220
9220
F330
9330
9558
F888
ENDCHAR
STARTCHAR 1126
ENCODING 4390
SWIDTH 977 0
DWIDTH 19 0
BBX 13 6 3 9
BITMAP
9278
9230
F330
9330
9558
F8C8
ENDCHAR
STARTCHAR 1127
ENCODING 4391
SWIDTH 977 0
DWIDTH 19 0
BBX 14 7 3 8
BITMAP
85F8
8460
FC60
8460
84D0
8598
FD0C
ENDCHAR
STARTCHAR 1128
ENCODING 4392
SWIDTH 977 0
DWIDTH 19 0
BBX 14 7 3 7
BITMAP
8460
85F8
FC60
8460
8470
8498
FD04
ENDCHAR
STARTCHAR 1129
ENCODING 4393
SWIDTH 977 0
DWIDTH 19 0
BBX 13 6 3 9
BITMAP
85F8
8580
FD80
85F8
8580
FDF8
ENDCHAR
STARTCHAR 112A
ENCODING 4394
SWIDTH 977 0
DWIDTH 19 0
BBX 13 6 3 9
BITMAP
85F8
8490
FC90
8490
8490
FDF8
ENDCHAR
STARTCHAR 112B
ENCODING 4395
SWIDTH 977 0
DWIDTH 19 0
BBX 11 13 4 1
BITMAP
8020
8020
FFE0
8020
8020
FFE0
0000
1F00
3180
2080
2080
3180
1F00
ENDCHAR
STARTCHAR 112C
ENCODING 4396
SWIDTH 977 0
DWIDTH 19 0
BBX 13 13 3 1
BITMAP
8508
8508
FDF8
8508
8508
FDF8
0000
0F80
18C0
1040
1040
18C0
0F80
ENDCHAR
STARTCHAR 112D
ENCODING 4397
SWIDTH 977 0
DWIDTH 19 0
BBX 13 7 3 7
BITMAP
11F8
1018
3018
3018
2818
4C18
8218
ENDCHAR
STARTCHAR 112E
ENCODING 4398
SWIDTH 977 0
DWIDTH 19 0
BBX 14 8 3 7
BITMAP
1080
1080
1080
3080
3880
6880
44FC
8200
ENDCHAR
STARTCHAR 112F
ENCODING 4399
SWIDTH 977 0
DWIDTH 19 0
BBX 13 7 3 7
BITMAP
10F8
1080
3080
3080
2880
4C80
82F8
ENDCHAR
STARTCHAR 1130
ENCODING 4400
SWIDTH 977 0
DWIDTH 19 0
BBX 14 7 3 7
BITMAP
10FC
100C
300C
30FC
2880
4C80
86FC
ENDCHAR
STARTCHAR 1131
ENCODING 4401
SWIDTH 977 0
DWIDTH 19 0
BBX 14 7 3 7
BITMAP
10FC
108C
308C
308C
288C
4C8C
86FC
ENDCHAR
STARTCHAR 1132
ENCODING 4402
SWIDTH 977 0
DWIDTH 19 0
BBX 13 7 3 7
BITMAP
1088
1088
30F8
3088
3888
4C88
86F8
ENDCHAR
STARTCHAR 1133
ENCODING 4403
SWIDTH 977 0
DWIDTH 19 0
BBX 14 7 2 7
BITMAP
265C
2644
27C4
2644
7644
D644
8FC4
ENDCHAR
STARTCHAR 1134
ENCODING 4404
SWIDTH 977 0
DWIDTH 19 0
BBX 13 6 3 8
BITMAP
2220
2220
2220
5750
5550
8888
ENDCHAR
STARTCHAR 1135
ENCODING 4405
SWIDTH 977 0
DWIDTH 19 0
BBX 14 7 3 7
BITMAP
1078
108C
1184
3904
2984
4C8C
8278
ENDCHAR
STARTCHAR 1136
ENCODING 4406
SWIDTH 977 0
DWIDTH 19 0
BBX 14 7 3 7
BITMAP
11F8
1060
3060
3060
68D0
C598
8104
ENDCHAR
STARTCHAR 1137
ENCODING 4407
SWIDTH 977 0
DWIDTH 19 0
BBX 14 7 3 7
BITMAP
1060
11F8
3060
3060
68E0
C598
810C
ENDCHAR
STARTCHAR 1138
ENCODING 4408
SWIDTH 977 0
DWIDTH 19 0
BBX 13 7 3 7
BITMAP
11F8
1018
3018
31F8
2818
4C18
8618
ENDCHAR
STARTCHAR 1139
ENCODING 4409
SWIDTH 977 0
DWIDTH 19 0
BBX 13 7 3 7
BITMAP
11F8
1180
3180
31F8
3980
4D80
87F8
ENDCHAR
STARTCHAR 113A
ENCODING 4410
SWIDTH 977 0
DWIDTH 19 0
BBX 14 7 2 7
BITMAP
10FC
1048
1848
1848
3C48
6448
C2FC
ENDCHAR
STARTCHAR 113B
ENCODING 4411
SWIDTH 977 0
DWIDTH 19 0
BBX 15 9 2 6
BITMAP
0030
1830
19FE
1800
1878
18CC
2C84
66CC
C278
ENDCHAR
STARTCHAR 113C
ENCODING 4412
SWIDTH 977 0
DWIDTH 19 0
BBX 12 9 3 7
BITMAP
0100
0380
06C0
0C60
1830
3010
6000
C000
8000
ENDCHAR
STARTCHAR 113D
ENCODING 4413
SWIDTH 977 0
DWIDTH 19 0
BBX 17 9 1 7
BITMAP
018800
03DC00
067600
0C6300
18C180
118080
230000
460000
840000
ENDCHAR
STARTCHAR 113E
ENCODING 4414
SWIDTH 977 0
DWIDTH 19 0
BBX 12 9 4 7
BITMAP
0800
1C00
3600
6300
C180
80C0
0060
0030
0010
ENDCHAR
STARTCHAR 113F
ENCODING 4415
SWIDTH 977 0
DWIDTH 19 0
BBX 17 9 1 6
BITMAP
08C000
1DE000
373000
631800
C18C00
80C400
006200
003100
001080
ENDCHAR
STARTCHAR 1140
ENCODING 4416
SWIDTH 977 0
DWIDTH 19 0
BBX 11 7 4 9
BITMAP
0400
0E00
1B00
3100
6080
40C0
FFE0
ENDCHAR
STARTCHAR 1141
ENCODING 4417
SWIDTH 977 0
DWIDTH 19 0
BBX 13 7 3 7
BITMAP
7DF8
C618
8218
8218
8218
C618
7C18
ENDCHAR
STARTCHAR 1142
ENCODING 4418
SWIDTH 977 0
DWIDTH 19 0
BBX 14 7 2 7
BITMAP
3CFC
62C0
43C0
C1C0
43C0
62FC
3C00
ENDCHAR
STARTCHAR 1143
ENCODING 4419
SWIDTH 977 0
DWIDTH 19 0
BBX 14 7 3 7
BITMAP
7CFC
C68C
828C
828C
828C
C68C
7CFC
ENDCHAR
STARTCHAR 1144
ENCODING 4420
SWIDTH 977 0
DWIDTH 19 0
BBX 14 7 3 7
BITMAP
788C
C68C
82FC
828C
828C
C68C
78FC
ENDCHAR
STARTCHAR 1145
ENCODING 4421
SWIDTH 977 0
DWIDTH 19 0
BBX 14 7 3 7
BITMAP
7820
C620
8220
8270
8250
C688
7904
ENDCHAR
STARTCHAR 1146
ENCODING 4422
SWIDTH 977 0
DWIDTH 19 0
BBX 15 8 3 8
BITMAP
3820
4430
8250
8248
82C8
828C
4584
39FE
ENDCHAR
STARTCHAR 1147
ENCODING 4423
SWIDTH 977 0
DWIDTH 19 0
BBX 15 7 2 7
BITMAP
3C78
C6C4
8282
8282
8282
C6C6
7C78
ENDCHAR
STARTCHAR 1148
ENCODING 4424
SWIDTH 977 0
DWIDTH 19 0
BBX 15 7 2 7
BITMAP
3CFC
6230
4330
C130
4368
62CC
3C82
ENDCHAR
STARTCHAR 1149
ENCODING 4425
SWIDTH 977 0
DWIDTH 19 0
BBX 15 7 2 7
BITMAP
3C30
46FE
8230
8230
8238
464C
3C82
ENDCHAR
STARTCHAR 114A
ENCODING 4426
SWIDTH 977 0
DWIDTH 19 0
BBX 15 7 2 7
BITMAP
3CFC
62C0
43C0
C1FC
43C0
62C0
3CFE
ENDCHAR
STARTCHAR 114B
ENCODING 4427
SWIDTH 977 0
DWIDTH 19 0
BBX 15 7 2 7
BITMAP
3CFE
6268
4368
C168
4368
6268
3CFE
ENDCHAR
STARTCHAR 114C
ENCODING 4428
SWIDTH 977 0
DWIDTH 19 0
BBX 11 7 4 8
BITMAP
0400
3F80
C060
8020
8020
C060
3F80
ENDCHAR
STARTCHAR 114D
ENCODING 4429
SWIDTH 977 0
DWIDTH 19 0
BBX 15 7 3 7
BITMAP
7E78
1084
1086
1986
2986
66C4
C378
ENDCHAR
STARTCHAR 114E
ENCODING 4430
SWIDTH 977 0
DWIDTH 19 0
BBX 12 9 3 5
BITMAP
7FF0
0380
06C0
0C60
1830
3010
6000
C000
8000
ENDCHAR
STARTCHAR 114F
ENCODING 4431
SWIDTH 977 0
DWIDTH 19 0
BBX 17 10 1 4
BITMAP
3FFF00
019C00
027600
066300
0C4180
188080
318000
630000
460000
840000
ENDCHAR
STARTCHAR 1150
ENCODING 4432
SWIDTH 977 0
DWIDTH 19 0
BBX 12 9 4 5
BITMAP
FFE0
1C00
3600
6300
4180
80C0
0060
0030
0010
ENDCHAR
STARTCHAR 1151
ENCODING 4433
SWIDTH 977 0
DWIDTH 19 0
BBX 17 10 1 4
BITMAP
7FFE00
1CC000
372000
631000
C11800
808C00
00C600
006300
003100
001080
ENDCHAR
STARTCHAR 1152
ENCODING 4434
SWIDTH 977 0
DWIDTH 19 0
BBX 14 8 2 7
BITMAP
1000
10FC
FE0C
100C
18FC
380C
640C
C30C
ENDCHAR
STARTCHAR 1153
ENCODING 4435
SWIDTH 977 0
DWIDTH 19 0
BBX 15 9 2 6
BITMAP
1030
1030
FFFE
1000
1078
30CC
2884
44CC
8278
ENDCHAR
STARTCHAR 1154
ENCODING 4436
SWIDTH 977 0
DWIDTH 19 0
BBX 12 11 3 4
BITMAP
0100
0100
7FF0
0380
06C0
0C60
1820
3010
6000
C000
8000
ENDCHAR
STARTCHAR 1155
ENCODING 4437
SWIDTH 977 0
DWIDTH 19 0
BBX 12 11 4 4
BITMAP
0800
0800
FFE0
1C00
3600
6300
4180
80C0
0060
0030
0010
ENDCHAR
STARTCHAR 1156
ENCODING 4438
SWIDTH 977 0
DWIDTH 19 0
BBX 14 6 3 8
BITMAP
FC8C
488C
48FC
488C
488C
FCFC
ENDCHAR
STARTCHAR 1157
ENCODING 4439
SWIDTH 977 0
DWIDTH 19 0
BBX 13 13 3 1
BITMAP
FFF0
1040
1040
1040
1040
FFF8
0000
0F80
18C0
1040
1040
18C0
0F80
ENDCHAR
STARTCHAR 1158
ENCODING 4440
SWIDTH 977 0
DWIDTH 19 0
BBX 15 9 2 6
BITMAP
1810
1810
FFFE
0000
3C3C
6246
4242
6246
3C3C
ENDCHAR
STARTCHAR 1159
ENCODING 4441
SWIDTH 977 0
DWIDTH 19 0
BBX 13 7 3 7
BITMAP
FFF8
0000
1FC0
6030
4010
6030
1FC0
ENDCHAR
STARTCHAR 115F
ENCODING 4447
SWIDTH 977 0
DWIDTH 19 0
BBX 0 0 0 0
BITMAP
ENDCHAR
STARTCHAR 1160
ENCODING 4448
SWIDTH 977 0
DWIDTH 19 0
BBX 0 0 0 0
BITMAP
ENDCHAR
STARTCHAR 1161
ENCODING 4449
SWIDTH 977 0
DWIDTH 19 0
BBX 4 15 9 0
BITMAP
80
80
80
80
80
80
F0
80
80
80
80
80
80
80
80
ENDCHAR
STARTCHAR 1162
ENCODING 4450
SWIDTH 977 0
DWIDTH 19 0
BBX 6 15 7 0
BITMAP
8C
8C
8C
8C
8C
8C
8C
FC
8C
8C
8C
8C
8C
8C
0C
ENDCHAR
STARTCHAR 1163
ENCODING 4451
SWIDTH 977 0
DWIDTH 19 0
BBX 4 15 9 0
BITMAP
80
80
80
80
F0
80
80
80
80
F0
80
80
80
80
80
ENDCHAR
STARTCHAR 1164
ENCODING 4452
SWIDTH 977 0
DWIDTH 19 0
BBX 6 15 7 0
BITMAP
8C
8C
8C
8C
FC
8C
8C
8C
8C
FC
8C
8C
8C
8C
0C
ENDCHAR
STARTCHAR 1165
ENCODING 4453
SWIDTH 977 0
DWIDTH 19 0
BBX 6 15 6 0
BITMAP
0C
0C
0C
0C
0C
0C
0C
FC
0C
0C
0C
0C
0C
0C
0C
ENDCHAR
STARTCHAR 1166
ENCODING 4454
SWIDTH 977 0
DWIDTH 19 0
BBX 9 15 4 0
BITMAP
0C80
0C80
0C80
0C80
0C80
0C80
0C80
FC80
0C80
0C80
0C80
0C80
0C80
0C80
0080
ENDCHAR
STARTCHAR 1167
ENCODING 4455
SWIDTH 977 0
DWIDTH 19 0
BBX 6 14 6 0
BITMAP
0C
0C
0C
0C
FC
0C
0C
0C
FC
0C
0C
0C
0C
0C
ENDCHAR
STARTCHAR 1168
ENCODING 4456
SWIDTH 977 0
DWIDTH 19 0
BBX 9 15 4 0
BITMAP
0C80
0C80
0C80
0C80
FC80
0C80
0C80
0C80
0C80
FC80
0C80
0C80
0C80
0C80
0C80
ENDCHAR
STARTCHAR 1169
ENCODING 4457
SWIDTH 977 0
DWIDTH 19 0
BBX 17 7 1 5
BITMAP
008000
008000
008000
008000
008000
008000
FFFF80
ENDCHAR
STARTCHAR 116A
ENCODING 4458
SWIDTH 977 0
DWIDTH 19 0
BBX 17 15 1 0
BITMAP
000400
000400
000400
000400
000400
060400
060780
060400
060400
060400
060400
FFF400
000400
000400
000400
ENDCHAR
STARTCHAR 116B
ENCODING 4459
SWIDTH 977 0
DWIDTH 19 0
BBX 16 15 1 0
BITMAP
0013
0013
0013
0013
0013
0C13
0C13
0C1F
0C13
0C13
0C13
FFD3
0013
0013
0003
ENDCHAR
STARTCHAR 116C
ENCODING 4460
SWIDTH 977 0
DWIDTH 19 0
BBX 15 15 1 0
BITMAP
0006
0006
0006
0006
0206
0206
0206
0206
0206
0206
0206
FFF6
0006
0006
0006
ENDCHAR
STARTCHAR 116D
ENCODING 4461
SWIDTH 977 0
DWIDTH 19 0
BBX 17 7 1 5
BITMAP
041000
041000
041000
041000
041000
041000
FFFF80
ENDCHAR
STARTCHAR 116E
ENCODING 4462
SWIDTH 977 0
DWIDTH 19 0
BBX 17 9 1 -1
BITMAP
FFFF80
008000
008000
008000
008000
008000
008000
008000
008000
ENDCHAR
STARTCHAR 116F
ENCODING 4463
SWIDTH 977 0
DWIDTH 19 0
BBX 15 15 1 0
BITMAP
0002
0002
0002
0002
0002
0002
FFF2
0202
0202
0202
027E
0202
0202
0202
0202
ENDCHAR
STARTCHAR 1170
ENCODING 4464
SWIDTH 977 0
DWIDTH 19 0
BBX 15 15 1 0
BITMAP
0012
0012
0012
0012
0012
0012
FFD2
0C12
0C12
0DF2
0C12
0C12
0C12
0C12
0002
ENDCHAR
STARTCHAR 1171
ENCODING 4465
SWIDTH 977 0
DWIDTH 19 0
BBX 15 15 1 0
BITMAP
0002
0002
0002
0002
0002
0002
FFF2
0202
0202
0202
0202
0202
0202
0202
0002
ENDCHAR
STARTCHAR 1172
ENCODING 4466
SWIDTH 977 0
DWIDTH 19 0
BBX 17 9 1 -1
BITMAP
FFFF80
041000
041000
041000
041000
041000
041000
041000
041000
ENDCHAR
STARTCHAR 1173
ENCODING 4467
SWIDTH 977 0
DWIDTH 19 0
BBX 17 1 1 5
BITMAP
FFFF80
ENDCHAR
STARTCHAR 1174
ENCODING 4468
SWIDTH 977 0
DWIDTH 19 0
BBX 15 15 1 0
BITMAP
0002
0002
0002
0002
0002
0002
0002
0002
0002
0002
0002
FFFA
0002
0002
0002
ENDCHAR
STARTCHAR 1175
ENCODING 4469
SWIDTH 977 0
DWIDTH 19 0
BBX 1 15 9 0
BITMAP
80
80
80
80
80
80
80
80
80
80
80
80
80
80
80
ENDCHAR
STARTCHAR 1176
ENCODING 4470
SWIDTH 977 0
DWIDTH 19 0
BBX 17 15 1 0
BITMAP
000400
000400
000400
000400
000400
000400
000780
000400
000400
008400
008400
008400
008000
008000
FFFF80
ENDCHAR
STARTCHAR 1177
ENCODING 4471
SWIDTH 977 0
DWIDTH 19 0
BBX 17 15 1 -1
BITMAP
000400
000400
000400
000400
000780
000400
000400
000400
000000
FFFF80
008000
008000
008000
008000
008000
ENDCHAR
STARTCHAR 1178
ENCODING 4472
SWIDTH 977 0
DWIDTH 19 0
BBX 17 14 1 0
BITMAP
000400
000400
000400
000780
000400
000400
000400
000780
008400
008400
008400
008000
008000
FFFF80
ENDCHAR
STARTCHAR 1179
ENCODING 4473
SWIDTH 977 0
DWIDTH 19 0
BBX 17 14 1 0
BITMAP
000400
000400
000400
000780
000400
000400
000400
000780
046400
046400
046400
046000
046000
FFFF80
ENDCHAR
STARTCHAR 117A
ENCODING 4474
SWIDTH 977 0
DWIDTH 19 0
BBX 17 15 1 0
BITMAP
000600
000600
000600
000600
000600
007E00
000600
000600
000600
008600
008600
008600
008000
008000
FFFF80
ENDCHAR
STARTCHAR 117B
ENCODING 4475
SWIDTH 977 0
DWIDTH 19 0
BBX 17 15 1 -1
BITMAP
000400
000400
000400
000400
007C00
000400
000400
000400
000000
FFFF80
008000
008000
008000
008000
008000
ENDCHAR
STARTCHAR 117C
ENCODING 4476
SWIDTH 977 0
DWIDTH 19 0
BBX 17 15 1 0
BITMAP
000400
000400
000400
000400
000400
007C00
000400
000400
000400
000400
000400
000400
000000
000000
FFFF80
ENDCHAR
STARTCHAR 117D
ENCODING 4477
SWIDTH 977 0
DWIDTH 19 0
BBX 17 15 1 0
BITMAP
000400
000400
007C00
000400
000400
000400
007C00
000400
000400
008400
008400
008400
008000
008000
FFFF80
ENDCHAR
STARTCHAR 117E
ENCODING 4478
SWIDTH 977 0
DWIDTH 19 0
BBX 17 16 1 -1
BITMAP
000400
000400
007C00
000400
000400
007C00
000400
000400
000400
000000
FFFF80
008000
008000
008000
008000
008000
ENDCHAR
STARTCHAR 117F
ENCODING 4479
SWIDTH 977 0
DWIDTH 19 0
BBX 15 15 1 0
BITMAP
0002
0002
0002
0002
0002
007E
0202
0202
0202
0202
0202
0202
FFF2
0002
0002
ENDCHAR
STARTCHAR 1180
ENCODING 4480
SWIDTH 977 0
DWIDTH 19 0
BBX 15 14 1 0
BITMAP
0012
0012
0012
0012
0C12
0DF2
0C12
0C12
0C12
0C12
FF92
0012
0012
0002
ENDCHAR
STARTCHAR 1181
ENCODING 4481
SWIDTH 977 0
DWIDTH 19 0
BBX 15 13 1 1
BITMAP
0012
0012
0012
00F2
0812
0812
08F2
0812
0812
0812
FF92
0012
0012
ENDCHAR
STARTCHAR 1182
ENCODING 4482
SWIDTH 977 0
DWIDTH 19 0
BBX 17 14 1 0
BITMAP
008000
008000
008000
008000
008000
FFFF80
000000
000000
008000
008000
008000
008000
008000
FFFF80
ENDCHAR
STARTCHAR 1183
ENCODING 4483
SWIDTH 977 0
DWIDTH 19 0
BBX 17 15 1 -1
BITMAP
008000
008000
008000
008000
008000
FFFF80
000000
000000
FFFF80
008000
008000
008000
008000
008000
008000
ENDCHAR
STARTCHAR 1184
ENCODING 4484
SWIDTH 977 0
DWIDTH 19 0
BBX 17 14 1 1
BITMAP
000400
000400
000400
000400
198780
198400
198400
198400
198400
198780
198400
FFF400
000400
000400
ENDCHAR
STARTCHAR 1185
ENCODING 4485
SWIDTH 977 0
DWIDTH 19 0
BBX 16 15 1 0
BITMAP
0013
0013
0013
0013
321F
3213
3213
3213
3213
321F
3213
FFD3
0013
0013
0003
ENDCHAR
STARTCHAR 1186
ENCODING 4486
SWIDTH 977 0
DWIDTH 19 0
BBX 16 14 1 1
BITMAP
0003
0003
0003
003F
0003
0003
1903
193F
1903
1903
1903
FFF3
0003
0003
ENDCHAR
STARTCHAR 1187
ENCODING 4487
SWIDTH 977 0
DWIDTH 19 0
BBX 17 14 1 0
BITMAP
041000
041000
041000
041000
041000
FFFF80
000000
000000
008000
008000
008000
008000
008000
FFFF80
ENDCHAR
STARTCHAR 1188
ENCODING 4488
SWIDTH 977 0
DWIDTH 19 0
BBX 14 15 2 0
BITMAP
0004
0004
0004
0004
1184
1184
1184
1184
1184
1184
1184
FFF4
0004
0004
0004
ENDCHAR
STARTCHAR 1189
ENCODING 4489
SWIDTH 977 0
DWIDTH 19 0
BBX 17 15 1 0
BITMAP
000C00
000C00
000C00
000C00
000C00
000C00
000C00
FFEF80
040C00
040C00
040C00
040C00
040C00
040C00
000C00
ENDCHAR
STARTCHAR 118A
ENCODING 4490
SWIDTH 977 0
DWIDTH 19 0
BBX 15 15 1 0
BITMAP
0022
0022
0022
0022
0022
0022
FFA2
083E
0822
0822
0822
0822
0822
0822
0002
ENDCHAR
STARTCHAR 118B
ENCODING 4491
SWIDTH 977 0
DWIDTH 19 0
BBX 15 18 1 -3
BITMAP
0002
0002
0002
0002
0002
FFF2
0602
0602
063E
0602
0602
0602
0002
0002
FFE2
0002
0002
0002
ENDCHAR
STARTCHAR 118C
ENCODING 4492
SWIDTH 977 0
DWIDTH 19 0
BBX 15 15 1 0
BITMAP
0012
0012
0012
0012
FF92
0812
0812
09F2
0812
0812
09F2
0812
0812
0812
0002
ENDCHAR
STARTCHAR 118D
ENCODING 4493
SWIDTH 977 0
DWIDTH 19 0
BBX 17 16 1 -2
BITMAP
FFFF80
008000
008000
008000
008000
008000
008000
000000
000000
FFFF80
008000
008000
008000
008000
008000
008000
ENDCHAR
STARTCHAR 118E
ENCODING 4494
SWIDTH 977 0
DWIDTH 19 0
BBX 17 15 1 0
BITMAP
000C00
000C00
000C00
000C00
000C00
000C00
FFEC00
110F80
110C00
110C00
110C00
110C00
110C00
110C00
000C00
ENDCHAR
STARTCHAR 118F
ENCODING 4495
SWIDTH 977 0
DWIDTH 19 0
BBX 14 14 2 0
BITMAP
0004
0004
0004
0004
0004
FFE4
3304
3304
337C
3304
3304
3304
3304
0004
ENDCHAR
STARTCHAR 1190
ENCODING 4496
SWIDTH 977 0
DWIDTH 19 0
BBX 15 15 1 0
BITMAP
0012
0012
0012
0012
0012
0012
FF92
2612
2612
26F2
2612
2612
2612
2612
0012
ENDCHAR
STARTCHAR 1191
ENCODING 4497
SWIDTH 977 0
DWIDTH 19 0
BBX 15 15 1 0
BITMAP
0002
0002
0002
0002
0002
FFF2
1982
1982
19BE
1982
1982
19BE
1982
1982
0002
ENDCHAR
STARTCHAR 1192
ENCODING 4498
SWIDTH 977 0
DWIDTH 19 0
BBX 16 13 1 1
BITMAP
001B
001B
001B
001B
001B
FF9B
361B
36FB
361B
36FB
361B
361B
0003
ENDCHAR
STARTCHAR 1193
ENCODING 4499
SWIDTH 977 0
DWIDTH 19 0
BBX 17 16 1 -2
BITMAP
FFFF80
041000
041000
041000
041000
041000
041000
000000
000000
FFFF80
008000
008000
008000
008000
008000
008000
ENDCHAR
STARTCHAR 1194
ENCODING 4500
SWIDTH 977 0
DWIDTH 19 0
BBX 14 15 2 0
BITMAP
0004
0004
0004
0004
0004
0004
FFE4
3104
3104
3104
3104
3104
3104
3104
0004
ENDCHAR
STARTCHAR 1195
ENCODING 4501
SWIDTH 977 0
DWIDTH 19 0
BBX 17 12 1 0
BITMAP
FFFF80
000000
000000
000000
FFFF80
008000
008000
008000
008000
008000
008000
008000
ENDCHAR
STARTCHAR 1196
ENCODING 4502
SWIDTH 977 0
DWIDTH 19 0
BBX 17 6 1 5
BITMAP
FFFF80
000000
000000
000000
000000
FFFF80
ENDCHAR
STARTCHAR 1197
ENCODING 4503
SWIDTH 977 0
DWIDTH 19 0
BBX 17 17 1 -2
BITMAP
000200
000200
000200
000200
000200
000200
7FFA00
000200
000000
000000
FFFF80
008000
008000
008000
008000
008000
008000
ENDCHAR
STARTCHAR 1198
ENCODING 4504
SWIDTH 977 0
DWIDTH 19 0
BBX 9 15 8 0
BITMAP
C400
C400
C400
C400
C400
C400
C400
C780
C400
C400
C400
C400
C400
C400
0400
ENDCHAR
STARTCHAR 1199
ENCODING 4505
SWIDTH 977 0
DWIDTH 19 0
BBX 9 15 8 0
BITMAP
C400
C400
C400
C400
C400
C780
C400
C400
C400
C780
C400
C400
C400
C400
0400
ENDCHAR
STARTCHAR 119A
ENCODING 4506
SWIDTH 977 0
DWIDTH 19 0
BBX 17 15 1 0
BITMAP
000600
000600
000600
000600
000600
000600
000600
000600
008600
008000
008000
008000
008000
008000
FFFF80
ENDCHAR
STARTCHAR 119B
ENCODING 4507
SWIDTH 977 0
DWIDTH 19 0
BBX 17 17 1 -2
BITMAP
000600
000600
000600
000600
000600
000600
000600
000000
000000
FFFF80
008000
008000
008000
008000
008000
008000
008000
ENDCHAR
STARTCHAR 119C
ENCODING 4508
SWIDTH 977 0
DWIDTH 19 0
BBX 17 15 1 0
BITMAP
000600
000600
000600
000600
000600
000600
000600
000600
000600
000600
000600
000600
000000
000000
FFFF80
ENDCHAR
STARTCHAR 119D
ENCODING 4509
SWIDTH 977 0
DWIDTH 19 0
BBX 3 16 8 -1
BITMAP
40
40
40
40
40
40
40
40
40
40
40
00
00
E0
E0
E0
ENDCHAR
STARTCHAR 119E
ENCODING 4510
SWIDTH 977 0
DWIDTH 19 0
BBX 3 3 8 6
BITMAP
E0
E0
E0
ENDCHAR
STARTCHAR 119F
ENCODING 4511
SWIDTH 977 0
DWIDTH 19 0
BBX 8 14 5 1
BITMAP
01
01
01
01
01
3F
01
C1
E1
E1
C1
01
01
01
ENDCHAR
STARTCHAR 11A0
ENCODING 4512
SWIDTH 977 0
DWIDTH 19 0
BBX 17 17 1 -2
BITMAP
01C000
01C000
01C000
01C000
000000
000000
000000
000000
000000
FFFF80
008000
008000
008000
008000
008000
008000
008000
ENDCHAR
STARTCHAR 11A1
ENCODING 4513
SWIDTH 977 0
DWIDTH 19 0
BBX 10 15 5 0
BITMAP
00C0
00C0
00C0
00C0
00C0
60C0
F0C0
F0C0
60C0
00C0
00C0
00C0
00C0
00C0
00C0
ENDCHAR
STARTCHAR 11A2
ENCODING 4514
SWIDTH 977 0
DWIDTH 19 0
BBX 9 3 5 5
BITMAP
E380
E380
E380
ENDCHAR
STARTCHAR 11A8
ENCODING 4520
SWIDTH 977 0
DWIDTH 19 0
BBX 11 6 4 -4
BITMAP
FFE0
0020
0020
0020
0020
0020
ENDCHAR
STARTCHAR 11A9
ENCODING 4521
SWIDTH 977 0
DWIDTH 19 0
BBX 13 6 3 -3
BITMAP
FDF8
0C08
0C08
0C08
0C08
0C08
ENDCHAR
STARTCHAR 11AA
ENCODING 4522
SWIDTH 977 0
DWIDTH 19 0
BBX 14 7 3 -3
BITMAP
FC60
0C60
0C60
0C60
0CF0
0D98
0F0C
ENDCHAR
STARTCHAR 11AB
ENCODING 4523
SWIDTH 977 0
DWIDTH 19 0
BBX 11 6 4 -2
BITMAP
8000
8000
8000
8000
8000
FFE0
ENDCHAR
STARTCHAR 11AC
ENCODING 4524
SWIDTH 977 0
DWIDTH 19 0
BBX 13 6 3 -3
BITMAP
C3F8
C040
C040
C0A0
FDB0
0308
ENDCHAR
STARTCHAR 11AD
ENCODING 4525
SWIDTH 977 0
DWIDTH 19 0
BBX 14 9 3 -3
BITMAP
0060
8060
83FC
8000
80F0
8118
8108
F918
00F0
ENDCHAR
STARTCHAR 11AE
ENCODING 4526
SWIDTH 977 0
DWIDTH 19 0
BBX 11 6 4 -3
BITMAP
FFE0
C000
C000
C000
C000
FFE0
ENDCHAR
STARTCHAR 11AF
ENCODING 4527
SWIDTH 977 0
DWIDTH 19 0
BBX 11 8 4 -3
BITMAP
FFE0
0020
0020
FFE0
8000
8000
8000
FFE0
ENDCHAR
STARTCHAR 11B0
ENCODING 4528
SWIDTH 977 0
DWIDTH 19 0
BBX 12 7 3 -3
BITMAP
FDF0
0410
0410
FC10
8010
8010
FC10
ENDCHAR
STARTCHAR 11B1
ENCODING 4529
SWIDTH 977 0
DWIDTH 19 0
BBX 13 7 3 -3
BITMAP
FDF8
0588
0588
FD88
8188
8188
FDF8
ENDCHAR
STARTCHAR 11B2
ENCODING 4530
SWIDTH 977 0
DWIDTH 19 0
BBX 13 7 3 -3
BITMAP
FD08
0508
05F8
FD08
8108
8108
FDF8
ENDCHAR
STARTCHAR 11B3
ENCODING 4531
SWIDTH 977 0
DWIDTH 19 0
BBX 14 7 3 -3
BITMAP
FC20
0420
0420
FC60
8050
8098
FD04
ENDCHAR
STARTCHAR 11B4
ENCODING 4532
SWIDTH 977 0
DWIDTH 19 0
BBX 13 7 3 -3
BITMAP
FDF8
0580
0580
FDF8
8180
8180
FDF8
ENDCHAR
STARTCHAR 11B5
ENCODING 4533
SWIDTH 977 0
DWIDTH 19 0
BBX 13 7 3 -3
BITMAP
FDF8
0490
0490
FC90
8090
8090
FDF8
ENDCHAR
STARTCHAR 11B6
ENCODING 4534
SWIDTH 977 0
DWIDTH 19 0
BBX 15 9 2 -3
BITMAP
0030
0030
FFFE
0600
0678
FECC
C084
C0CC
FE78
ENDCHAR
STARTCHAR 11B7
ENCODING 4535
SWIDTH 977 0
DWIDTH 19 0
BBX 11 6 4 -2
BITMAP
FFE0
8020
8020
8020
8020
FFE0
ENDCHAR
STARTCHAR 11B8
ENCODING 4536
SWIDTH 977 0
DWIDTH 19 0
BBX 11 5 4 -2
BITMAP
8020
8020
FFE0
8020
FFE0
ENDCHAR
STARTCHAR 11B9
ENCODING 4537
SWIDTH 977 0
DWIDTH 19 0
BBX 14 6 3 -3
BITMAP
8460
8460
FC60
84F0
8498
FF0C
ENDCHAR
STARTCHAR 11BA
ENCODING 4538
SWIDTH 977 0
DWIDTH 19 0
BBX 15 6 2 -2
BITMAP
0100
0100
0280
06C0
1830
E00E
ENDCHAR
STARTCHAR 11BB
ENCODING 4539
SWIDTH 977 0
DWIDTH 19 0
BBX 15 7 2 -4
BITMAP
1830
1830
1830
1C38
244C
42C6
8080
ENDCHAR
STARTCHAR 11BC
ENCODING 4540
SWIDTH 977 0
DWIDTH 19 0
BBX 11 6 4 -3
BITMAP
3F80
C060
8020
8020
C060
3F80
ENDCHAR
STARTCHAR 11BD
ENCODING 4541
SWIDTH 977 0
DWIDTH 19 0
BBX 15 6 2 -3
BITMAP
7FFC
0100
0280
0440
1830
E00E
ENDCHAR
STARTCHAR 11BE
ENCODING 4542
SWIDTH 977 0
DWIDTH 19 0
BBX 15 7 2 -3
BITMAP
0100
0100
7FFC
0380
06C0
1C30
E00E
ENDCHAR
STARTCHAR 11BF
ENCODING 4543
SWIDTH 977 0
DWIDTH 19 0
BBX 11 6 4 -4
BITMAP
FFE0
0020
0020
FFE0
0020
0020
ENDCHAR
STARTCHAR 11C0
ENCODING 4544
SWIDTH 977 0
DWIDTH 19 0
BBX 11 7 4 -3
BITMAP
FFE0
8000
8000
FFE0
8000
8000
FFE0
ENDCHAR
STARTCHAR 11C1
ENCODING 4545
SWIDTH 977 0
DWIDTH 19 0
BBX 13 7 3 -3
BITMAP
FFF0
1040
1040
1040
1040
1040
FFF8
ENDCHAR
STARTCHAR 11C2
ENCODING 4546
SWIDTH 977 0
DWIDTH 19 0
BBX 13 9 3 -3
BITMAP
0200
0200
FFF8
0000
1FC0
6030
4010
6030
1FC0
ENDCHAR
STARTCHAR 11C3
ENCODING 4547
SWIDTH 977 0
DWIDTH 19 0
BBX 13 7 3 -3
BITMAP
F9F8
0808
0808
09F8
0900
0900
09F8
ENDCHAR
STARTCHAR 11C4
ENCODING 4548
SWIDTH 977 0
DWIDTH 19 0
BBX 13 7 3 -3
BITMAP
F378
3308
3308
3308
3308
3488
3488
ENDCHAR
STARTCHAR 11C5
ENCODING 4549
SWIDTH 977 0
DWIDTH 19 0
BBX 11 6 4 -3
BITMAP
87E0
8020
8020
8020
8820
F020
ENDCHAR
STARTCHAR 11C6
ENCODING 4550
SWIDTH 977 0
DWIDTH 19 0
BBX 13 6 3 -3
BITMAP
81F8
8100
8100
8100
8100
FDF8
ENDCHAR
STARTCHAR 11C7
ENCODING 4551
SWIDTH 977 0
DWIDTH 19 0
BBX 12 6 4 -3
BITMAP
80C0
80C0
80C0
81C0
8920
F610
ENDCHAR
STARTCHAR 11C8
ENCODING 4552
SWIDTH 977 0
DWIDTH 19 0
BBX 14 8 3 -2
BITMAP
8040
8060
8060
8090
8090
8108
8F0C
F3FC
ENDCHAR
STARTCHAR 11C9
ENCODING 4553
SWIDTH 977 0
DWIDTH 19 0
BBX 12 7 4 -3
BITMAP
83F0
8300
8300
83F0
8300
8B00
F3F0
ENDCHAR
STARTCHAR 11CA
ENCODING 4554
SWIDTH 977 0
DWIDTH 19 0
BBX 12 7 3 -4
BITMAP
FDF0
8010
8010
8010
8010
FC10
0010
ENDCHAR
STARTCHAR 11CB
ENCODING 4555
SWIDTH 977 0
DWIDTH 19 0
BBX 14 7 3 -3
BITMAP
FCFC
800C
800C
80FC
8080
8080
FCFC
ENDCHAR
STARTCHAR 11CC
ENCODING 4556
SWIDTH 977 0
DWIDTH 19 0
BBX 14 7 3 -3
BITMAP
FF10
3110
3130
F130
8130
8148
F144
ENDCHAR
STARTCHAR 11CD
ENCODING 4557
SWIDTH 977 0
DWIDTH 19 0
BBX 13 6 3 -1
BITMAP
FD80
0580
FD80
8180
8180
FDF8
ENDCHAR
STARTCHAR 11CE
ENCODING 4558
SWIDTH 977 0
DWIDTH 19 0
BBX 13 7 3 -3
BITMAP
FDF8
0580
0580
FD80
8180
8180
FDF8
ENDCHAR
STARTCHAR 11CF
ENCODING 4559
SWIDTH 977 0
DWIDTH 19 0
BBX 16 8 2 -3
BITMAP
0008
F7BF
1600
161C
F632
8622
8632
FF9C
ENDCHAR
STARTCHAR 11D0
ENCODING 4560
SWIDTH 977 0
DWIDTH 19 0
BBX 14 7 3 -3
BITMAP
FCFC
040C
040C
FCFC
8080
8080
FCFC
ENDCHAR
STARTCHAR 11D1
ENCODING 4561
SWIDTH 977 0
DWIDTH 19 0
BBX 13 7 3 -3
BITMAP
F7F8
3488
3488
F488
8488
8488
F788
ENDCHAR
STARTCHAR 11D2
ENCODING 4562
SWIDTH 977 0
DWIDTH 19 0
BBX 14 7 3 -3
BITMAP
F790
3590
3590
F590
85A8
85AC
F7C4
ENDCHAR
STARTCHAR 11D3
ENCODING 4563
SWIDTH 977 0
DWIDTH 19 0
BBX 15 7 2 -3
BITMAP
F2C8
12C8
13C8
F2CC
C2DC
C2D6
FBE2
ENDCHAR
STARTCHAR 11D4
ENCODING 4564
SWIDTH 977 0
DWIDTH 19 0
BBX 16 9 2 -3
BITMAP
0008
0008
F6FF
16C0
17DC
F6F2
86E2
87F2
F81C
ENDCHAR
STARTCHAR 11D5
ENCODING 4565
SWIDTH 977 0
DWIDTH 19 0
BBX 15 12 2 -3
BITMAP
0186
0186
01FE
FD86
0586
FDFE
8000
8078
FC84
0086
0084
0078
ENDCHAR
STARTCHAR 11D6
ENCODING 4566
SWIDTH 977 0
DWIDTH 19 0
BBX 14 6 2 -3
BITMAP
F998
1998
F998
8198
82A4
FA64
ENDCHAR
STARTCHAR 11D7
ENCODING 4567
SWIDTH 977 0
DWIDTH 19 0
BBX 15 8 3 -2
BITMAP
FC20
0C30
0C50
FC48
80C8
808C
8184
FDFE
ENDCHAR
STARTCHAR 11D8
ENCODING 4568
SWIDTH 977 0
DWIDTH 19 0
BBX 13 7 3 -3
BITMAP
FDF8
0418
0418
FDF8
8018
8018
FC18
ENDCHAR
STARTCHAR 11D9
ENCODING 4569
SWIDTH 977 0
DWIDTH 19 0
BBX 15 7 2 -3
BITMAP
FFFE
0600
0678
FECC
C084
C0CC
FE78
ENDCHAR
STARTCHAR 11DA
ENCODING 4570
SWIDTH 977 0
DWIDTH 19 0
BBX 12 7 3 -4
BITMAP
FDF0
8410
8410
8410
8410
FC10
0010
ENDCHAR
STARTCHAR 11DB
ENCODING 4571
SWIDTH 977 0
DWIDTH 19 0
BBX 14 7 3 -3
BITMAP
FDF8
8408
8408
85F8
8580
8580
FDFC
ENDCHAR
STARTCHAR 11DC
ENCODING 4572
SWIDTH 977 0
DWIDTH 19 0
BBX 13 7 3 -3
BITMAP
FD08
8508
85F8
8508
8508
8508
FDF8
ENDCHAR
STARTCHAR 11DD
ENCODING 4573
SWIDTH 977 0
DWIDTH 19 0
BBX 14 7 3 -3
BITMAP
FC60
8460
8460
8460
84F0
8498
FF0C
ENDCHAR
STARTCHAR 11DE
ENCODING 4574
SWIDTH 977 0
DWIDTH 19 0
BBX 13 7 3 -3
BITMAP
F330
9330
9330
9330
9330
9548
F4C8
ENDCHAR
STARTCHAR 11DF
ENCODING 4575
SWIDTH 977 0
DWIDTH 19 0
BBX 14 7 3 -2
BITMAP
F840
8860
88F0
8890
8998
8908
FBFC
ENDCHAR
STARTCHAR 11E0
ENCODING 4576
SWIDTH 977 0
DWIDTH 19 0
BBX 14 8 3 -3
BITMAP
0060
F9F8
8860
8860
8860
8890
8998
F90C
ENDCHAR
STARTCHAR 11E1
ENCODING 4577
SWIDTH 977 0
DWIDTH 19 0
BBX 14 9 3 -3
BITMAP
0060
0060
FBFC
8800
88F0
8998
8908
F998
00F0
ENDCHAR
STARTCHAR 11E2
ENCODING 4578
SWIDTH 977 0
DWIDTH 19 0
BBX 11 13 4 -4
BITMAP
FFE0
8020
8020
8020
8020
FFE0
0000
1F00
3180
2080
2080
3180
1F00
ENDCHAR
STARTCHAR 11E3
ENCODING 4579
SWIDTH 977 0
DWIDTH 19 0
BBX 14 7 3 -2
BITMAP
84F8
8408
FC08
84F8
8480
8480
FCFC
ENDCHAR
STARTCHAR 11E4
ENCODING 4580
SWIDTH 977 0
DWIDTH 19 0
BBX 13 7 3 -2
BITMAP
85F8
8490
FC90
8490
8490
8490
FDF8
ENDCHAR
STARTCHAR 11E5
ENCODING 4581
SWIDTH 977 0
DWIDTH 19 0
BBX 14 9 3 -3
BITMAP
0060
8C60
8FFC
8C00
FCF0
8D98
8D08
FD98
00F0
ENDCHAR
STARTCHAR 11E6
ENCODING 4582
SWIDTH 977 0
DWIDTH 19 0
BBX 11 12 4 -3
BITMAP
8020
8020
FFE0
8020
8020
FFE0
0000
1F00
3180
2080
3180
1F00
ENDCHAR
STARTCHAR 11E7
ENCODING 4583
SWIDTH 977 0
DWIDTH 19 0
BBX 13 7 3 -4
BITMAP
11F8
1018
3018
3018
2818
4418
8218
ENDCHAR
STARTCHAR 11E8
ENCODING 4584
SWIDTH 977 0
DWIDTH 19 0
BBX 13 6 3 -3
BITMAP
10F8
1080
3080
3880
4C80
82F8
ENDCHAR
STARTCHAR 11E9
ENCODING 4585
SWIDTH 977 0
DWIDTH 19 0
BBX 14 7 3 -3
BITMAP
10FC
100C
100C
30FC
2880
4C80
82FC
ENDCHAR
STARTCHAR 11EA
ENCODING 4586
SWIDTH 977 0
DWIDTH 19 0
BBX 13 7 3 -3
BITMAP
1088
1088
30F8
3088
2888
4C88
82F8
ENDCHAR
STARTCHAR 11EB
ENCODING 4587
SWIDTH 977 0
DWIDTH 19 0
BBX 11 7 4 -2
BITMAP
0400
0E00
1B00
3100
6080
40C0
FFE0
ENDCHAR
STARTCHAR 11EC
ENCODING 4588
SWIDTH 977 0
DWIDTH 19 0
BBX 13 7 3 -3
BITMAP
7DF8
C618
8218
8218
8218
C618
7C18
ENDCHAR
STARTCHAR 11ED
ENCODING 4589
SWIDTH 977 0
DWIDTH 19 0
BBX 15 7 2 -3
BITMAP
7BDE
CC42
8442
8442
8442
CC42
7842
ENDCHAR
STARTCHAR 11EE
ENCODING 4590
SWIDTH 977 0
DWIDTH 19 0
BBX 15 7 2 -3
BITMAP
3C78
C6C4
8282
8282
8282
C6C6
7C78
ENDCHAR
STARTCHAR 11EF
ENCODING 4591
SWIDTH 977 0
DWIDTH 19 0
BBX 14 7 2 -3
BITMAP
3CFC
6204
4304
C1FC
4304
6204
3C04
ENDCHAR
STARTCHAR 11F0
ENCODING 4592
SWIDTH 977 0
DWIDTH 19 0
BBX 11 7 4 -3
BITMAP
0400
3F80
C060
8020
8020
C060
3F80
ENDCHAR
STARTCHAR 11F1
ENCODING 4593
SWIDTH 977 0
DWIDTH 19 0
BBX 14 8 3 -3
BITMAP
1000
7C20
C620
8220
8260
8250
C498
7904
ENDCHAR
STARTCHAR 11F2
ENCODING 4594
SWIDTH 977 0
DWIDTH 19 0
BBX 15 8 3 -3
BITMAP
1000
1020
7C30
C650
8248
828C
C784
7DFE
ENDCHAR
STARTCHAR 11F3
ENCODING 4595
SWIDTH 977 0
DWIDTH 19 0
BBX 14 7 3 -3
BITMAP
FC8C
488C
488C
48FC
488C
488C
FCFC
ENDCHAR
STARTCHAR 11F4
ENCODING 4596
SWIDTH 977 0
DWIDTH 19 0
BBX 13 12 3 -3
BITMAP
FFF0
1040
1040
1040
1040
FFF8
0000
0F80
18C0
1040
18C0
0F80
ENDCHAR
STARTCHAR 11F5
ENCODING 4597
SWIDTH 977 0
DWIDTH 19 0
BBX 14 9 2 -3
BITMAP
1800
1800
FF40
0040
3C40
6240
4240
6240
3C7C
ENDCHAR
STARTCHAR 11F6
ENCODING 4598
SWIDTH 977 0
DWIDTH 19 0
BBX 14 8 2 -3
BITMAP
1800
FF7C
0004
3C04
627C
4240
6240
3C7C
ENDCHAR
STARTCHAR 11F7
ENCODING 4599
SWIDTH 977 0
DWIDTH 19 0
BBX 14 8 2 -3
BITMAP
1800
FF7C
0044
3C44
6244
4244
6244
3C7C
ENDCHAR
STARTCHAR 11F8
ENCODING 4600
SWIDTH 977 0
DWIDTH 19 0
BBX 14 8 2 -3
BITMAP
1800
FE84
0084
3CFC
4684
4284
46FC
3C00
ENDCHAR
STARTCHAR 11F9
ENCODING 4601
SWIDTH 977 0
DWIDTH 19 0
BBX 13 7 3 -3
BITMAP
FFF8
0000
1FC0
6030
4010
6030
1FC0
ENDCHAR
STARTCHAR 2013
ENCODING 8211
SWIDTH 514 0
DWIDTH 10 0
BBX 10 1 0 5
BITMAP
FFC0
ENDCHAR
STARTCHAR 2014
ENCODING 8212
SWIDTH 977 0
DWIDTH 19 0
BBX 19 1 0 5
BITMAP
FFFFE0
ENDCHAR
STARTCHAR 2015
ENCODING 8213
SWIDTH 977 0
DWIDTH 19 0
BBX 19 1 0 5
BITMAP
FFFFE0
ENDCHAR
STARTCHAR 2018
ENCODING 8216
SWIDTH 205 0
DWIDTH 4 0
BBX 2 4 1 10
BITMAP
40
40
80
80
ENDCHAR
STARTCHAR 2019
ENCODING 8217
SWIDTH 205 0
DWIDTH 4 0
BBX 2 4 1 10
BITMAP
40
40
80
80
ENDCHAR
STARTCHAR 201A
ENCODING 8218
SWIDTH 205 0
DWIDTH 4 0
BBX 2 4 1 -2
BITMAP
40
40
80
80
ENDCHAR
STARTCHAR 201C
ENCODING 8220
SWIDTH 360 0
DWIDTH 7 0
BBX 5 4 1 10
BITMAP
48
48
90
90
ENDCHAR
STARTCHAR 201D
ENCODING 8221
SWIDTH 360 0
DWIDTH 7 0
BBX 5 4 1 10
BITMAP
48
48
90
90
ENDCHAR
STARTCHAR 201E
ENCODING 8222
SWIDTH 360 0
DWIDTH 7 0
BBX 5 4 1 -2
BITMAP
48
48
90
90
ENDCHAR
STARTCHAR 2020
ENCODING 8224
SWIDTH 360 0
DWIDTH 7 0
BBX 5 11 1 3
BITMAP
20
20
20
F8
20
20
20
20
20
20
20
ENDCHAR
STARTCHAR 2021
ENCODING 8225
SWIDTH 360 0
DWIDTH 7 0
BBX 5 11 1 3
BITMAP
20
20
20
F8
20
20
20
F8
20
20
20
ENDCHAR
STARTCHAR 2022
ENCODING 8226
SWIDTH 411 0
DWIDTH 8 0
BBX 5 5 1 3
BITMAP
70
F8
F8
F8
70
ENDCHAR
STARTCHAR 2025
ENCODING 8229
SWIDTH 411 0
DWIDTH 8 0
BBX 6 2 1 0
BITMAP
CC
CC
ENDCHAR
STARTCHAR 2026
ENCODING 8230
SWIDTH 720 0
DWIDTH 14 0
BBX 12 2 1 0
BITMAP
C630
C630
ENDCHAR
STARTCHAR 2030
ENCODING 8240
SWIDTH 1234 0
DWIDTH 24 0
BBX 22 14 1 0
BITMAP
781000
CC2000
844000
844000
848000
CD0000
790000
027878
02CCCC
048484
088484
088484
10CCCC
207878
ENDCHAR
STARTCHAR 2032
ENCODING 8242
SWIDTH 205 0
DWIDTH 4 0
BBX 2 4 1 10
BITMAP
40
40
80
80
ENDCHAR
STARTCHAR 2033
ENCODING 8243
SWIDTH 360 0
DWIDTH 7 0
BBX 5 4 1 10
BITMAP
48
48
90
90
ENDCHAR
STARTCHAR 2039
ENCODING 8249
SWIDTH 308 0
DWIDTH 6 0
BBX 4 6 1 2
BITMAP
30
60
C0
80
40
20
ENDCHAR
STARTCHAR 203A
ENCODING 8250
SWIDTH 308 0
DWIDTH 6 0
BBX 4 6 1 2
BITMAP
C0
60
30
10
20
40
ENDCHAR
STARTCHAR 203B
ENCODING 8251
SWIDTH 771 0
DWIDTH 15 0
BBX 13 14 1 -1
BITMAP
8008
4310
2320
1040
18C0
0D80
6730
6730
0D80
1880
1040
2320
4310
8008
ENDCHAR
STARTCHAR 2074
ENCODING 8308
SWIDTH 360 0
DWIDTH 7 0
BBX 6 8 0 6
BITMAP
18
18
28
48
C8
FC
08
08
ENDCHAR
STARTCHAR 207F
ENCODING 8319
SWIDTH 411 0
DWIDTH 8 0
BBX 6 7 1 7
BITMAP
B8
C4
84
84
84
84
84
ENDCHAR
STARTCHAR 2081
ENCODING 8321
SWIDTH 360 0
DWIDTH 7 0
BBX 5 8 1 0
BITMAP
60
A0
20
20
20
20
20
F8
ENDCHAR
STARTCHAR 2082
ENCODING 8322
SWIDTH 360 0
DWIDTH 7 0
BBX 5 8 1 0
BITMAP
70
88
08
08
10
20
C0
F8
ENDCHAR
STARTCHAR 2083
ENCODING 8323
SWIDTH 360 0
DWIDTH 7 0
BBX 5 8 1 0
BITMAP
70
88
08
70
18
08
88
70
ENDCHAR
STARTCHAR 2084
ENCODING 8324
SWIDTH 360 0
DWIDTH 7 0
BBX 6 8 0 0
BITMAP
18
18
28
48
C8
FC
08
08
ENDCHAR
STARTCHAR 20A0
ENCODING 8352
SWIDTH 617 0
DWIDTH 12 0
BBX 9 14 1 0
BITMAP
1C00
7E00
4200
8000
8F80
8F80
8800
C800
7F80
3F80
0800
0800
0F80
0F80
ENDCHAR
STARTCHAR 20A1
ENCODING 8353
SWIDTH 565 0
DWIDTH 11 0
BBX 9 16 1 -1
BITMAP
0280
0F80
3F80
7580
6900
EA00
CA00
D600
D400
D400
E800
6800
7880
3F80
5F00
5000
ENDCHAR
STARTCHAR 20A2
ENCODING 8354
SWIDTH 565 0
DWIDTH 11 0
BBX 9 14 1 0
BITMAP
0F00
3F80
3880
7000
6000
C580
C780
C600
C400
E400
6400
7C80
3F80
0F00
ENDCHAR
STARTCHAR 20A3
ENCODING 8355
SWIDTH 462 0
DWIDTH 9 0
BBX 9 14 0 0
BITMAP
3F80
3F80
2000
2000
2000
2000
3F80
3F80
2000
2000
FC00
FC00
2000
2000
ENDCHAR
STARTCHAR 20A4
ENCODING 8356
SWIDTH 514 0
DWIDTH 10 0
BBX 8 14 1 0
BITMAP
1E
3E
22
20
FC
FC
20
FC
FC
20
20
40
FF
FF
ENDCHAR
STARTCHAR 20A5
ENCODING 8357
SWIDTH 874 0
DWIDTH 17 0
BBX 13 14 2 -2
BITMAP
0020
0040
BCF0
BFF8
C798
8308
8308
8208
8608
8608
8E08
8A08
1000
2000
ENDCHAR
STARTCHAR 20A6
ENCODING 8358
SWIDTH 668 0
DWIDTH 13 0
BBX 13 14 0 0
BITMAP
3020
3020
3820
2C20
FFF8
FFF8
2220
FFF8
FFF8
2120
20A0
20E0
2060
2060
ENDCHAR
STARTCHAR 20A7
ENCODING 8359
SWIDTH 1080 0
DWIDTH 21 0
BBX 18 14 2 0
BITMAP
FC0000
FE0000
874000
834000
834000
83F3C0
86F7C0
FE4440
F84700
804380
8040C0
804440
8077C0
803380
ENDCHAR
STARTCHAR 20A8
ENCODING 8360
SWIDTH 874 0
DWIDTH 17 0
BBX 14 14 2 0
BITMAP
FC00
FE00
8700
8300
8300
8600
FC38
F07C
8C44
8478
863C
8344
837C
81B8
ENDCHAR
STARTCHAR 20A9
ENCODING 8361
SWIDTH 771 0
DWIDTH 15 0
BBX 15 14 0 0
BITMAP
4104
4104
4288
6288
FFFE
FFFE
2250
FFFE
FFFE
3450
1470
1C30
1820
0820
ENDCHAR
STARTCHAR 20AA
ENCODING 8362
SWIDTH 514 0
DWIDTH 10 0
BBX 8 10 1 0
BITMAP
F9
FD
85
A5
A5
A5
A5
A1
BF
BE
ENDCHAR
STARTCHAR 20AB
ENCODING 8363
SWIDTH 565 0
DWIDTH 11 0
BBX 9 19 1 -4
BITMAP
0100
0F80
0F80
0100
0100
3D00
7F00
4300
8100
8100
8100
8100
C300
7D00
3900
0000
0000
7F00
7F00
ENDCHAR
STARTCHAR 20AC
ENCODING 8364
SWIDTH 514 0
DWIDTH 10 0
BBX 10 14 0 0
BITMAP
0780
1FC0
1840
2000
FF80
FF80
2000
2000
FF80
FF80
2000
1040
1FC0
0780
ENDCHAR
STARTCHAR 20AD
ENCODING 8365
SWIDTH 514 0
DWIDTH 10 0
BBX 9 14 1 0
BITMAP
4180
4300
4600
4400
4800
5000
FF00
FF00
5000
4800
4C00
4600
4300
4180
ENDCHAR
STARTCHAR 20AE
ENCODING 8366
SWIDTH 462 0
DWIDTH 9 0
BBX 7 14 1 0
BITMAP
FE
FE
10
10
14
1C
38
74
5C
38
70
50
10
10
ENDCHAR
STARTCHAR 20AF
ENCODING 8367
SWIDTH 1131 0
DWIDTH 22 0
BBX 21 19 0 -3
BITMAP
001000
006000
03F000
0C8C00
118600
218300
010300
030300
030300
020300
020370
0606C8
740688
9C0D88
9C1998
73E370
000200
000200
000400
ENDCHAR
STARTCHAR 20B0
ENCODING 8368
SWIDTH 462 0
DWIDTH 9 0
BBX 9 19 0 -4
BITMAP
0C00
1200
1200
1200
1200
0C00
0C00
0C00
0600
0E00
2B00
2B00
7180
7180
9180
0180
0380
0700
0E00
ENDCHAR
STARTCHAR 20B1
ENCODING 8369
SWIDTH 565 0
DWIDTH 11 0
BBX 10 14 1 0
BITMAP
7C00
7F00
4300
FFC0
FFC0
4100
FFC0
FFC0
4700
7E00
7C00
4000
4000
4000
ENDCHAR
STARTCHAR 2103
ENCODING 8451
SWIDTH 925 0
DWIDTH 18 0
BBX 16 14 1 0
BITMAP
703E
88C1
8880
8900
7200
0200
0200
0200
0200
0200
0100
0180
00C1
003E
ENDCHAR
STARTCHAR 2109
ENCODING 8457
SWIDTH 925 0
DWIDTH 18 0
BBX 14 14 2 0
BITMAP
71FC
8900
8900
8900
7100
0100
0100
01FC
0100
0100
0100
0100
0100
0100
ENDCHAR
STARTCHAR 2113
ENCODING 8467
SWIDTH 308 0
DWIDTH 6 0
BBX 6 15 0 0
BITMAP
18
3C
34
34
34
38
38
30
70
F0
70
30
34
3C
18
ENDCHAR
STARTCHAR 2116
ENCODING 8470
SWIDTH 1131 0
DWIDTH 22 0
BBX 19 14 2 0
BITMAP
C043C0
C047C0
E04C60
B04820
904820
984C60
8C47C0
844380
864000
824FE0
834FE0
81C000
80C000
80C000
ENDCHAR
STARTCHAR 2121
ENCODING 8481
SWIDTH 925 0
DWIDTH 18 0
BBX 17 14 0 0
BITMAP
FF0000
100000
100000
100000
11E400
110400
110400
110400
11E400
110400
110400
110400
110400
11E780
ENDCHAR
STARTCHAR 2122
ENCODING 8482
SWIDTH 771 0
DWIDTH 15 0
BBX 12 6 1 8
BITMAP
FA10
2330
2370
2350
22D0
2290
ENDCHAR
STARTCHAR 2126
ENCODING 8486
SWIDTH 771 0
DWIDTH 15 0
BBX 12 14 1 0
BITMAP
1F80
3FC0
70E0
C030
8010
8010
8010
8010
8010
4020
4020
2040
F0F0
F0F0
ENDCHAR
STARTCHAR 212B
ENCODING 8491
SWIDTH 668 0
DWIDTH 13 0
BBX 13 17 0 0
BITMAP
0700
0880
0880
0700
0700
0500
0D80
0880
18C0
18C0
1040
3060
3FE0
6030
6030
6030
C018
ENDCHAR
STARTCHAR 2153
ENCODING 8531
SWIDTH 925 0
DWIDTH 18 0
BBX 15 14 1 0
BITMAP
2008
6010
A010
2020
2040
2040
209C
F8A2
0102
011C
0206
0402
0422
083C
ENDCHAR
STARTCHAR 2154
ENCODING 8532
SWIDTH 925 0
DWIDTH 18 0
BBX 15 14 1 0
BITMAP
7008
8810
0810
0820
1040
2040
409C
F8A2
0102
011C
0206
0402
0422
083C
ENDCHAR
STARTCHAR 215B
ENCODING 8539
SWIDTH 925 0
DWIDTH 18 0
BBX 15 14 1 0
BITMAP
2010
6020
A020
2040
2080
2080
211C
F922
0222
021C
0436
0822
0822
101C
ENDCHAR
STARTCHAR 215C
ENCODING 8540
SWIDTH 977 0
DWIDTH 19 0
BBX 16 14 1 0
BITMAP
7008
8810
0810
7020
1840
0840
888E
F091
0111
010E
021B
0411
0411
080E
ENDCHAR
STARTCHAR 215D
ENCODING 8541
SWIDTH 977 0
DWIDTH 19 0
BBX 16 14 1 0
BITMAP
F808
8010
8010
F020
0840
0840
888E
F091
0111
010E
021B
0411
0411
080E
ENDCHAR
STARTCHAR 215E
ENCODING 8542
SWIDTH 874 0
DWIDTH 17 0
BBX 14 14 2 0
BITMAP
F840
1880
1080
3100
2200
2200
6438
4444
0844
0838
106C
2044
2044
4038
ENDCHAR
STARTCHAR 2160
ENCODING 8544
SWIDTH 925 0
DWIDTH 18 0
BBX 7 14 5 0
BITMAP
FE
FE
10
10
10
10
10
10
10
10
10
10
FE
FE
ENDCHAR
STARTCHAR 2161
ENCODING 8545
SWIDTH 925 0
DWIDTH 18 0
BBX 12 14 3 0
BITMAP
FFF0
FFF0
2040
2040
2040
2040
2040
2040
2040
2040
2040
2040
FFF0
FFF0
ENDCHAR
STARTCHAR 2162
ENCODING 8546
SWIDTH 925 0
DWIDTH 18 0
BBX 15 14 1 0
BITMAP
FFFE
FFFE
2108
2108
2108
2108
2108
2108
2108
2108
2108
2108
FFFE
FFFE
ENDCHAR
STARTCHAR 2163
ENCODING 8547
SWIDTH 925 0
DWIDTH 18 0
BBX 16 14 1 0
BITMAP
E401
E202
4202
4202
4104
4104
4104
4088
4088
40C8
4050
4050
E070
E020
ENDCHAR
STARTCHAR 2164
ENCODING 8548
SWIDTH 925 0
DWIDTH 18 0
BBX 12 14 3 0
BITMAP
8010
8010
4020
4020
2020
2040
1040
1080
0880
0880
0D00
0500
0700
0200
ENDCHAR
STARTCHAR 2165
ENCODING 8549
SWIDTH 925 0
DWIDTH 18 0
BBX 16 14 1 0
BITMAP
8027
4027
4062
4042
20C2
2082
2082
1182
1102
1902
0A02
0A02
0E07
0407
ENDCHAR
STARTCHAR 2166
ENCODING 8550
SWIDTH 925 0
DWIDTH 18 0
BBX 16 14 1 0
BITMAP
817F
817F
4222
4222
4222
2222
2222
2422
2422
1422
1422
1422
087F
087F
ENDCHAR
STARTCHAR 2167
ENCODING 8551
SWIDTH 925 0
DWIDTH 18 0
BBX 17 14 0 0
BITMAP
81FF80
81FF80
424900
424900
424900
444900
444900
244900
2C4900
284900
284900
284900
10FF80
10FF80
ENDCHAR
STARTCHAR 2168
ENCODING 8552
SWIDTH 925 0
DWIDTH 18 0
BBX 16 14 1 0
BITMAP
F603
F306
4104
418C
40D8
40D0
4070
4070
40D0
4098
418C
410C
F306
F603
ENDCHAR
STARTCHAR 2169
ENCODING 8553
SWIDTH 925 0
DWIDTH 18 0
BBX 10 14 4 0
BITMAP
C0C0
6180
6180
3300
3200
1E00
0C00
0C00
1600
3300
2300
6180
4180
C0C0
ENDCHAR
STARTCHAR 2170
ENCODING 8560
SWIDTH 925 0
DWIDTH 18 0
BBX 2 14 8 0
BITMAP
C0
C0
00
00
80
80
80
80
80
80
80
80
80
80
ENDCHAR
STARTCHAR 2171
ENCODING 8561
SWIDTH 925 0
DWIDTH 18 0
BBX 8 14 5 0
BITMAP
C3
C3
00
00
81
81
81
81
81
81
81
81
81
81
ENDCHAR
STARTCHAR 2172
ENCODING 8562
SWIDTH 925 0
DWIDTH 18 0
BBX 12 14 3 0
BITMAP
C630
C630
0000
0000
8420
8420
8420
8420
8420
8420
8420
8420
8420
8420
ENDCHAR
STARTCHAR 2173
ENCODING 8563
SWIDTH 925 0
DWIDTH 18 0
BBX 13 14 3 0
BITMAP
C000
C000
0000
0000
9818
8830
8C30
8C20
8460
8640
82C0
8280
8280
8100
ENDCHAR
STARTCHAR 2174
ENCODING 8564
SWIDTH 925 0
DWIDTH 18 0
BBX 10 10 4 0
BITMAP
C0C0
C080
6180
6100
2300
3200
1600
1400
1C00
0800
ENDCHAR
STARTCHAR 2175
ENCODING 8565
SWIDTH 925 0
DWIDTH 18 0
BBX 13 14 2 0
BITMAP
0018
0018
0000
0000
C190
4110
6310
6310
2210
3610
1410
1410
1C10
0810
ENDCHAR
STARTCHAR 2176
ENCODING 8566
SWIDTH 925 0
DWIDTH 18 0
BBX 15 14 1 0
BITMAP
0066
0066
0000
0000
C342
C242
4642
6642
6442
2C42
2842
2842
1842
1042
ENDCHAR
STARTCHAR 2177
ENCODING 8567
SWIDTH 925 0
DWIDTH 18 0
BBX 17 14 0 0
BITMAP
00D980
00D980
000000
000000
828900
828900
448900
448900
448900
288900
288900
288900
308900
108900
ENDCHAR
STARTCHAR 2178
ENCODING 8568
SWIDTH 925 0
DWIDTH 18 0
BBX 13 14 3 0
BITMAP
C000
C000
0000
0000
8C18
8630
8220
8360
81C0
81C0
8360
8260
8630
8C18
ENDCHAR
STARTCHAR 2179
ENCODING 8569
SWIDTH 925 0
DWIDTH 18 0
BBX 8 10 5 0
BITMAP
C3
66
66
34
18
18
3C
66
66
C3
ENDCHAR
STARTCHAR 2190
ENCODING 8592
SWIDTH 925 0
DWIDTH 18 0
BBX 15 7 1 2
BITMAP
0800
1000
2000
FFFE
2000
1000
0800
ENDCHAR
STARTCHAR 2191
ENCODING 8593
SWIDTH 925 0
DWIDTH 18 0
BBX 7 15 5 -2
BITMAP
10
10
38
54
92
10
10
10
10
10
10
10
10
10
10
ENDCHAR
STARTCHAR 2192
ENCODING 8594
SWIDTH 925 0
DWIDTH 18 0
BBX 16 7 1 2
BITMAP
0010
0008
0004
FFFF
0004
0008
0010
ENDCHAR
STARTCHAR 2193
ENCODING 8595
SWIDTH 925 0
DWIDTH 18 0
BBX 7 15 5 -2
BITMAP
10
10
10
10
10
10
10
10
10
10
92
54
38
10
10
ENDCHAR
STARTCHAR 2194
ENCODING 8596
SWIDTH 925 0
DWIDTH 18 0
BBX 16 7 1 2
BITMAP
0810
1008
2004
FFFF
2004
1008
0810
ENDCHAR
STARTCHAR 2195
ENCODING 8597
SWIDTH 925 0
DWIDTH 18 0
BBX 7 15 5 -2
BITMAP
10
10
38
54
92
10
10
10
10
10
92
54
38
10
10
ENDCHAR
STARTCHAR 2196
ENCODING 8598
SWIDTH 925 0
DWIDTH 18 0
BBX 12 12 3 0
BITMAP
8000
7C00
6000
5000
4800
4400
0200
0100
0080
0040
0020
0010
ENDCHAR
STARTCHAR 2197
ENCODING 8599
SWIDTH 925 0
DWIDTH 18 0
BBX 12 12 3 0
BITMAP
0010
03E0
0060
00A0
0120
0220
0400
0800
1000
2000
4000
8000
ENDCHAR
STARTCHAR 2198
ENCODING 8600
SWIDTH 925 0
DWIDTH 18 0
BBX 12 12 3 0
BITMAP
8000
4000
2000
1000
0800
0400
0220
0120
00A0
0060
03E0
0010
ENDCHAR
STARTCHAR 2199
ENCODING 8601
SWIDTH 925 0
DWIDTH 18 0
BBX 12 12 3 0
BITMAP
0010
0020
0040
0080
0100
0200
4400
4800
5000
6000
7C00
8000
ENDCHAR
STARTCHAR 21D2
ENCODING 8658
SWIDTH 925 0
DWIDTH 18 0
BBX 16 9 1 1
BITMAP
0010
0010
FFF8
0004
0003
0004
FFF8
0010
0010
ENDCHAR
STARTCHAR 21D4
ENCODING 8660
SWIDTH 925 0
DWIDTH 18 0
BBX 18 9 0 1
BITMAP
040800
0C0C00
1FFE00
300300
C000C0
300300
1FFE00
0C0C00
040800
ENDCHAR
STARTCHAR 2200
ENCODING 8704
SWIDTH 668 0
DWIDTH 13 0
BBX 13 14 0 0
BITMAP
C018
6030
6030
6030
3FE0
3060
30C0
18C0
1880
1980
0980
0F00
0F00
0600
ENDCHAR
STARTCHAR 2202
ENCODING 8706
SWIDTH 514 0
DWIDTH 10 0
BBX 8 14 1 0
BITMAP
1C
3E
23
01
1D
3D
63
C1
81
82
82
C6
7C
78
ENDCHAR
STARTCHAR 2203
ENCODING 8707
SWIDTH 514 0
DWIDTH 10 0
BBX 7 14 1 0
BITMAP
FE
02
02
02
02
02
02
7E
02
02
02
02
02
FE
ENDCHAR
STARTCHAR 2207
ENCODING 8711
SWIDTH 720 0
DWIDTH 14 0
BBX 12 14 1 0
BITMAP
FFF0
C030
6060
6060
6060
30C0
30C0
1080
1980
1980
0900
0F00
0F00
0600
ENDCHAR
STARTCHAR 2208
ENCODING 8712
SWIDTH 925 0
DWIDTH 18 0
BBX 13 11 2 0
BITMAP
1FF8
2000
4000
8000
8000
FFF8
8000
8000
4000
2000
1FF8
ENDCHAR
STARTCHAR 220B
ENCODING 8715
SWIDTH 925 0
DWIDTH 18 0
BBX 13 11 3 0
BITMAP
FFC0
0020
0010
0008
0008
FFF8
0008
0008
0010
0020
FFC0
ENDCHAR
STARTCHAR 220F
ENCODING 8719
SWIDTH 771 0
DWIDTH 15 0
BBX 12 18 2 -4
BITMAP
FFF0
FFF0
C030
C030
C030
C030
C030
C030
C030
C030
C030
C030
C030
C030
C030
C030
C030
C030
ENDCHAR
STARTCHAR 2211
ENCODING 8721
SWIDTH 617 0
DWIDTH 12 0
BBX 12 18 0 -4
BITMAP
FFF0
FFF0
6000
3000
1800
0C00
0600
0300
0180
0300
0200
0600
0C00
1800
3000
6000
FFF0
FFF0
ENDCHAR
STARTCHAR 2219
ENCODING 8729
SWIDTH 308 0
DWIDTH 6 0
BBX 3 3 2 4
BITMAP
E0
E0
E0
ENDCHAR
STARTCHAR 221A
ENCODING 8730
SWIDTH 668 0
DWIDTH 13 0
BBX 10 15 1 0
BITMAP
0040
0040
0080
0080
0080
0080
C100
2100
2100
1200
1200
0A00
0A00
0C00
0400
ENDCHAR
STARTCHAR 221D
ENCODING 8733
SWIDTH 822 0
DWIDTH 16 0
BBX 12 7 2 2
BITMAP
3870
4680
8300
8100
8300
4480
3870
ENDCHAR
STARTCHAR 221E
ENCODING 8734
SWIDTH 822 0
DWIDTH 16 0
BBX 14 7 1 2
BITMAP
3870
4488
8304
8304
8304
4488
3870
ENDCHAR
STARTCHAR 2220
ENCODING 8736
SWIDTH 668 0
DWIDTH 13 0
BBX 11 10 1 0
BITMAP
0060
00C0
0180
0300
0600
0C00
1800
3000
4000
FFE0
ENDCHAR
STARTCHAR 2225
ENCODING 8741
SWIDTH 668 0
DWIDTH 13 0
BBX 5 11 4 0
BITMAP
88
88
88
88
88
88
88
88
88
88
88
ENDCHAR
STARTCHAR 2227
ENCODING 8743
SWIDTH 668 0
DWIDTH 13 0
BBX 9 8 2 2
BITMAP
0400
0E00
1A00
1200
2100
6100
4080
8080
ENDCHAR
STARTCHAR 2228
ENCODING 8744
SWIDTH 668 0
DWIDTH 13 0
BBX 9 8 2 2
BITMAP
8080
4100
4100
2200
2200
1400
1C00
0800
ENDCHAR
STARTCHAR 2229
ENCODING 8745
SWIDTH 925 0
DWIDTH 18 0
BBX 11 12 3 0
BITMAP
1F00
60C0
4040
8020
8020
8020
8020
8020
8020
8020
8020
8020
ENDCHAR
STARTCHAR 222A
ENCODING 8746
SWIDTH 925 0
DWIDTH 18 0
BBX 11 12 4 0
BITMAP
8020
8020
8020
8020
8020
8020
8020
8020
8020
4040
60C0
1F00
ENDCHAR
STARTCHAR 222B
ENCODING 8747
SWIDTH 514 0
DWIDTH 10 0
BBX 7 19 1 -4
BITMAP
0E
1E
10
10
10
10
10
10
10
10
10
10
10
10
10
10
10
F0
E0
ENDCHAR
STARTCHAR 222C
ENCODING 8748
SWIDTH 925 0
DWIDTH 18 0
BBX 14 19 2 -4
BITMAP
0E1C
1830
1020
1020
1020
1020
1020
1020
1020
1020
1020
1020
1020
1020
1020
1020
1020
3060
E1C0
ENDCHAR
STARTCHAR 222E
ENCODING 8750
SWIDTH 514 0
DWIDTH 10 0
BBX 8 19 1 -4
BITMAP
06
08
08
08
08
3C
6A
C9
89
89
89
C9
6A
3C
08
08
08
18
70
ENDCHAR
STARTCHAR 2234
ENCODING 8756
SWIDTH 668 0
DWIDTH 13 0
BBX 11 10 1 0
BITMAP
0600
0600
0000
0000
0000
0000
0000
0000
C060
C060
ENDCHAR
STARTCHAR 2235
ENCODING 8757
SWIDTH 668 0
DWIDTH 13 0
BBX 11 10 1 0
BITMAP
C060
C060
0000
0000
0000
0000
0000
0000
0600
0600
ENDCHAR
STARTCHAR 223C
ENCODING 8764
SWIDTH 668 0
DWIDTH 13 0
BBX 9 3 2 4
BITMAP
7080
8880
8700
ENDCHAR
STARTCHAR 223D
ENCODING 8765
SWIDTH 668 0
DWIDTH 13 0
BBX 9 3 2 4
BITMAP
8700
8880
7080
ENDCHAR
STARTCHAR 2252
ENCODING 8786
SWIDTH 668 0
DWIDTH 13 0
BBX 9 11 2 0
BITMAP
C000
C000
0000
FF80
0000
0000
0000
FF80
0000
0180
0180
ENDCHAR
STARTCHAR 2260
ENCODING 8800
SWIDTH 668 0
DWIDTH 13 0
BBX 9 11 2 0
BITMAP
0100
0200
0200
FF80
0400
0800
0800
FF80
2000
2000
4000
ENDCHAR
STARTCHAR 2261
ENCODING 8801
SWIDTH 668 0
DWIDTH 13 0
BBX 9 7 2 2
BITMAP
FF80
0000
0000
FF80
0000
0000
FF80
ENDCHAR
STARTCHAR 2264
ENCODING 8804
SWIDTH 668 0
DWIDTH 13 0
BBX 9 12 3 0
BITMAP
0080
0300
0C00
3800
6000
E000
3800
0C00
0300
0080
0000
FF80
ENDCHAR
STARTCHAR 2265
ENCODING 8805
SWIDTH 668 0
DWIDTH 13 0
BBX 9 12 1 0
BITMAP
8000
6000
1800
0E00
0300
0380
0E00
1800
6000
8000
0000
FF80
ENDCHAR
STARTCHAR 226A
ENCODING 8810
SWIDTH 925 0
DWIDTH 18 0
BBX 14 9 2 2
BITMAP
0104
0618
1860
71C0
C300
71C0
1860
0618
0104
ENDCHAR
STARTCHAR 226B
ENCODING 8811
SWIDTH 925 0
DWIDTH 18 0
BBX 14 9 2 2
BITMAP
8200
6180
1860
0E38
030C
0E38
1860
6180
8200
ENDCHAR
STARTCHAR 2282
ENCODING 8834
SWIDTH 925 0
DWIDTH 18 0
BBX 13 11 2 0
BITMAP
1FF8
2000
4000
8000
8000
8000
8000
8000
4000
2000
1FF8
ENDCHAR
STARTCHAR 2283
ENCODING 8835
SWIDTH 925 0
DWIDTH 18 0
BBX 13 11 3 0
BITMAP
FFC0
0030
0010
0008
0008
0008
0008
0008
0010
0020
FFC0
ENDCHAR
STARTCHAR 2286
ENCODING 8838
SWIDTH 925 0
DWIDTH 18 0
BBX 13 11 2 0
BITMAP
3FF8
4000
8000
8000
8000
8000
4000
3FF8
0000
0000
FFF8
ENDCHAR
STARTCHAR 2287
ENCODING 8839
SWIDTH 925 0
DWIDTH 18 0
BBX 13 11 3 0
BITMAP
FFE0
0010
0008
0008
0008
0008
0010
FFE0
0000
0000
FFF8
ENDCHAR
STARTCHAR 2299
ENCODING 8857
SWIDTH 925 0
DWIDTH 18 0
BBX 12 12 3 -1
BITMAP
0F00
30C0
4020
4020
8010
8610
8610
8010
4020
4020
30C0
0F00
ENDCHAR
STARTCHAR 22A5
ENCODING 8869
SWIDTH 925 0
DWIDTH 18 0
BBX 13 11 2 0
BITMAP
0200
0200
0200
0200
0200
0200
0200
0200
0200
0200
FFF8
ENDCHAR
STARTCHAR 2312
ENCODING 8978
SWIDTH 925 0
DWIDTH 18 0
BBX 12 6 3 0
BITMAP
0F00
30C0
4020
4020
8010
8010
ENDCHAR
STARTCHAR 2460
ENCODING 9312
SWIDTH 977 0
DWIDTH 19 0
BBX 17 17 1 -3
BITMAP
03E000
0C1800
300600
218200
428100
408180
808080
808080
808080
808080
808080
C08180
43E100
200200
300600
0C1800
07F000
ENDCHAR
STARTCHAR 2461
ENCODING 9313
SWIDTH 977 0
DWIDTH 19 0
BBX 17 17 1 -3
BITMAP
03E000
0C1800
300600
21C200
422100
402180
802080
804080
804080
808080
810080
C20180
47E100
200200
300600
0C1800
07F000
ENDCHAR
STARTCHAR 2462
ENCODING 9314
SWIDTH 977 0
DWIDTH 19 0
BBX 17 17 1 -3
BITMAP
03E000
0C1800
300600
21C200
422100
402180
802080
81C080
806080
802080
802080
C26180
41C100
200200
300600
0C1800
07F000
ENDCHAR
STARTCHAR 2463
ENCODING 9315
SWIDTH 977 0
DWIDTH 19 0
BBX 17 17 1 -3
BITMAP
03E000
0C1800
300600
204200
40C100
414180
834080
864080
844080
8FE080
804080
C04180
404100
200200
300600
0C1800
07F000
ENDCHAR
STARTCHAR 2464
ENCODING 9316
SWIDTH 977 0
DWIDTH 19 0
BBX 17 17 1 -3
BITMAP
03E000
0C1800
300600
23E200
420100
420180
820080
83C080
806080
802080
802080
C26180
41C100
200200
300600
0C1800
07F000
ENDCHAR
STARTCHAR 2465
ENCODING 9317
SWIDTH 977 0
DWIDTH 19 0
BBX 17 17 1 -3
BITMAP
03E000
0C1800
300600
21C200
420100
460180
840080
85C080
866080
842080
842080
C26180
43C100
200200
300600
0C1800
07F000
ENDCHAR
STARTCHAR 2466
ENCODING 9318
SWIDTH 977 0
DWIDTH 19 0
BBX 17 17 1 -3
BITMAP
03E000
0C1800
300600
23F200
401100
402180
802080
804080
804080
808080
808080
C08180
410100
200200
300600
0C1800
07F000
ENDCHAR
STARTCHAR 2467
ENCODING 9319
SWIDTH 977 0
DWIDTH 19 0
BBX 17 17 1 -3
BITMAP
03E000
0C1800
300600
21E200
421100
421180
823080
81C080
81E080
821080
821080
C21180
41E100
200200
300600
0C1800
07F000
ENDCHAR
STARTCHAR 2468
ENCODING 9320
SWIDTH 977 0
DWIDTH 19 0
BBX 17 17 1 -3
BITMAP
03E000
0C1800
300600
21E200
432100
421180
821080
833080
81D080
801080
801080
C02180
41C100
200200
300600
0C1800
07F000
ENDCHAR
STARTCHAR 2469
ENCODING 9321
SWIDTH 977 0
DWIDTH 19 0
BBX 17 17 1 -3
BITMAP
03E000
0C1800
300600
247A00
4C4900
448580
848480
848480
848480
848480
848480
C44980
4E7900
200200
300600
0C1800
07F000
ENDCHAR
STARTCHAR 246A
ENCODING 9322
SWIDTH 977 0
DWIDTH 19 0
BBX 17 17 1 -3
BITMAP
03E000
0C1800
300600
242200
4C6100
442180
842080
842080
842080
842080
842080
C42180
4E7100
200200
300600
0C1800
07F000
ENDCHAR
STARTCHAR 246B
ENCODING 9323
SWIDTH 977 0
DWIDTH 19 0
BBX 17 17 1 -3
BITMAP
03E000
0C1800
300600
283200
584900
480980
880880
881880
881080
882080
886080
C8C180
5CF900
200200
300600
0C1800
07F000
ENDCHAR
STARTCHAR 246C
ENCODING 9324
SWIDTH 977 0
DWIDTH 19 0
BBX 17 17 1 -3
BITMAP
03E000
0C1800
300600
287200
588900
480980
880880
887080
881880
880880
880880
C89980
5C7100
200200
300600
0C1800
07F000
ENDCHAR
STARTCHAR 246D
ENCODING 9325
SWIDTH 977 0
DWIDTH 19 0
BBX 17 17 1 -3
BITMAP
03E000
0C1800
300600
280A00
581900
483980
882880
884880
88C880
88FC80
880880
C80980
5C0900
200200
300600
0C1800
07F000
ENDCHAR
STARTCHAR 246E
ENCODING 9326
SWIDTH 977 0
DWIDTH 19 0
BBX 17 17 1 -3
BITMAP
03E000
0C1800
300600
28FA00
588100
488180
888080
88F080
881880
880880
880880
C89980
5C7100
200200
300600
0C1800
07F000
ENDCHAR
STARTCHAR 2474
ENCODING 9332
SWIDTH 977 0
DWIDTH 19 0
BBX 17 16 1 -3
BITMAP
100400
200200
418100
428100
808080
808080
808080
808080
808080
808080
808080
C3E100
400100
400100
200200
100400
ENDCHAR
STARTCHAR 2475
ENCODING 9333
SWIDTH 977 0
DWIDTH 19 0
BBX 17 16 1 -3
BITMAP
100400
200200
40E100
411100
801080
801080
802080
802080
804080
808080
810080
C3F100
400100
400100
200200
100400
ENDCHAR
STARTCHAR 2476
ENCODING 9334
SWIDTH 977 0
DWIDTH 19 0
BBX 17 16 1 -3
BITMAP
100400
200200
41C100
422100
802080
802080
81C080
806080
802080
802080
826080
C1C100
400100
400100
200200
100400
ENDCHAR
STARTCHAR 2477
ENCODING 9335
SWIDTH 977 0
DWIDTH 19 0
BBX 17 16 1 -3
BITMAP
100400
200200
402100
406100
80A080
81A080
832080
822080
87F080
802080
802080
C02100
400100
400100
200200
100400
ENDCHAR
STARTCHAR 2478
ENCODING 9336
SWIDTH 977 0
DWIDTH 19 0
BBX 17 16 1 -3
BITMAP
100400
200200
43E100
420100
820080
820080
83C080
806080
802080
802080
826080
C1C100
400100
400100
200200
100400
ENDCHAR
STARTCHAR 2479
ENCODING 9337
SWIDTH 977 0
DWIDTH 19 0
BBX 17 16 1 -3
BITMAP
100400
200200
40E100
410100
830080
820080
82E080
833080
821080
821080
813080
C1E100
400100
400100
200200
100400
ENDCHAR
STARTCHAR 247A
ENCODING 9338
SWIDTH 977 0
DWIDTH 19 0
BBX 17 16 1 -3
BITMAP
100400
200200
43F100
401100
802080
802080
804080
804080
808080
808080
808080
C10100
400100
400100
200200
100400
ENDCHAR
STARTCHAR 247B
ENCODING 9339
SWIDTH 977 0
DWIDTH 19 0
BBX 17 16 1 -3
BITMAP
100400
200200
41E100
421100
821080
823080
81C080
81E080
821080
821080
821080
C1E100
400100
400100
200200
100400
ENDCHAR
STARTCHAR 247C
ENCODING 9340
SWIDTH 977 0
DWIDTH 19 0
BBX 17 16 1 -3
BITMAP
100400
200200
41E100
432100
821080
821080
833080
81D080
801080
801080
802080
C1C100
400100
400100
200200
100400
ENDCHAR
STARTCHAR 247D
ENCODING 9341
SWIDTH 977 0
DWIDTH 19 0
BBX 17 16 1 -3
BITMAP
100400
200200
487900
584900
888480
888480
888480
888480
888480
888480
884880
DC7900
400100
400100
200200
100400
ENDCHAR
STARTCHAR 247E
ENCODING 9342
SWIDTH 977 0
DWIDTH 19 0
BBX 17 16 1 -3
BITMAP
100400
200200
481100
583100
881080
881080
881080
881080
881080
881080
881080
DC3900
400100
400100
200200
100400
ENDCHAR
STARTCHAR 247F
ENCODING 9343
SWIDTH 977 0
DWIDTH 19 0
BBX 17 16 1 -3
BITMAP
100400
200200
483100
584900
880880
880880
881880
881080
882080
886080
88C080
DCF900
400100
400100
200200
100400
ENDCHAR
STARTCHAR 2480
ENCODING 9344
SWIDTH 977 0
DWIDTH 19 0
BBX 17 16 1 -3
BITMAP
100400
200200
487100
588900
880880
880880
887080
881880
880880
880880
889880
DC7100
400100
400100
200200
100400
ENDCHAR
STARTCHAR 2481
ENCODING 9345
SWIDTH 977 0
DWIDTH 19 0
BBX 17 16 1 -3
BITMAP
100400
200200
480900
581900
883880
882880
884880
88C880
88FC80
880880
880880
DC0900
400100
400100
200200
100400
ENDCHAR
STARTCHAR 2482
ENCODING 9346
SWIDTH 977 0
DWIDTH 19 0
BBX 17 16 1 -3
BITMAP
100400
200200
48F900
588100
888080
888080
88F080
881880
880880
880880
889880
DC7100
400100
400100
200200
100400
ENDCHAR
STARTCHAR 249C
ENCODING 9372
SWIDTH 977 0
DWIDTH 19 0
BBX 17 16 1 -3
BITMAP
100400
200200
400100
400100
81C080
822080
802080
81E080
862080
842080
846080
C3A100
400100
400100
200200
100400
ENDCHAR
STARTCHAR 249D
ENCODING 9373
SWIDTH 977 0
DWIDTH 19 0
BBX 17 16 1 -3
BITMAP
100400
220200
420100
420100
82F080
831080
820880
820880
820880
820880
831080
C2E100
400100
400100
200200
100400
ENDCHAR
STARTCHAR 249E
ENCODING 9374
SWIDTH 977 0
DWIDTH 19 0
BBX 17 16 1 -3
BITMAP
100400
200200
400100
400100
81C080
822080
840080
840080
840080
840080
822080
C1C100
400100
400100
200200
100400
ENDCHAR
STARTCHAR 249F
ENCODING 9375
SWIDTH 977 0
DWIDTH 19 0
BBX 17 16 1 -3
BITMAP
100400
201200
401100
401100
81D080
823080
841080
841080
841080
841080
823080
C1D100
400100
400100
200200
100400
ENDCHAR
STARTCHAR 24A0
ENCODING 9376
SWIDTH 977 0
DWIDTH 19 0
BBX 17 16 1 -3
BITMAP
100400
200200
400100
400100
81E080
823080
841080
87F080
840080
840080
821080
C1E100
400100
400100
200200
100400
ENDCHAR
STARTCHAR 24A1
ENCODING 9377
SWIDTH 977 0
DWIDTH 19 0
BBX 17 16 1 -3
BITMAP
100400
200200
40C100
410100
810080
83C080
810080
810080
810080
810080
810080
C10100
400100
400100
200200
100400
ENDCHAR
STARTCHAR 24A2
ENCODING 9378
SWIDTH 977 0
DWIDTH 19 0
BBX 17 16 1 -3
BITMAP
100400
200200
400100
400100
81F080
823080
841080
841080
841080
863080
83D080
C01100
422100
41C100
200200
100400
ENDCHAR
STARTCHAR 24A3
ENCODING 9379
SWIDTH 977 0
DWIDTH 19 0
BBX 17 16 1 -3
BITMAP
100400
220200
420100
420100
82E080
833080
821080
821080
821080
821080
821080
C21100
400100
400100
200200
100400
ENDCHAR
STARTCHAR 24A4
ENCODING 9380
SWIDTH 977 0
DWIDTH 19 0
BBX 17 16 1 -3
BITMAP
100400
20C200
40C100
400100
808080
808080
808080
808080
808080
808080
808080
C08100
400100
400100
200200
100400
ENDCHAR
STARTCHAR 24A5
ENCODING 9381
SWIDTH 977 0
DWIDTH 19 0
BBX 17 16 1 -3
BITMAP
100400
20C200
40C100
400100
808080
808080
808080
808080
808080
808080
808080
C18100
470100
400100
200200
100400
ENDCHAR
STARTCHAR 24A6
ENCODING 9382
SWIDTH 977 0
DWIDTH 19 0
BBX 17 16 1 -3
BITMAP
100400
220200
420100
420100
823080
826080
82C080
838080
838080
82C080
826080
C23100
400100
400100
200200
100400
ENDCHAR
STARTCHAR 24A7
ENCODING 9383
SWIDTH 977 0
DWIDTH 19 0
BBX 17 16 1 -3
BITMAP
100400
218200
408100
408100
808080
808080
808080
808080
808080
808080
808080
C1C100
400100
400100
200200
100400
ENDCHAR
STARTCHAR 24A8
ENCODING 9384
SWIDTH 977 0
DWIDTH 19 0
BBX 17 16 1 -3
BITMAP
100400
200200
400100
400100
8BB880
8CE480
884480
884480
884480
884480
884480
C84500
400100
400100
200200
100400
ENDCHAR
STARTCHAR 24A9
ENCODING 9385
SWIDTH 977 0
DWIDTH 19 0
BBX 17 16 1 -3
BITMAP
100400
200200
400100
400100
82E080
833080
821080
821080
821080
821080
821080
C21100
400100
400100
200200
100400
ENDCHAR
STARTCHAR 24AA
ENCODING 9386
SWIDTH 977 0
DWIDTH 19 0
BBX 17 16 1 -3
BITMAP
100400
200200
400100
400100
81E080
821080
840880
840880
840880
840880
821080
C1E100
400100
400100
200200
100400
ENDCHAR
STARTCHAR 24AB
ENCODING 9387
SWIDTH 977 0
DWIDTH 19 0
BBX 17 16 1 -3
BITMAP
100400
200200
400100
400100
85E080
862080
841080
841080
841080
841080
862080
C5C100
440100
440100
200200
100400
ENDCHAR
STARTCHAR 24AC
ENCODING 9388
SWIDTH 977 0
DWIDTH 19 0
BBX 17 16 1 -3
BITMAP
100400
200200
400100
400100
81D080
823080
841080
841080
841080
841080
823080
C1D100
401100
401100
200200
100400
ENDCHAR
STARTCHAR 24AD
ENCODING 9389
SWIDTH 977 0
DWIDTH 19 0
BBX 17 16 1 -3
BITMAP
100400
200200
400100
400100
816080
818080
810080
810080
810080
810080
810080
C10100
400100
400100
200200
100400
ENDCHAR
STARTCHAR 24AE
ENCODING 9390
SWIDTH 977 0
DWIDTH 19 0
BBX 17 16 1 -3
BITMAP
100400
200200
400100
400100
80E080
812080
810080
818080
806080
802080
812080
C0C100
400100
400100
200200
100400
ENDCHAR
STARTCHAR 24AF
ENCODING 9391
SWIDTH 977 0
DWIDTH 19 0
BBX 17 16 1 -3
BITMAP
100400
200200
410100
410100
83C080
810080
810080
810080
810080
810080
810080
C0C100
400100
400100
200200
100400
ENDCHAR
STARTCHAR 24B0
ENCODING 9392
SWIDTH 977 0
DWIDTH 19 0
BBX 17 16 1 -3
BITMAP
100400
200200
400100
400100
821080
821080
821080
821080
821080
821080
833080
C1D100
400100
400100
200200
100400
ENDCHAR
STARTCHAR 24B1
ENCODING 9393
SWIDTH 977 0
DWIDTH 19 0
BBX 17 16 1 -3
BITMAP
100400
200200
400100
400100
840880
821080
821080
811080
812080
80A080
80E080
C04100
400100
400100
200200
100400
ENDCHAR
STARTCHAR 24B2
ENCODING 9394
SWIDTH 977 0
DWIDTH 19 0
BBX 17 16 1 -3
BITMAP
100400
200200
400100
400100
884480
88C480
84A880
84A880
852880
852880
831080
C21100
400100
400100
200200
100400
ENDCHAR
STARTCHAR 24B3
ENCODING 9395
SWIDTH 977 0
DWIDTH 19 0
BBX 17 16 1 -3
BITMAP
100400
200200
400100
400100
861880
833080
81A080
80C080
80C080
81E080
833080
C61900
400100
400100
200200
100400
ENDCHAR
STARTCHAR 24B4
ENCODING 9396
SWIDTH 977 0
DWIDTH 19 0
BBX 17 16 1 -3
BITMAP
100400
200200
400100
400100
860880
831080
831080
812080
81A080
80E080
80C080
C0C100
408100
470100
200200
100400
ENDCHAR
STARTCHAR 24B5
ENCODING 9397
SWIDTH 977 0
DWIDTH 19 0
BBX 17 16 1 -3
BITMAP
100400
200200
400100
400100
83F080
802080
806080
80C080
80C080
818080
810080
C3F100
400100
400100
200200
100400
ENDCHAR
STARTCHAR 24D0
ENCODING 9424
SWIDTH 977 0
DWIDTH 19 0
BBX 17 17 1 -3
BITMAP
03E000
0C1800
300600
200200
400100
41C180
822080
802080
81E080
862080
842080
C46180
43A100
200200
300600
0C1800
07F000
ENDCHAR
STARTCHAR 24D1
ENCODING 9425
SWIDTH 977 0
DWIDTH 19 0
BBX 17 17 1 -3
BITMAP
03E000
0C1800
320600
220200
420100
42F180
831080
820880
820880
820880
820880
C31180
42E100
200200
300600
0C1800
07F000
ENDCHAR
STARTCHAR 24D2
ENCODING 9426
SWIDTH 977 0
DWIDTH 19 0
BBX 17 17 1 -3
BITMAP
03E000
0C1800
300600
200200
400100
41C180
822080
840080
840080
840080
840080
C22180
41C100
200200
300600
0C1800
07F000
ENDCHAR
STARTCHAR 24D3
ENCODING 9427
SWIDTH 977 0
DWIDTH 19 0
BBX 17 17 1 -3
BITMAP
03E000
0C1800
302600
202200
402100
43A180
846080
882080
882080
882080
882080
C46180
43A100
200200
300600
0C1800
07F000
ENDCHAR
STARTCHAR 24D4
ENCODING 9428
SWIDTH 977 0
DWIDTH 19 0
BBX 17 17 1 -3
BITMAP
03E000
0C1800
300600
200200
400100
41E180
823080
841080
87F080
840080
840080
C21180
41E100
200200
300600
0C1800
07F000
ENDCHAR
STARTCHAR 24D5
ENCODING 9429
SWIDTH 977 0
DWIDTH 19 0
BBX 17 17 1 -3
BITMAP
03E000
0C1800
300600
20C200
410100
410180
83C080
810080
810080
810080
810080
C10180
410100
200200
300600
0C1800
07F000
ENDCHAR
STARTCHAR 24D6
ENCODING 9430
SWIDTH 977 0
DWIDTH 19 0
BBX 17 17 1 -3
BITMAP
03E000
0C1800
300600
200200
400100
41F180
823080
841080
841080
841080
863080
C3D180
401100
222200
31C600
0C1800
07F000
ENDCHAR
STARTCHAR 24D7
ENCODING 9431
SWIDTH 977 0
DWIDTH 19 0
BBX 17 17 1 -3
BITMAP
03E000
0C1800
320600
220200
420100
42E180
833080
821080
821080
821080
821080
C21180
421100
200200
300600
0C1800
07F000
ENDCHAR
STARTCHAR 24D8
ENCODING 9432
SWIDTH 977 0
DWIDTH 19 0
BBX 17 17 1 -3
BITMAP
03E000
0C1800
30C600
20C200
400100
408180
808080
808080
808080
808080
808080
C08180
408100
200200
300600
0C1800
07F000
ENDCHAR
STARTCHAR 24D9
ENCODING 9433
SWIDTH 977 0
DWIDTH 19 0
BBX 17 17 1 -3
BITMAP
03E000
0C1800
30C600
20C200
400100
408180
808080
808080
808080
808080
808080
C08180
418100
270200
300600
0C1800
07F000
ENDCHAR
STARTCHAR 24DA
ENCODING 9434
SWIDTH 977 0
DWIDTH 19 0
BBX 17 17 1 -3
BITMAP
03E000
0C1800
320600
220200
420100
423180
826080
82C080
838080
838080
82C080
C26180
423100
200200
300600
0C1800
07F000
ENDCHAR
STARTCHAR 24DB
ENCODING 9435
SWIDTH 977 0
DWIDTH 19 0
BBX 17 17 1 -3
BITMAP
03E000
0C1800
318600
208200
408100
408180
808080
808080
808080
808080
808080
C08180
41C100
200200
300600
0C1800
07F000
ENDCHAR
STARTCHAR 24DC
ENCODING 9436
SWIDTH 977 0
DWIDTH 19 0
BBX 17 17 1 -3
BITMAP
03E000
0C1800
300600
200200
400100
4BB980
8CE480
884480
884480
884480
884480
C84580
484500
200200
300600
0C1800
07F000
ENDCHAR
STARTCHAR 24DD
ENCODING 9437
SWIDTH 977 0
DWIDTH 19 0
BBX 17 17 1 -3
BITMAP
03E000
0C1800
300600
200200
400100
42E180
833080
821080
821080
821080
821080
C21180
421100
200200
300600
0C1800
07F000
ENDCHAR
STARTCHAR 24DE
ENCODING 9438
SWIDTH 977 0
DWIDTH 19 0
BBX 17 17 1 -3
BITMAP
03E000
0C1800
300600
200200
400100
41E180
821080
840880
840880
840880
840880
C21180
41E100
200200
300600
0C1800
07F000
ENDCHAR
STARTCHAR 24DF
ENCODING 9439
SWIDTH 977 0
DWIDTH 19 0
BBX 17 17 1 -3
BITMAP
03E000
0C1800
300600
200200
400100
42F180
831080
820880
820880
820880
820880
C31180
42E100
220200
320600
0C1800
07F000
ENDCHAR
STARTCHAR 24E0
ENCODING 9440
SWIDTH 977 0
DWIDTH 19 0
BBX 17 17 1 -3
BITMAP
03E000
0C1800
300600
200200
400100
41D180
823080
841080
841080
841080
841080
C23180
41D100
201200
301600
0C1800
07F000
ENDCHAR
STARTCHAR 24E1
ENCODING 9441
SWIDTH 977 0
DWIDTH 19 0
BBX 17 17 1 -3
BITMAP
03E000
0C1800
300600
200200
400100
416180
818080
810080
810080
810080
810080
C10180
410100
200200
300600
0C1800
07F000
ENDCHAR
STARTCHAR 24E2
ENCODING 9442
SWIDTH 977 0
DWIDTH 19 0
BBX 17 17 1 -3
BITMAP
03E000
0C1800
300600
200200
400100
40E180
812080
810080
818080
806080
802080
C12180
40C100
200200
300600
0C1800
07F000
ENDCHAR
STARTCHAR 24E3
ENCODING 9443
SWIDTH 977 0
DWIDTH 19 0
BBX 17 17 1 -3
BITMAP
03E000
0C1800
300600
208200
408100
41E180
808080
808080
808080
808080
808080
C08180
406100
200200
300600
0C1800
07F000
ENDCHAR
STARTCHAR 24E4
ENCODING 9444
SWIDTH 977 0
DWIDTH 19 0
BBX 17 17 1 -3
BITMAP
03E000
0C1800
300600
200200
400100
421180
821080
821080
821080
821080
821080
C33180
41D100
200200
300600
0C1800
07F000
ENDCHAR
STARTCHAR 24E5
ENCODING 9445
SWIDTH 977 0
DWIDTH 19 0
BBX 17 17 1 -3
BITMAP
03E000
0C1800
300600
200200
400100
440980
821080
821080
811080
812080
80A080
C0E180
404100
200200
300600
0C1800
07F000
ENDCHAR
STARTCHAR 24E6
ENCODING 9446
SWIDTH 977 0
DWIDTH 19 0
BBX 17 17 1 -3
BITMAP
03E000
0C1800
300600
200200
400100
484580
88C480
84A880
84A880
852880
852880
C31180
421100
200200
300600
0C1800
07F000
ENDCHAR
STARTCHAR 24E7
ENCODING 9447
SWIDTH 977 0
DWIDTH 19 0
BBX 17 17 1 -3
BITMAP
03E000
0C1800
300600
200200
400100
461980
833080
81A080
80C080
80C080
81E080
C33180
461900
200200
300600
0C1800
07F000
ENDCHAR
STARTCHAR 24E8
ENCODING 9448
SWIDTH 977 0
DWIDTH 19 0
BBX 17 17 1 -3
BITMAP
03E000
0C1800
300600
200200
400100
460980
831080
831080
812080
81A080
80E080
C0C180
40C100
208200
370600
0C1800
07F000
ENDCHAR
STARTCHAR 24E9
ENCODING 9449
SWIDTH 977 0
DWIDTH 19 0
BBX 17 17 1 -3
BITMAP
03E000
0C1800
300600
200200
400100
43F180
802080
806080
80C080
80C080
818080
C10180
43F100
200200
300600
0C1800
07F000
ENDCHAR
STARTCHAR 2500
ENCODING 9472
SWIDTH 977 0
DWIDTH 19 0
BBX 19 1 0 5
BITMAP
FFFFE0
ENDCHAR
STARTCHAR 2501
ENCODING 9473
SWIDTH 977 0
DWIDTH 19 0
BBX 19 1 0 5
BITMAP
FFFFE0
ENDCHAR
STARTCHAR 2502
ENCODING 9474
SWIDTH 977 0
DWIDTH 19 0
BBX 1 19 9 -4
BITMAP
80
80
80
80
80
80
80
80
80
80
80
80
80
80
80
80
80
80
80
ENDCHAR
STARTCHAR 2503
ENCODING 9475
SWIDTH 977 0
DWIDTH 19 0
BBX 1 19 9 -4
BITMAP
80
80
80
80
80
80
80
80
80
80
80
80
80
80
80
80
80
80
80
ENDCHAR
STARTCHAR 250C
ENCODING 9484
SWIDTH 977 0
DWIDTH 19 0
BBX 10 10 9 -4
BITMAP
FFC0
8000
8000
8000
8000
8000
8000
8000
8000
8000
ENDCHAR
STARTCHAR 250D
ENCODING 9485
SWIDTH 977 0
DWIDTH 19 0
BBX 10 10 9 -4
BITMAP
FFC0
8000
8000
8000
8000
8000
8000
8000
8000
8000
ENDCHAR
STARTCHAR 250E
ENCODING 9486
SWIDTH 977 0
DWIDTH 19 0
BBX 10 10 9 -5
BITMAP
FFC0
8000
8000
8000
8000
8000
8000
8000
8000
8000
ENDCHAR
STARTCHAR 250F
ENCODING 9487
SWIDTH 977 0
DWIDTH 19 0
BBX 10 10 9 -4
BITMAP
FFC0
8000
8000
8000
8000
8000
8000
8000
8000
8000
ENDCHAR
STARTCHAR 2510
ENCODING 9488
SWIDTH 977 0
DWIDTH 19 0
BBX 10 10 0 -4
BITMAP
FFC0
0040
0040
0040
0040
0040
0040
0040
0040
0040
ENDCHAR
STARTCHAR 2511
ENCODING 9489
SWIDTH 977 0
DWIDTH 19 0
BBX 10 10 0 -4
BITMAP
FFC0
0040
0040
0040
0040
0040
0040
0040
0040
0040
ENDCHAR
STARTCHAR 2512
ENCODING 9490
SWIDTH 977 0
DWIDTH 19 0
BBX 10 10 0 -5
BITMAP
FFC0
0040
0040
0040
0040
0040
0040
0040
0040
0040
ENDCHAR
STARTCHAR 2513
ENCODING 9491
SWIDTH 977 0
DWIDTH 19 0
BBX 10 10 0 -4
BITMAP
FFC0
0040
0040
0040
0040
0040
0040
0040
0040
0040
ENDCHAR
STARTCHAR 2514
ENCODING 9492
SWIDTH 977 0
DWIDTH 19 0
BBX 10 10 9 5
BITMAP
8000
8000
8000
8000
8000
8000
8000
8000
8000
FFC0
ENDCHAR
STARTCHAR 2515
ENCODING 9493
SWIDTH 977 0
DWIDTH 19 0
BBX 10 10 9 5
BITMAP
8000
8000
8000
8000
8000
8000
8000
8000
8000
FFC0
ENDCHAR
STARTCHAR 2516
ENCODING 9494
SWIDTH 977 0
DWIDTH 19 0
BBX 10 10 9 5
BITMAP
8000
8000
8000
8000
8000
8000
8000
8000
8000
FFC0
ENDCHAR
STARTCHAR 2517
ENCODING 9495
SWIDTH 977 0
DWIDTH 19 0
BBX 10 10 9 5
BITMAP
8000
8000
8000
8000
8000
8000
8000
8000
8000
FFC0
ENDCHAR
STARTCHAR 2518
ENCODING 9496
SWIDTH 977 0
DWIDTH 19 0
BBX 10 10 0 5
BITMAP
0040
0040
0040
0040
0040
0040
0040
0040
0040
FFC0
ENDCHAR
STARTCHAR 2519
ENCODING 9497
SWIDTH 977 0
DWIDTH 19 0
BBX 10 10 0 5
BITMAP
0040
0040
0040
0040
0040
0040
0040
0040
0040
FFC0
ENDCHAR
STARTCHAR 251A
ENCODING 9498
SWIDTH 977 0
DWIDTH 19 0
BBX 10 10 0 5
BITMAP
0040
0040
0040
0040
0040
0040
0040
0040
0040
FFC0
ENDCHAR
STARTCHAR 251B
ENCODING 9499
SWIDTH 977 0
DWIDTH 19 0
BBX 10 10 0 5
BITMAP
0040
0040
0040
0040
0040
0040
0040
0040
0040
FFC0
ENDCHAR
STARTCHAR 251C
ENCODING 9500
SWIDTH 977 0
DWIDTH 19 0
BBX 10 19 9 -4
BITMAP
8000
8000
8000
8000
8000
8000
8000
8000
8000
FFC0
8000
8000
8000
8000
8000
8000
8000
8000
8000
ENDCHAR
STARTCHAR 251D
ENCODING 9501
SWIDTH 977 0
DWIDTH 19 0
BBX 10 19 9 -4
BITMAP
8000
8000
8000
8000
8000
8000
8000
8000
8000
FFC0
8000
8000
8000
8000
8000
8000
8000
8000
8000
ENDCHAR
STARTCHAR 251E
ENCODING 9502
SWIDTH 977 0
DWIDTH 19 0
BBX 10 19 9 -4
BITMAP
8000
8000
8000
8000
8000
8000
8000
8000
8000
FFC0
8000
8000
8000
8000
8000
8000
8000
8000
8000
ENDCHAR
STARTCHAR 251F
ENCODING 9503
SWIDTH 977 0
DWIDTH 19 0
BBX 10 19 9 -4
BITMAP
8000
8000
8000
8000
8000
8000
8000
8000
8000
FFC0
8000
8000
8000
8000
8000
8000
8000
8000
8000
ENDCHAR
STARTCHAR 2520
ENCODING 9504
SWIDTH 977 0
DWIDTH 19 0
BBX 10 19 9 -4
BITMAP
8000
8000
8000
8000
8000
8000
8000
8000
8000
FFC0
8000
8000
8000
8000
8000
8000
8000
8000
8000
ENDCHAR
STARTCHAR 2521
ENCODING 9505
SWIDTH 977 0
DWIDTH 19 0
BBX 10 19 9 -4
BITMAP
8000
8000
8000
8000
8000
8000
8000
8000
8000
FFC0
8000
8000
8000
8000
8000
8000
8000
8000
8000
ENDCHAR
STARTCHAR 2522
ENCODING 9506
SWIDTH 977 0
DWIDTH 19 0
BBX 10 19 9 -4
BITMAP
8000
8000
8000
8000
8000
8000
8000
8000
8000
FFC0
8000
8000
8000
8000
8000
8000
8000
8000
8000
ENDCHAR
STARTCHAR 2523
ENCODING 9507
SWIDTH 977 0
DWIDTH 19 0
BBX 10 19 9 -4
BITMAP
8000
8000
8000
8000
8000
8000
8000
8000
8000
FFC0
8000
8000
8000
8000
8000
8000
8000
8000
8000
ENDCHAR
STARTCHAR 2524
ENCODING 9508
SWIDTH 977 0
DWIDTH 19 0
BBX 10 19 0 -4
BITMAP
0040
0040
0040
0040
0040
0040
0040
0040
0040
FFC0
0040
0040
0040
0040
0040
0040
0040
0040
0040
ENDCHAR
STARTCHAR 2525
ENCODING 9509
SWIDTH 977 0
DWIDTH 19 0
BBX 10 19 0 -4
BITMAP
0040
0040
0040
0040
0040
0040
0040
0040
0040
FFC0
0040
0040
0040
0040
0040
0040
0040
0040
0040
ENDCHAR
STARTCHAR 2526
ENCODING 9510
SWIDTH 977 0
DWIDTH 19 0
BBX 10 19 0 -4
BITMAP
0040
0040
0040
0040
0040
0040
0040
0040
0040
FFC0
0040
0040
0040
0040
0040
0040
0040
0040
0040
ENDCHAR
STARTCHAR 2527
ENCODING 9511
SWIDTH 977 0
DWIDTH 19 0
BBX 10 19 0 -4
BITMAP
0040
0040
0040
0040
0040
0040
0040
0040
0040
FFC0
0040
0040
0040
0040
0040
0040
0040
0040
0040
ENDCHAR
STARTCHAR 2528
ENCODING 9512
SWIDTH 977 0
DWIDTH 19 0
BBX 10 19 0 -4
BITMAP
0040
0040
0040
0040
0040
0040
0040
0040
0040
FFC0
0040
0040
0040
0040
0040
0040
0040
0040
0040
ENDCHAR
STARTCHAR 2529
ENCODING 9513
SWIDTH 977 0
DWIDTH 19 0
BBX 10 19 0 -4
BITMAP
0040
0040
0040
0040
0040
0040
0040
0040
0040
FFC0
0040
0040
0040
0040
0040
0040
0040
0040
0040
ENDCHAR
STARTCHAR 252A
ENCODING 9514
SWIDTH 977 0
DWIDTH 19 0
BBX 10 19 0 -4
BITMAP
0040
0040
0040
0040
0040
0040
0040
0040
0040
FFC0
0040
0040
0040
0040
0040
0040
0040
0040
0040
ENDCHAR
STARTCHAR 252B
ENCODING 9515
SWIDTH 977 0
DWIDTH 19 0
BBX 10 19 0 -4
BITMAP
0040
0040
0040
0040
0040
0040
0040
0040
0040
FFC0
0040
0040
0040
0040
0040
0040
0040
0040
0040
ENDCHAR
STARTCHAR 252C
ENCODING 9516
SWIDTH 977 0
DWIDTH 19 0
BBX 19 10 0 -4
BITMAP
FFFFE0
004000
004000
004000
004000
004000
004000
004000
004000
004000
ENDCHAR
STARTCHAR 252D
ENCODING 9517
SWIDTH 977 0
DWIDTH 19 0
BBX 19 10 0 -4
BITMAP
FFFFE0
004000
004000
004000
004000
004000
004000
004000
004000
004000
ENDCHAR
STARTCHAR 252E
ENCODING 9518
SWIDTH 977 0
DWIDTH 19 0
BBX 19 10 0 -4
BITMAP
FFFFE0
004000
004000
004000
004000
004000
004000
004000
004000
004000
ENDCHAR
STARTCHAR 252F
ENCODING 9519
SWIDTH 977 0
DWIDTH 19 0
BBX 19 10 0 -4
BITMAP
FFFFE0
004000
004000
004000
004000
004000
004000
004000
004000
004000
ENDCHAR
STARTCHAR 2530
ENCODING 9520
SWIDTH 977 0
DWIDTH 19 0
BBX 19 10 0 -5
BITMAP
FFFFE0
004000
004000
004000
004000
004000
004000
004000
004000
004000
ENDCHAR
STARTCHAR 2531
ENCODING 9521
SWIDTH 977 0
DWIDTH 19 0
BBX 19 10 0 -4
BITMAP
FFFFE0
004000
004000
004000
004000
004000
004000
004000
004000
004000
ENDCHAR
STARTCHAR 2532
ENCODING 9522
SWIDTH 977 0
DWIDTH 19 0
BBX 19 10 0 -4
BITMAP
FFFFE0
004000
004000
004000
004000
004000
004000
004000
004000
004000
ENDCHAR
STARTCHAR 2533
ENCODING 9523
SWIDTH 977 0
DWIDTH 19 0
BBX 19 10 0 -4
BITMAP
FFFFE0
004000
004000
004000
004000
004000
004000
004000
004000
004000
ENDCHAR
STARTCHAR 2534
ENCODING 9524
SWIDTH 977 0
DWIDTH 19 0
BBX 19 10 0 5
BITMAP
004000
004000
004000
004000
004000
004000
004000
004000
004000
FFFFE0
ENDCHAR
STARTCHAR 2535
ENCODING 9525
SWIDTH 977 0
DWIDTH 19 0
BBX 19 10 0 5
BITMAP
004000
004000
004000
004000
004000
004000
004000
004000
004000
FFFFE0
ENDCHAR
STARTCHAR 2536
ENCODING 9526
SWIDTH 977 0
DWIDTH 19 0
BBX 19 10 0 5
BITMAP
004000
004000
004000
004000
004000
004000
004000
004000
004000
FFFFE0
ENDCHAR
STARTCHAR 2537
ENCODING 9527
SWIDTH 977 0
DWIDTH 19 0
BBX 19 10 0 5
BITMAP
004000
004000
004000
004000
004000
004000
004000
004000
004000
FFFFE0
ENDCHAR
STARTCHAR 2538
ENCODING 9528
SWIDTH 977 0
DWIDTH 19 0
BBX 19 10 0 5
BITMAP
004000
004000
004000
004000
004000
004000
004000
004000
004000
FFFFE0
ENDCHAR
STARTCHAR 2539
ENCODING 9529
SWIDTH 977 0
DWIDTH 19 0
BBX 19 10 0 5
BITMAP
004000
004000
004000
004000
004000
004000
004000
004000
004000
FFFFE0
ENDCHAR
STARTCHAR 253A
ENCODING 9530
SWIDTH 977 0
DWIDTH 19 0
BBX 19 10 0 5
BITMAP
004000
004000
004000
004000
004000
004000
004000
004000
004000
FFFFE0
ENDCHAR
STARTCHAR 253B
ENCODING 9531
SWIDTH 977 0
DWIDTH 19 0
BBX 19 10 0 5
BITMAP
004000
004000
004000
004000
004000
004000
004000
004000
004000
FFFFE0
ENDCHAR
STARTCHAR 253C
ENCODING 9532
SWIDTH 977 0
DWIDTH 19 0
BBX 19 19 0 -4
BITMAP
004000
004000
004000
004000
004000
004000
004000
004000
004000
FFFFE0
004000
004000
004000
004000
004000
004000
004000
004000
004000
ENDCHAR
STARTCHAR 253D
ENCODING 9533
SWIDTH 977 0
DWIDTH 19 0
BBX 19 19 0 -4
BITMAP
004000
004000
004000
004000
004000
004000
004000
004000
004000
FFFFE0
004000
004000
004000
004000
004000
004000
004000
004000
004000
ENDCHAR
STARTCHAR 253E
ENCODING 9534
SWIDTH 977 0
DWIDTH 19 0
BBX 19 19 0 -4
BITMAP
004000
004000
004000
004000
004000
004000
004000
004000
004000
FFFFE0
004000
004000
004000
004000
004000
004000
004000
004000
004000
ENDCHAR
STARTCHAR 253F
ENCODING 9535
SWIDTH 977 0
DWIDTH 19 0
BBX 19 19 0 -4
BITMAP
004000
004000
004000
004000
004000
004000
004000
004000
004000
FFFFE0
004000
004000
004000
004000
004000
004000
004000
004000
004000
ENDCHAR
STARTCHAR 2540
ENCODING 9536
SWIDTH 977 0
DWIDTH 19 0
BBX 19 19 0 -4
BITMAP
004000
004000
004000
004000
004000
004000
004000
004000
004000
FFFFE0
004000
004000
004000
004000
004000
004000
004000
004000
004000
ENDCHAR
STARTCHAR 2541
ENCODING 9537
SWIDTH 977 0
DWIDTH 19 0
BBX 19 19 0 -4
BITMAP
004000
004000
004000
004000
004000
004000
004000
004000
004000
FFFFE0
004000
004000
004000
004000
004000
004000
004000
004000
004000
ENDCHAR
STARTCHAR 2542
ENCODING 9538
SWIDTH 977 0
DWIDTH 19 0
BBX 19 19 0 -4
BITMAP
004000
004000
004000
004000
004000
004000
004000
004000
004000
FFFFE0
004000
004000
004000
004000
004000
004000
004000
004000
004000
ENDCHAR
STARTCHAR 2543
ENCODING 9539
SWIDTH 977 0
DWIDTH 19 0
BBX 19 19 0 -4
BITMAP
004000
004000
004000
004000
004000
004000
004000
004000
004000
FFFFE0
004000
004000
004000
004000
004000
004000
004000
004000
004000
ENDCHAR
STARTCHAR 2544
ENCODING 9540
SWIDTH 977 0
DWIDTH 19 0
BBX 19 19 0 -4
BITMAP
004000
004000
004000
004000
004000
004000
004000
004000
004000
FFFFE0
004000
004000
004000
004000
004000
004000
004000
004000
004000
ENDCHAR
STARTCHAR 2545
ENCODING 9541
SWIDTH 977 0
DWIDTH 19 0
BBX 19 19 0 -4
BITMAP
004000
004000
004000
004000
004000
004000
004000
004000
004000
FFFFE0
004000
004000
004000
004000
004000
004000
004000
004000
004000
ENDCHAR
STARTCHAR 2546
ENCODING 9542
SWIDTH 977 0
DWIDTH 19 0
BBX 19 19 0 -4
BITMAP
004000
004000
004000
004000
004000
004000
004000
004000
004000
FFFFE0
004000
004000
004000
004000
004000
004000
004000
004000
004000
ENDCHAR
STARTCHAR 2547
ENCODING 9543
SWIDTH 977 0
DWIDTH 19 0
BBX 19 19 0 -4
BITMAP
004000
004000
004000
004000
004000
004000
004000
004000
004000
FFFFE0
004000
004000
004000
004000
004000
004000
004000
004000
004000
ENDCHAR
STARTCHAR 2548
ENCODING 9544
SWIDTH 977 0
DWIDTH 19 0
BBX 19 19 0 -4
BITMAP
004000
004000
004000
004000
004000
004000
004000
004000
004000
FFFFE0
004000
004000
004000
004000
004000
004000
004000
004000
004000
ENDCHAR
STARTCHAR 2549
ENCODING 9545
SWIDTH 977 0
DWIDTH 19 0
BBX 19 19 0 -4
BITMAP
004000
004000
004000
004000
004000
004000
004000
004000
004000
FFFFE0
004000
004000
004000
004000
004000
004000
004000
004000
004000
ENDCHAR
STARTCHAR 254A
ENCODING 9546
SWIDTH 977 0
DWIDTH 19 0
BBX 19 19 0 -4
BITMAP
004000
004000
004000
004000
004000
004000
004000
004000
004000
FFFFE0
004000
004000
004000
004000
004000
004000
004000
004000
004000
ENDCHAR
STARTCHAR 254B
ENCODING 9547
SWIDTH 977 0
DWIDTH 19 0
BBX 19 19 0 -4
BITMAP
004000
004000
004000
004000
004000
004000
004000
004000
004000
FFFFE0
004000
004000
004000
004000
004000
004000
004000
004000
004000
ENDCHAR
STARTCHAR 2592
ENCODING 9618
SWIDTH 977 0
DWIDTH 19 0
BBX 17 18 1 -3
BITMAP
B69680
000000
000000
B69680
000000
000000
B69680
000000
B69680
000000
000000
B69680
000000
000000
B69680
000000
000000
B69680
ENDCHAR
STARTCHAR 25A0
ENCODING 9632
SWIDTH 977 0
DWIDTH 19 0
BBX 15 15 2 -2
BITMAP
FFFE
FFFE
FFFE
FFFE
FFFE
FFFE
FFFE
FFFE
FFFE
FFFE
FFFE
FFFE
FFFE
FFFE
FFFE
ENDCHAR
STARTCHAR 25A1
ENCODING 9633
SWIDTH 977 0
DWIDTH 19 0
BBX 15 15 2 -2
BITMAP
FFFE
8002
8002
8002
8002
8002
8002
8002
8002
8002
8002
8002
8002
8002
FFFE
ENDCHAR
STARTCHAR 25A3
ENCODING 9635
SWIDTH 977 0
DWIDTH 19 0
BBX 15 15 2 -2
BITMAP
FFFE
8002
8002
8002
9FE2
9FE2
9FE2
9FE2
9FE2
9FE2
9FE2
8002
8002
8002
FFFE
ENDCHAR
STARTCHAR 25A4
ENCODING 9636
SWIDTH 977 0
DWIDTH 19 0
BBX 15 15 2 -2
BITMAP
FFFE
8002
8002
FFFE
8002
8002
8002
FFFE
8002
8002
8002
FFFE
8002
8002
FFFE
ENDCHAR
STARTCHAR 25A5
ENCODING 9637
SWIDTH 977 0
DWIDTH 19 0
BBX 15 15 2 -2
BITMAP
FFFE
9122
9122
9122
9122
9122
9122
9122
9122
9122
9122
9122
9122
9122
FFFE
ENDCHAR
STARTCHAR 25A6
ENCODING 9638
SWIDTH 977 0
DWIDTH 19 0
BBX 15 15 2 -2
BITMAP
FFFE
9112
9112
9112
FFFE
9112
9112
FFFE
9112
9112
FFFE
9112
9112
9112
FFFE
ENDCHAR
STARTCHAR 25A7
ENCODING 9639
SWIDTH 977 0
DWIDTH 19 0
BBX 15 15 2 -2
BITMAP
FFFE
C082
A0C2
9062
8832
8412
820A
C106
A082
9042
9822
8C12
840A
8206
FFFE
ENDCHAR
STARTCHAR 25A8
ENCODING 9640
SWIDTH 977 0
DWIDTH 19 0
BBX 15 15 2 -2
BITMAP
FFFE
8206
840A
8812
9822
9042
A082
C102
8206
840A
8812
9022
A042
C082
FFFE
ENDCHAR
STARTCHAR 25A9
ENCODING 9641
SWIDTH 977 0
DWIDTH 19 0
BBX 15 15 2 -2
BITMAP
FFFE
C286
A44A
9832
9832
A44A
C286
8102
C286
A44A
9832
9872
A4CA
C386
FFFE
ENDCHAR
STARTCHAR 25B2
ENCODING 9650
SWIDTH 977 0
DWIDTH 19 0
BBX 15 12 2 0
BITMAP
0100
0180
0380
07C0
07C0
0FE0
1FF0
1FF0
3FF8
7FFC
7FFC
FFFE
ENDCHAR
STARTCHAR 25B3
ENCODING 9651
SWIDTH 977 0
DWIDTH 19 0
BBX 15 12 2 1
BITMAP
0100
0380
0280
0440
0460
0820
1010
1010
2008
4004
4004
FFFE
ENDCHAR
STARTCHAR 25B6
ENCODING 9654
SWIDTH 977 0
DWIDTH 19 0
BBX 13 15 3 -2
BITMAP
8000
6000
7800
7C00
7F00
7F80
7FE0
7FF8
7FE0
7F80
7F00
7C00
7800
6000
8000
ENDCHAR
STARTCHAR 25B7
ENCODING 9655
SWIDTH 977 0
DWIDTH 19 0
BBX 12 15 4 -2
BITMAP
8000
C000
B000
9800
8600
8180
80C0
8030
80C0
8180
8600
9800
B000
C000
8000
ENDCHAR
STARTCHAR 25BC
ENCODING 9660
SWIDTH 977 0
DWIDTH 19 0
BBX 15 12 2 0
BITMAP
FFFE
7FFC
7FFC
3FF8
1FF0
1FF0
0FE0
07C0
07C0
0380
0100
0100
ENDCHAR
STARTCHAR 25BD
ENCODING 9661
SWIDTH 977 0
DWIDTH 19 0
BBX 15 12 2 -1
BITMAP
FFFE
4004
4004
2008
1010
1010
0820
0460
0440
0280
0380
0100
ENDCHAR
STARTCHAR 25C0
ENCODING 9664
SWIDTH 977 0
DWIDTH 19 0
BBX 12 15 3 -2
BITMAP
0010
0030
00F0
01F0
07F0
0FF0
3FF0
FFF0
3FF0
0FF0
07F0
01F0
00F0
0030
0010
ENDCHAR
STARTCHAR 25C1
ENCODING 9665
SWIDTH 977 0
DWIDTH 19 0
BBX 12 15 3 -2
BITMAP
0010
0030
00D0
0190
0610
0810
3010
C010
3010
1810
0610
0190
00D0
0030
0010
ENDCHAR
STARTCHAR 25C6
ENCODING 9670
SWIDTH 977 0
DWIDTH 19 0
BBX 17 18 1 -3
BITMAP
008000
01C000
03E000
07F000
0FF800
1FFC00
3FFE00
7FFF00
FFFF80
FFFF80
7FFF00
3FFE00
1FFC00
0FF800
07F000
03E000
01C000
008000
ENDCHAR
STARTCHAR 25C7
ENCODING 9671
SWIDTH 977 0
DWIDTH 19 0
BBX 17 17 1 -3
BITMAP
008000
014000
022000
041000
080800
100400
200200
400100
800080
400100
200200
100400
080800
041000
022000
014000
008000
ENDCHAR
STARTCHAR 25C8
ENCODING 9672
SWIDTH 977 0
DWIDTH 19 0
BBX 17 17 1 -3
BITMAP
008000
014000
02A000
05D000
0BE800
17F400
27FA00
4FFD00
9FFE80
4FFD00
27FA00
17F400
0BE800
05D000
02A000
014000
008000
ENDCHAR
STARTCHAR 25CB
ENCODING 9675
SWIDTH 977 0
DWIDTH 19 0
BBX 15 16 2 -2
BITMAP
07C0
1830
2008
4004
8002
8002
8002
8002
8002
8002
8002
8002
4004
2008
1830
07C0
ENDCHAR
STARTCHAR 25CE
ENCODING 9678
SWIDTH 977 0
DWIDTH 19 0
BBX 17 17 1 -3
BITMAP
03E000
0C1800
100400
23E200
441100
480900
900480
900480
900480
900480
900480
480900
441100
23E200
100400
0C1800
03E000
ENDCHAR
STARTCHAR 25CF
ENCODING 9679
SWIDTH 977 0
DWIDTH 19 0
BBX 15 16 2 -2
BITMAP
07C0
1FF0
3FF8
7FFC
FFFE
FFFE
FFFE
FFFE
FFFE
FFFE
FFFE
FFFE
7FFC
3FF8
1FF0
07C0
ENDCHAR
STARTCHAR 25D0
ENCODING 9680
SWIDTH 977 0
DWIDTH 19 0
BBX 15 15 2 -2
BITMAP
07C0
1F30
3F08
7F04
FF02
FF02
FF02
FF02
FF02
FF02
FF02
7F04
3F08
1F30
07C0
ENDCHAR
STARTCHAR 25D1
ENCODING 9681
SWIDTH 977 0
DWIDTH 19 0
BBX 15 15 2 -2
BITMAP
07C0
19F0
21F8
41FC
81FE
81FE
81FE
81FE
81FE
81FE
81FE
41FC
21F8
19F0
07C0
ENDCHAR
STARTCHAR 2605
ENCODING 9733
SWIDTH 977 0
DWIDTH 19 0
BBX 15 15 2 -2
BITMAP
0100
0100
0100
0380
0380
0380
FFFE
3FF8
1FF0
0FE0
0FE0
0EE0
1C70
1010
0010
ENDCHAR
STARTCHAR 2606
ENCODING 9734
SWIDTH 977 0
DWIDTH 19 0
BBX 15 15 2 -2
BITMAP
0100
0100
0300
0280
0280
FC7E
4004
3018
0820
0820
0920
12A0
1C50
1030
2010
ENDCHAR
STARTCHAR 260E
ENCODING 9742
SWIDTH 977 0
DWIDTH 19 0
BBX 17 13 1 -1
BITMAP
0FF800
3FFE00
7C1700
F41780
F7F780
E43380
080800
180C00
380E00
380E00
380E00
7C3F00
7FFE00
ENDCHAR
STARTCHAR 260F
ENCODING 9743
SWIDTH 977 0
DWIDTH 19 0
BBX 18 13 0 -1
BITMAP
07FC00
180300
67FC80
4BFC40
8CEA40
7319C0
060C00
0C0A00
140A00
220900
231100
20E100
3FFF00
ENDCHAR
STARTCHAR 261C
ENCODING 9756
SWIDTH 977 0
DWIDTH 19 0
BBX 17 8 1 2
BITMAP
3FF000
FFFD80
120780
1CE180
0FD180
0FA980
074180
00FF80
ENDCHAR
STARTCHAR 261E
ENCODING 9758
SWIDTH 977 0
DWIDTH 19 0
BBX 18 8 0 2
BITMAP
03FF00
EFDFC0
B03400
A1CC00
A37400
B1B800
68F000
07E000
ENDCHAR
STARTCHAR 2640
ENCODING 9792
SWIDTH 617 0
DWIDTH 12 0
BBX 8 16 2 -3
BITMAP
3C
42
81
81
81
81
42
3C
10
10
10
FF
10
10
10
10
ENDCHAR
STARTCHAR 2642
ENCODING 9794
SWIDTH 720 0
DWIDTH 14 0
BBX 11 15 1 -1
BITMAP
00C0
07C0
0CA0
00A0
0120
0320
1E00
6300
4100
8080
8080
8080
4100
6300
1C00
ENDCHAR
STARTCHAR 2660
ENCODING 9824
SWIDTH 977 0
DWIDTH 19 0
BBX 13 17 3 -3
BITMAP
0200
0700
0F80
1FC0
3FE0
3FE0
7FF0
7FF8
FFF8
FFF8
FFF8
FFF8
7AF0
0300
0700
0780
0F80
ENDCHAR
STARTCHAR 2661
ENCODING 9825
SWIDTH 977 0
DWIDTH 19 0
BBX 15 16 2 -3
BITMAP
3C78
66C4
C286
C382
C102
C006
4006
6004
600C
3018
1010
1830
0C60
06C0
0380
0100
ENDCHAR
STARTCHAR 2663
ENCODING 9827
SWIDTH 977 0
DWIDTH 19 0
BBX 15 15 2 -2
BITMAP
0380
0FC0
0FE0
0FE0
0FE0
07C0
7BBC
FFFE
FFFE
FFFE
FD7E
793C
0300
0380
07C0
ENDCHAR
STARTCHAR 2664
ENCODING 9828
SWIDTH 977 0
DWIDTH 19 0
BBX 13 16 3 -1
BITMAP
0200
0700
0D80
1880
1040
2060
6020
4010
C018
8008
8008
CD98
7DF0
0500
0D80
0F80
ENDCHAR
STARTCHAR 2665
ENCODING 9829
SWIDTH 977 0
DWIDTH 19 0
BBX 15 16 2 -2
BITMAP
3C78
7EFC
FEFE
FFFE
FFFE
FFFE
7FFE
7FFC
7FFC
3FF8
1FF0
1FE0
0FE0
07C0
0380
0100
ENDCHAR
STARTCHAR 2667
ENCODING 9831
SWIDTH 977 0
DWIDTH 19 0
BBX 16 16 2 -2
BITMAP
03C0
0C60
0820
0820
0820
0440
7AFC
C6E2
8002
8003
8002
8282
C6E6
7ABC
02C0
07C0
ENDCHAR
STARTCHAR 2668
ENCODING 9832
SWIDTH 977 0
DWIDTH 19 0
BBX 15 16 2 -2
BITMAP
0100
05A0
0520
0960
0960
0960
0DA0
05A0
05A0
35A0
6D2C
8942
8A42
E00E
7FFC
1FF0
ENDCHAR
STARTCHAR 2669
ENCODING 9833
SWIDTH 514 0
DWIDTH 10 0
BBX 4 15 2 -2
BITMAP
10
10
10
10
10
10
10
10
10
10
10
10
70
E0
C0
ENDCHAR
STARTCHAR 266A
ENCODING 9834
SWIDTH 668 0
DWIDTH 13 0
BBX 9 16 2 -1
BITMAP
1000
1800
1C00
1E00
1700
1180
1080
1080
1080
1100
1100
1200
1000
7000
E000
C000
ENDCHAR
STARTCHAR 266C
ENCODING 9836
SWIDTH 925 0
DWIDTH 18 0
BBX 14 16 1 -1
BITMAP
003C
03FC
0FC4
0E3C
09FC
0FC4
0E04
0804
0804
0804
081C
0838
1878
7830
F000
E000
ENDCHAR
STARTCHAR 266D
ENCODING 9837
SWIDTH 565 0
DWIDTH 11 0
BBX 7 13 2 -1
BITMAP
80
80
80
80
BC
46
86
86
86
8C
88
90
60
ENDCHAR
STARTCHAR 3000
ENCODING 12288
SWIDTH 977 0
DWIDTH 19 0
BBX 0 0 0 0
BITMAP
ENDCHAR
STARTCHAR 3001
ENCODING 12289
SWIDTH 977 0
DWIDTH 19 0
BBX 3 4 2 -2
BITMAP
80
60
20
20
ENDCHAR
STARTCHAR 3002
ENCODING 12290
SWIDTH 977 0
DWIDTH 19 0
BBX 5 5 1 -3
BITMAP
70
48
88
48
70
ENDCHAR
STARTCHAR 3003
ENCODING 12291
SWIDTH 977 0
DWIDTH 19 0
BBX 5 7 7 2
BITMAP
68
48
48
50
90
90
20
ENDCHAR
STARTCHAR 3008
ENCODING 12296
SWIDTH 514 0
DWIDTH 10 0
BBX 7 16 2 -3
BITMAP
02
06
04
08
10
20
40
C0
80
40
20
30
10
08
04
02
ENDCHAR
STARTCHAR 3009
ENCODING 12297
SWIDTH 514 0
DWIDTH 10 0
BBX 7 17 1 -3
BITMAP
80
40
20
20
10
08
04
02
02
04
04
08
10
20
40
C0
80
ENDCHAR
STARTCHAR 300A
ENCODING 12298
SWIDTH 565 0
DWIDTH 11 0
BBX 8 16 2 -3
BITMAP
05
05
0A
14
14
28
48
50
90
50
28
28
14
0A
0A
05
ENDCHAR
STARTCHAR 300B
ENCODING 12299
SWIDTH 565 0
DWIDTH 11 0
BBX 8 16 1 -3
BITMAP
A0
90
50
28
24
14
0A
0A
05
0A
12
14
28
28
50
A0
ENDCHAR
STARTCHAR 300C
ENCODING 12300
SWIDTH 565 0
DWIDTH 11 0
BBX 6 10 4 5
BITMAP
FC
80
80
80
80
80
80
80
80
80
ENDCHAR
STARTCHAR 300D
ENCODING 12301
SWIDTH 565 0
DWIDTH 11 0
BBX 6 10 1 -4
BITMAP
04
04
04
04
04
04
04
04
04
FC
ENDCHAR
STARTCHAR 300E
ENCODING 12302
SWIDTH 514 0
DWIDTH 10 0
BBX 7 10 2 5
BITMAP
7E
BE
A0
A0
A0
A0
A0
A0
A0
60
ENDCHAR
STARTCHAR 300F
ENCODING 12303
SWIDTH 514 0
DWIDTH 10 0
BBX 6 10 1 -4
BITMAP
0C
14
14
14
14
14
14
14
F4
FC
ENDCHAR
STARTCHAR 3010
ENCODING 12304
SWIDTH 514 0
DWIDTH 10 0
BBX 4 16 4 -2
BITMAP
F0
F0
E0
E0
C0
C0
C0
C0
C0
C0
C0
C0
E0
E0
F0
F0
ENDCHAR
STARTCHAR 3011
ENCODING 12305
SWIDTH 514 0
DWIDTH 10 0
BBX 4 16 2 -2
BITMAP
F0
F0
70
70
70
30
30
30
30
30
30
70
70
70
F0
F0
ENDCHAR
STARTCHAR 3013
ENCODING 12307
SWIDTH 977 0
DWIDTH 19 0
BBX 19 6 0 3
BITMAP
FFFFE0
000000
000000
000000
000000
FFFFE0
ENDCHAR
STARTCHAR 3014
ENCODING 12308
SWIDTH 462 0
DWIDTH 9 0
BBX 5 18 3 -3
BITMAP
18
E0
80
80
80
80
80
80
80
80
80
80
80
80
80
80
E0
18
ENDCHAR
STARTCHAR 3015
ENCODING 12309
SWIDTH 462 0
DWIDTH 9 0
BBX 5 18 1 -3
BITMAP
E0
38
08
08
08
08
08
08
08
08
08
08
08
08
08
08
38
E0
ENDCHAR
STARTCHAR 3041
ENCODING 12353
SWIDTH 977 0
DWIDTH 19 0
BBX 10 13 5 -3
BITMAP
0800
1800
1A00
FC00
1000
1200
1F80
7480
D440
9840
B8C0
E980
0300
ENDCHAR
STARTCHAR 3042
ENCODING 12354
SWIDTH 977 0
DWIDTH 19 0
BBX 12 15 4 -2
BITMAP
0C00
0C00
0F80
F800
0800
0900
0FC0
3B60
6A30
4A30
CC10
8C30
9420
E0C0
0180
ENDCHAR
STARTCHAR 3043
ENCODING 12355
SWIDTH 977 0
DWIDTH 19 0
BBX 12 10 4 -3
BITMAP
4080
C040
8060
8020
8020
C010
4810
5800
3000
3000
ENDCHAR
STARTCHAR 3044
ENCODING 12356
SWIDTH 977 0
DWIDTH 19 0
BBX 12 13 4 -3
BITMAP
C000
8040
8040
8020
8020
8030
8010
9010
D010
5010
7000
7000
3000
ENDCHAR
STARTCHAR 3045
ENCODING 12357
SWIDTH 977 0
DWIDTH 19 0
BBX 7 11 6 0
BITMAP
20
1C
00
00
FE
02
02
02
06
0C
30
ENDCHAR
STARTCHAR 3046
ENCODING 12358
SWIDTH 977 0
DWIDTH 19 0
BBX 11 15 4 -2
BITMAP
1800
0780
0000
0000
0000
0FC0
F040
8060
0060
0040
0040
00C0
0180
0300
0400
ENDCHAR
STARTCHAR 3047
ENCODING 12359
SWIDTH 977 0
DWIDTH 19 0
BBX 10 13 5 -2
BITMAP
3000
0E00
0000
0600
7C00
0C00
1800
1800
3000
3C00
6400
C400
87C0
ENDCHAR
STARTCHAR 3048
ENCODING 12360
SWIDTH 977 0
DWIDTH 19 0
BBX 12 15 4 -1
BITMAP
3000
0F00
0000
0000
0300
FF00
0200
0400
0800
1800
1E00
3200
6200
C200
83F0
ENDCHAR
STARTCHAR 3049
ENCODING 12361
SWIDTH 977 0
DWIDTH 19 0
BBX 11 12 4 -2
BITMAP
1000
1000
1080
FE60
1020
1000
1780
1840
7040
D0C0
9380
6000
ENDCHAR
STARTCHAR 304A
ENCODING 12362
SWIDTH 977 0
DWIDTH 19 0
BBX 12 14 4 -1
BITMAP
1000
1000
9240
7C30
1010
1000
1000
17C0
1860
7020
D020
9020
9060
E380
ENDCHAR
STARTCHAR 304B
ENCODING 12363
SWIDTH 977 0
DWIDTH 19 0
BBX 14 14 3 -1
BITMAP
0800
0800
0800
1F80
7890
1088
1088
108C
3084
2084
2080
6080
4700
C000
ENDCHAR
STARTCHAR 304C
ENCODING 12364
SWIDTH 977 0
DWIDTH 19 0
BBX 15 15 3 -1
BITMAP
0804
080C
080A
0804
1F90
7898
1088
1088
108C
3084
2084
2080
6080
4700
C000
ENDCHAR
STARTCHAR 304D
ENCODING 12365
SWIDTH 977 0
DWIDTH 19 0
BBX 11 17 4 -3
BITMAP
1000
1800
0900
FE00
0420
0640
0380
7F00
0100
0180
1E80
61C0
4040
4000
4000
6080
1F00
ENDCHAR
STARTCHAR 304E
ENCODING 12366
SWIDTH 977 0
DWIDTH 19 0
BBX 12 18 4 -3
BITMAP
0020
1050
1830
0920
FE00
0420
0640
0380
7F00
0100
0180
1E80
61C0
4040
4000
4000
6080
1F00
ENDCHAR
STARTCHAR 304F
ENCODING 12367
SWIDTH 977 0
DWIDTH 19 0
BBX 8 15 5 -2
BITMAP
06
0C
18
30
60
C0
80
80
C0
60
30
18
0C
06
03
ENDCHAR
STARTCHAR 3050
ENCODING 12368
SWIDTH 977 0
DWIDTH 19 0
BBX 12 15 5 -2
BITMAP
0660
0CA0
1850
3020
6000
C000
8000
8000
C000
6000
3000
1800
0C00
0600
0300
ENDCHAR
STARTCHAR 3051
ENCODING 12369
SWIDTH 977 0
DWIDTH 19 0
BBX 12 15 4 -2
BITMAP
8040
8040
8040
8050
80E0
8F40
8040
8040
8040
8040
8040
8040
80C0
C180
4700
ENDCHAR
STARTCHAR 3052
ENCODING 12370
SWIDTH 977 0
DWIDTH 19 0
BBX 14 16 4 -2
BITMAP
0008
805C
8054
8048
8050
80E0
8F40
8040
8040
8040
8040
8040
8040
80C0
C180
4700
ENDCHAR
STARTCHAR 3053
ENCODING 12371
SWIDTH 977 0
DWIDTH 19 0
BBX 11 13 5 0
BITMAP
1F80
6000
0000
0000
0000
0000
0000
0000
C000
8000
8000
C060
7F80
ENDCHAR
STARTCHAR 3054
ENCODING 12372
SWIDTH 977 0
DWIDTH 19 0
BBX 13 14 4 1
BITMAP
0008
0018
0FD8
3008
0000
0000
0000
0000
0000
4000
C000
8000
C060
3F80
ENDCHAR
STARTCHAR 3055
ENCODING 12373
SWIDTH 977 0
DWIDTH 19 0
BBX 9 15 5 -2
BITMAP
1000
0800
0980
FE00
0400
0600
0200
3D00
C380
8080
8000
8000
8000
C100
3F00
ENDCHAR
STARTCHAR 3056
ENCODING 12374
SWIDTH 977 0
DWIDTH 19 0
BBX 12 16 5 -2
BITMAP
0020
1050
0830
0980
FE00
0400
0600
0200
3D00
C380
8080
8000
8000
8000
C100
3F00
ENDCHAR
STARTCHAR 3057
ENCODING 12375
SWIDTH 977 0
DWIDTH 19 0
BBX 10 15 5 -2
BITMAP
C000
C000
C000
C000
C000
C000
C000
C000
C040
C040
C0C0
4080
4180
6300
3E00
ENDCHAR
STARTCHAR 3058
ENCODING 12376
SWIDTH 977 0
DWIDTH 19 0
BBX 10 15 5 -2
BITMAP
C000
C100
C280
C280
C100
C100
C000
C000
C000
C040
C040
40C0
4080
6300
3E00
ENDCHAR
STARTCHAR 3059
ENCODING 12377
SWIDTH 977 0
DWIDTH 19 0
BBX 13 17 3 -2
BITMAP
0100
0100
0100
FFF8
0100
0100
0100
0F00
1100
3100
1100
0F00
0100
0100
0300
0600
1800
ENDCHAR
STARTCHAR 305A
ENCODING 12378
SWIDTH 977 0
DWIDTH 19 0
BBX 13 18 3 -3
BITMAP
0010
0130
0128
0120
FFF8
0100
0100
0100
0F00
1100
3100
1100
0F00
0100
0100
0300
0600
1800
ENDCHAR
STARTCHAR 305B
ENCODING 12379
SWIDTH 977 0
DWIDTH 19 0
BBX 13 15 3 -2
BITMAP
0040
0040
1040
1040
1040
13F8
7C40
9040
1040
1040
13C0
1000
1000
1030
1FE0
ENDCHAR
STARTCHAR 305C
ENCODING 12380
SWIDTH 977 0
DWIDTH 19 0
BBX 15 14 3 -2
BITMAP
004C
105E
1046
1040
13F8
7C40
9040
1040
1040
13C0
1000
1000
1030
1FE0
ENDCHAR
STARTCHAR 305D
ENCODING 12381
SWIDTH 977 0
DWIDTH 19 0
BBX 12 15 4 -1
BITMAP
7F80
0180
0600
0C00
1800
31F0
EFC0
F300
8400
0800
0800
0800
0800
0600
01C0
ENDCHAR
STARTCHAR 305E
ENCODING 12382
SWIDTH 977 0
DWIDTH 19 0
BBX 14 15 4 -1
BITMAP
7F98
01A8
0614
0C10
1800
31F0
EFC0
F300
8400
0800
0800
0800
0800
0600
01C0
ENDCHAR
STARTCHAR 305F
ENCODING 12383
SWIDTH 977 0
DWIDTH 19 0
BBX 13 16 3 -2
BITMAP
2000
2000
2000
2000
3C00
E3F0
2000
2000
2000
2000
2000
6000
4400
4608
43F0
4000
ENDCHAR
STARTCHAR 3060
ENCODING 12384
SWIDTH 977 0
DWIDTH 19 0
BBX 13 16 3 -2
BITMAP
2010
2048
2028
2010
3C00
E3F0
2000
2000
2000
2000
2000
6000
4400
4608
43F0
4000
ENDCHAR
STARTCHAR 3061
ENCODING 12385
SWIDTH 977 0
DWIDTH 19 0
BBX 10 16 5 -2
BITMAP
1000
1000
3000
3100
FE00
2000
2000
2000
6F00
7080
6040
4040
0040
0080
0180
0E00
ENDCHAR
STARTCHAR 3062
ENCODING 12386
SWIDTH 977 0
DWIDTH 19 0
BBX 12 16 5 -2
BITMAP
0020
10B0
3050
3120
FE00
2000
2000
2000
6000
6F80
70C0
4040
0040
00C0
0180
0E00
ENDCHAR
STARTCHAR 3063
ENCODING 12387
SWIDTH 977 0
DWIDTH 19 0
BBX 11 8 4 -1
BITMAP
1F80
E040
0060
0020
0060
0040
0180
0E00
ENDCHAR
STARTCHAR 3064
ENCODING 12388
SWIDTH 977 0
DWIDTH 19 0
BBX 13 10 3 0
BITMAP
07E0
1C18
E008
0008
0008
0008
0018
0030
00E0
0700
ENDCHAR
STARTCHAR 3065
ENCODING 12389
SWIDTH 977 0
DWIDTH 19 0
BBX 15 15 3 0
BITMAP
0008
0014
000A
0008
07E0
1C10
E008
0008
0008
0008
0008
0018
0030
00E0
0700
ENDCHAR
STARTCHAR 3066
ENCODING 12390
SWIDTH 977 0
DWIDTH 19 0
BBX 11 13 4 -1
BITMAP
00E0
3FC0
E200
0400
0C00
0800
0800
1800
1800
0800
0C00
0600
01C0
ENDCHAR
STARTCHAR 3067
ENCODING 12391
SWIDTH 977 0
DWIDTH 19 0
BBX 14 13 4 -1
BITMAP
00E0
3FC0
E210
0468
0C34
0810
0800
1800
1800
0800
0C00
0600
01C0
ENDCHAR
STARTCHAR 3068
ENCODING 12392
SWIDTH 977 0
DWIDTH 19 0
BBX 9 13 5 -1
BITMAP
1000
1000
1000
1000
1180
1E00
3000
4000
8000
8000
8000
C000
7F80
ENDCHAR
STARTCHAR 3069
ENCODING 12393
SWIDTH 977 0
DWIDTH 19 0
BBX 12 15 5 -1
BITMAP
0020
10D0
1070
1020
1000
1180
1E00
3800
6000
C000
8000
8000
8000
C000
7F80
ENDCHAR
STARTCHAR 306A
ENCODING 12394
SWIDTH 977 0
DWIDTH 19 0
BBX 11 16 4 -2
BITMAP
0800
0800
0900
FE00
11C0
1020
30C0
2100
6100
C100
8100
0180
1FC0
10A0
1080
0F00
ENDCHAR
STARTCHAR 306B
ENCODING 12395
SWIDTH 977 0
DWIDTH 19 0
BBX 11 13 4 0
BITMAP
4000
C000
8FC0
8000
8000
8000
8000
8000
8000
9000
9800
8800
CFE0
ENDCHAR
STARTCHAR 306C
ENCODING 12396
SWIDTH 977 0
DWIDTH 19 0
BBX 14 13 3 0
BITMAP
0200
6200
63C0
2E20
3210
2210
6210
6610
D410
95F0
8B30
CF2C
71C4
ENDCHAR
STARTCHAR 306D
ENCODING 12397
SWIDTH 977 0
DWIDTH 19 0
BBX 14 16 3 -3
BITMAP
1000
1000
1000
1800
19E0
2B10
5C10
1810
3010
3010
7010
D1F0
9238
11EC
1000
1000
ENDCHAR
STARTCHAR 306E
ENCODING 12398
SWIDTH 977 0
DWIDTH 19 0
BBX 13 13 3 -1
BITMAP
0FC0
1860
2110
4118
C308
8208
8208
8408
8C08
D818
7030
0060
0180
ENDCHAR
STARTCHAR 306F
ENCODING 12399
SWIDTH 977 0
DWIDTH 19 0
BBX 12 14 4 -1
BITMAP
4080
C080
C080
8090
8FE0
8080
8080
8080
8080
8780
88E0
88B0
C890
0F00
ENDCHAR
STARTCHAR 3070
ENCODING 12400
SWIDTH 977 0
DWIDTH 19 0
BBX 14 16 4 -1
BITMAP
0010
0028
4014
C090
C080
8090
8FE0
8080
8080
8080
8080
8780
88E0
88B0
C890
0700
ENDCHAR
STARTCHAR 3071
ENCODING 12401
SWIDTH 977 0
DWIDTH 19 0
BBX 14 15 4 -1
BITMAP
0018
40A4
C0A4
C098
8090
8FE0
8080
8080
8080
8080
8780
88E0
88B0
C890
0F00
ENDCHAR
STARTCHAR 3072
ENCODING 12402
SWIDTH 977 0
DWIDTH 19 0
BBX 13 14 3 0
BITMAP
0840
3840
D060
1060
2050
2048
6048
4040
4040
4040
4040
60C0
3180
1F00
ENDCHAR
STARTCHAR 3073
ENCODING 12403
SWIDTH 977 0
DWIDTH 19 0
BBX 15 16 3 -1
BITMAP
0008
0014
084A
3844
D060
1060
2050
2048
6048
4040
4040
4040
4040
60C0
3180
1F00
ENDCHAR
STARTCHAR 3074
ENCODING 12404
SWIDTH 977 0
DWIDTH 19 0
BBX 15 14 3 0
BITMAP
084C
3852
D072
106C
2050
2050
6048
4048
4040
4040
6040
60C0
3180
1F00
ENDCHAR
STARTCHAR 3075
ENCODING 12405
SWIDTH 977 0
DWIDTH 19 0
BBX 13 14 3 -1
BITMAP
0400
0380
0200
0400
0000
0800
0620
0330
0190
1088
3080
C080
0980
0700
ENDCHAR
STARTCHAR 3076
ENCODING 12406
SWIDTH 977 0
DWIDTH 19 0
BBX 14 14 3 -1
BITMAP
0410
038C
0224
0418
0008
0800
0620
0330
0190
1088
3080
C080
0980
0700
ENDCHAR
STARTCHAR 3077
ENCODING 12407
SWIDTH 977 0
DWIDTH 19 0
BBX 13 14 3 -1
BITMAP
0400
03B8
0228
0428
0038
0800
0620
0330
0190
1090
3088
C080
0980
0700
ENDCHAR
STARTCHAR 3078
ENCODING 12408
SWIDTH 977 0
DWIDTH 19 0
BBX 14 9 3 1
BITMAP
0600
0A00
3100
6080
80C0
0060
0030
0018
000C
ENDCHAR
STARTCHAR 3079
ENCODING 12409
SWIDTH 977 0
DWIDTH 19 0
BBX 14 11 3 1
BITMAP
0008
0634
0A1C
1108
2180
4080
8040
0020
0010
0018
000C
ENDCHAR
STARTCHAR 307A
ENCODING 12410
SWIDTH 977 0
DWIDTH 19 0
BBX 14 10 3 1
BITMAP
0018
0624
0A24
1118
2080
4040
8060
0030
0018
000C
ENDCHAR
STARTCHAR 307B
ENCODING 12411
SWIDTH 977 0
DWIDTH 19 0
BBX 12 15 4 0
BITMAP
0060
4780
C080
C080
8090
8FE0
8080
8080
8080
8080
8F80
88C0
98B0
C990
0700
ENDCHAR
STARTCHAR 307C
ENCODING 12412
SWIDTH 977 0
DWIDTH 19 0
BBX 14 15 4 0
BITMAP
0068
478C
C094
C088
8094
8FE0
8080
8080
8080
8080
8F80
88C0
98B0
C990
0700
ENDCHAR
STARTCHAR 307D
ENCODING 12413
SWIDTH 977 0
DWIDTH 19 0
BBX 14 15 4 0
BITMAP
0060
478C
C094
C094
809C
8FE0
8080
8080
8080
8080
8F80
88C0
98B0
C990
0700
ENDCHAR
STARTCHAR 307E
ENCODING 12414
SWIDTH 977 0
DWIDTH 19 0
BBX 10 15 5 -2
BITMAP
0400
0400
0480
FF00
0400
0480
FF00
0400
0400
0400
0400
7C00
8780
8C40
7800
ENDCHAR
STARTCHAR 307F
ENCODING 12415
SWIDTH 977 0
DWIDTH 19 0
BBX 13 15 3 -1
BITMAP
0180
1E80
0180
0100
0100
0210
0210
3F10
6DD0
C830
9028
A028
6060
00C0
0700
ENDCHAR
STARTCHAR 3080
ENCODING 12416
SWIDTH 977 0
DWIDTH 19 0
BBX 12 15 4 -2
BITMAP
1800
1800
1A00
FC00
10C0
1060
7010
9800
9800
9000
7060
3060
2040
30C0
1F80
ENDCHAR
STARTCHAR 3081
ENCODING 12417
SWIDTH 977 0
DWIDTH 19 0
BBX 12 14 4 -1
BITMAP
C100
4100
4380
6FE0
3220
6210
7210
9410
9C10
8810
9C10
9420
E040
0180
ENDCHAR
STARTCHAR 3082
ENCODING 12418
SWIDTH 977 0
DWIDTH 19 0
BBX 11 16 4 -2
BITMAP
0800
0800
0800
0800
7E00
1000
1000
1000
9040
FE60
3020
3020
3020
3020
1040
0F80
ENDCHAR
STARTCHAR 3083
ENCODING 12419
SWIDTH 977 0
DWIDTH 19 0
BBX 12 11 4 -2
BITMAP
0400
47E0
6F20
3930
7060
91C0
1800
0800
0C00
0400
0400
ENDCHAR
STARTCHAR 3084
ENCODING 12420
SWIDTH 977 0
DWIDTH 19 0
BBX 14 16 3 -3
BITMAP
0200
0300
41F0
6188
268C
3C8C
1808
7818
88E0
0C00
0400
0400
0200
0200
0300
0100
ENDCHAR
STARTCHAR 3085
ENCODING 12421
SWIDTH 977 0
DWIDTH 19 0
BBX 11 12 5 -2
BITMAP
0300
CF80
9BC0
9360
A320
A320
DB20
CB40
4780
0300
0200
0400
ENDCHAR
STARTCHAR 3086
ENCODING 12422
SWIDTH 977 0
DWIDTH 19 0
BBX 13 15 3 -1
BITMAP
0080
C080
C3E0
8C90
9888
9088
B088
A088
A088
C888
CC90
43E0
0080
0180
0300
ENDCHAR
STARTCHAR 3087
ENCODING 12423
SWIDTH 977 0
DWIDTH 19 0
BBX 9 12 5 -2
BITMAP
0800
0800
0800
0F00
0800
0800
0800
0800
7E00
8980
9880
7000
ENDCHAR
STARTCHAR 3088
ENCODING 12424
SWIDTH 977 0
DWIDTH 19 0
BBX 12 14 4 -1
BITMAP
0400
0400
0400
0440
0780
0400
0400
0400
0400
7F00
C4C0
8430
CC10
7800
ENDCHAR
STARTCHAR 3089
ENCODING 12425
SWIDTH 977 0
DWIDTH 19 0
BBX 10 15 5 -2
BITMAP
1800
0700
0000
0000
2000
6000
4000
4F00
7080
E040
C040
0040
0080
0300
0E00
ENDCHAR
STARTCHAR 308A
ENCODING 12426
SWIDTH 977 0
DWIDTH 19 0
BBX 9 15 5 -2
BITMAP
4700
D900
D180
F080
E080
E080
E080
4080
4080
0080
0100
0100
0200
0400
0800
ENDCHAR
STARTCHAR 308B
ENCODING 12427
SWIDTH 977 0
DWIDTH 19 0
BBX 11 16 4 -1
BITMAP
0380
3D80
0300
0600
0C00
0C00
1800
3780
7840
C020
8020
0020
1E20
1160
11C0
0F80
ENDCHAR
STARTCHAR 308C
ENCODING 12428
SWIDTH 977 0
DWIDTH 19 0
BBX 14 16 3 -2
BITMAP
1000
1000
1000
19C0
FA20
1420
1820
3020
3020
7020
5020
9024
9024
102C
1038
1000
ENDCHAR
STARTCHAR 308D
ENCODING 12429
SWIDTH 977 0
DWIDTH 19 0
BBX 11 17 4 -2
BITMAP
3F80
0180
0300
0600
0400
0800
1000
3780
3840
6020
C020
8020
0020
0060
0040
0180
0600
ENDCHAR
STARTCHAR 308E
ENCODING 12430
SWIDTH 977 0
DWIDTH 19 0
BBX 11 13 4 -1
BITMAP
0800
0800
0800
F800
0B80
1C40
1820
1820
2820
2860
48C0
4980
0800
ENDCHAR
STARTCHAR 308F
ENCODING 12431
SWIDTH 977 0
DWIDTH 19 0
BBX 14 17 3 -3
BITMAP
0C00
0C00
0C00
0E00
FE00
0C00
0DE0
0E18
0C08
1C08
1C0C
2C08
2C08
4C18
4C30
0C60
0C00
ENDCHAR
STARTCHAR 3090
ENCODING 12432
SWIDTH 977 0
DWIDTH 19 0
BBX 13 17 3 -2
BITMAP
3F00
0180
0100
0100
0300
0200
0FC0
3430
6410
4C18
8808
9008
9018
A390
C670
0660
03C0
ENDCHAR
STARTCHAR 3091
ENCODING 12433
SWIDTH 977 0
DWIDTH 19 0
BBX 14 16 3 -2
BITMAP
0180
1F00
0600
0C00
1FC0
3820
6030
4E10
1230
0A20
0FC0
0800
1010
7C48
C484
8304
ENDCHAR
STARTCHAR 3092
ENCODING 12434
SWIDTH 977 0
DWIDTH 19 0
BBX 13 16 3 -2
BITMAP
0600
0400
0400
8460
7F80
0800
1F00
3988
60F0
4380
06C0
18C0
10C0
1000
1818
0FE0
ENDCHAR
STARTCHAR 3093
ENCODING 12435
SWIDTH 977 0
DWIDTH 19 0
BBX 13 17 4 -3
BITMAP
0400
0400
0800
0800
0800
1000
1000
1000
2E00
3200
3300
6308
4318
4310
8330
8120
81C0
ENDCHAR
STARTCHAR 30A1
ENCODING 12449
SWIDTH 977 0
DWIDTH 19 0
BBX 9 11 5 -2
BITMAP
FF80
0080
0100
1600
1C00
1000
1000
1000
2000
6000
4000
ENDCHAR
STARTCHAR 30A2
ENCODING 12450
SWIDTH 977 0
DWIDTH 19 0
BBX 11 13 4 -1
BITMAP
FFE0
0020
0060
00C0
0F00
0E00
0C00
0800
0800
0800
1000
3000
2000
ENDCHAR
STARTCHAR 30A3
ENCODING 12451
SWIDTH 977 0
DWIDTH 19 0
BBX 7 13 5 -2
BITMAP
02
02
04
0C
18
38
68
C8
88
08
08
08
08
ENDCHAR
STARTCHAR 30A4
ENCODING 12452
SWIDTH 977 0
DWIDTH 19 0
BBX 9 15 4 -2
BITMAP
0180
0100
0300
0600
0400
0C00
1400
2400
C400
8400
0400
0400
0400
0400
0400
ENDCHAR
STARTCHAR 30A5
ENCODING 12453
SWIDTH 977 0
DWIDTH 19 0
BBX 9 11 5 -2
BITMAP
0800
0800
FF80
8080
8080
8080
0180
0100
0200
0400
0800
ENDCHAR
STARTCHAR 30A6
ENCODING 12454
SWIDTH 977 0
DWIDTH 19 0
BBX 11 14 4 -1
BITMAP
0400
0400
0400
FFE0
8020
8020
8020
8020
0060
0040
00C0
0180
0600
0C00
ENDCHAR
STARTCHAR 30A7
ENCODING 12455
SWIDTH 977 0
DWIDTH 19 0
BBX 11 7 4 0
BITMAP
7FC0
0400
0400
0400
0400
0400
FFE0
ENDCHAR
STARTCHAR 30A8
ENCODING 12456
SWIDTH 977 0
DWIDTH 19 0
BBX 13 9 3 1
BITMAP
7FF0
0200
0200
0200
0200
0200
0200
0200
FFF8
ENDCHAR
STARTCHAR 30A9
ENCODING 12457
SWIDTH 977 0
DWIDTH 19 0
BBX 10 12 4 -2
BITMAP
0200
0200
0200
7FC0
0200
0A00
0A00
1200
3200
6200
C200
0E00
ENDCHAR
STARTCHAR 30AA
ENCODING 12458
SWIDTH 977 0
DWIDTH 19 0
BBX 12 14 3 -2
BITMAP
0100
0100
0100
7FF0
0100
0500
0500
0900
1900
3100
6100
C100
0100
0700
ENDCHAR
STARTCHAR 30AB
ENCODING 12459
SWIDTH 977 0
DWIDTH 19 0
BBX 10 14 4 -1
BITMAP
0800
0800
0800
0800
FFC0
0840
0840
0840
1840
1040
1040
20C0
4180
8300
ENDCHAR
STARTCHAR 30AC
ENCODING 12460
SWIDTH 977 0
DWIDTH 19 0
BBX 14 15 4 -1
BITMAP
0010
0068
0834
0810
0800
FFC0
0840
0840
0840
0840
1040
1040
20C0
4180
8300
ENDCHAR
STARTCHAR 30AD
ENCODING 12461
SWIDTH 977 0
DWIDTH 19 0
BBX 11 16 4 -2
BITMAP
0800
0800
0800
0880
0F00
3C00
4400
0400
0460
0780
3E00
C200
0200
0200
0200
0300
ENDCHAR
STARTCHAR 30AE
ENCODING 12462
SWIDTH 977 0
DWIDTH 19 0
BBX 14 16 4 -2
BITMAP
0010
0848
0834
0810
0D80
1E00
6400
0400
0460
0780
3E00
C200
0200
0200
0200
0300
ENDCHAR
STARTCHAR 30AF
ENCODING 12463
SWIDTH 977 0
DWIDTH 19 0
BBX 10 13 4 -1
BITMAP
0C00
0800
1FC0
3040
6040
8080
0080
0100
0300
0600
0C00
3000
4000
ENDCHAR
STARTCHAR 30B0
ENCODING 12464
SWIDTH 977 0
DWIDTH 19 0
BBX 14 15 4 -1
BITMAP
0010
0048
0C34
0810
1FC0
3040
6040
8080
0080
0100
0300
0600
0C00
3000
4000
ENDCHAR
STARTCHAR 30B1
ENCODING 12465
SWIDTH 977 0
DWIDTH 19 0
BBX 12 15 3 -2
BITMAP
0800
0800
1800
3FF0
2100
4100
8100
0100
0100
0100
0300
0200
0400
0C00
1000
ENDCHAR
STARTCHAR 30B2
ENCODING 12466
SWIDTH 977 0
DWIDTH 19 0
BBX 15 17 3 -2
BITMAP
0008
0014
080A
0804
1800
3FF0
2100
4100
8100
0100
0100
0100
0300
0200
0400
0C00
1000
ENDCHAR
STARTCHAR 30B3
ENCODING 12467
SWIDTH 977 0
DWIDTH 19 0
BBX 10 11 4 -1
BITMAP
FFC0
0040
0040
0040
0040
0040
0040
0040
0040
FFC0
0040
ENDCHAR
STARTCHAR 30B4
ENCODING 12468
SWIDTH 977 0
DWIDTH 19 0
BBX 14 16 4 -1
BITMAP
0010
0008
0024
0010
FFC8
0040
0040
0040
0040
0040
0040
0040
0040
0040
FFC0
0040
ENDCHAR
STARTCHAR 30B5
ENCODING 12469
SWIDTH 977 0
DWIDTH 19 0
BBX 13 14 3 -2
BITMAP
18C0
18C0
18C0
FFF8
18C0
18C0
1880
1880
0080
0080
0080
0100
0300
0200
ENDCHAR
STARTCHAR 30B6
ENCODING 12470
SWIDTH 977 0
DWIDTH 19 0
BBX 15 16 3 -2
BITMAP
0008
0034
18DA
18C8
18C0
FFF8
18C0
18C0
1880
1880
0080
0080
0080
0100
0300
0200
ENDCHAR
STARTCHAR 30B7
ENCODING 12471
SWIDTH 977 0
DWIDTH 19 0
BBX 11 14 4 -1
BITMAP
2000
1000
0800
0800
8000
4000
2020
1060
0040
0080
0300
0600
1800
6000
ENDCHAR
STARTCHAR 30B8
ENCODING 12472
SWIDTH 977 0
DWIDTH 19 0
BBX 13 14 4 -1
BITMAP
2020
1050
0828
0820
8000
4000
2020
1060
0040
0080
0300
0600
1800
6000
ENDCHAR
STARTCHAR 30B9
ENCODING 12473
SWIDTH 977 0
DWIDTH 19 0
BBX 11 13 4 -1
BITMAP
7F80
00C0
0080
0080
0180
0100
0300
0300
0580
08C0
3060
6020
8000
ENDCHAR
STARTCHAR 30BA
ENCODING 12474
SWIDTH 977 0
DWIDTH 19 0
BBX 13 16 4 -1
BITMAP
0030
0058
0028
7F90
00C0
0080
0080
0180
0100
0300
0300
0580
08C0
3060
6020
8000
ENDCHAR
STARTCHAR 30BB
ENCODING 12475
SWIDTH 977 0
DWIDTH 19 0
BBX 12 13 3 0
BITMAP
0800
0800
0800
0800
0870
0F90
7810
C820
0820
0800
0800
0C00
07E0
ENDCHAR
STARTCHAR 30BC
ENCODING 12476
SWIDTH 977 0
DWIDTH 19 0
BBX 14 15 3 0
BITMAP
0018
002C
0814
0808
0800
0800
0870
0F90
7810
C820
0820
0800
0800
0C00
07E0
ENDCHAR
STARTCHAR 30BD
ENCODING 12477
SWIDTH 977 0
DWIDTH 19 0
BBX 11 13 4 -2
BITMAP
8020
4020
2060
2060
0040
00C0
0080
0180
0300
0600
0C00
1800
6000
ENDCHAR
STARTCHAR 30BE
ENCODING 12478
SWIDTH 977 0
DWIDTH 19 0
BBX 14 17 4 -2
BITMAP
0010
0028
0014
0010
8000
4020
2020
2060
0040
0040
00C0
0180
0100
0200
0C00
1800
6000
ENDCHAR
STARTCHAR 30BF
ENCODING 12479
SWIDTH 977 0
DWIDTH 19 0
BBX 10 14 4 -2
BITMAP
0C00
0800
0FC0
1040
30C0
2080
4C80
8700
0300
0280
0440
1800
3000
4000
ENDCHAR
STARTCHAR 30C0
ENCODING 12480
SWIDTH 977 0
DWIDTH 19 0
BBX 14 16 4 -2
BITMAP
0010
0048
0C24
0810
1FC0
1040
20C0
6C80
8780
0300
0380
0680
0C40
1800
3000
4000
ENDCHAR
STARTCHAR 30C1
ENCODING 12481
SWIDTH 977 0
DWIDTH 19 0
BBX 12 15 3 -2
BITMAP
00C0
0700
3B00
0300
0300
0300
FFF0
0300
0300
0200
0200
0200
0400
0800
1000
ENDCHAR
STARTCHAR 30C2
ENCODING 12482
SWIDTH 977 0
DWIDTH 19 0
BBX 15 16 3 -2
BITMAP
0008
00C4
0712
3B08
0304
0300
0300
FFF0
0300
0300
0200
0200
0200
0400
0800
1000
ENDCHAR
STARTCHAR 30C3
ENCODING 12483
SWIDTH 977 0
DWIDTH 19 0
BBX 9 11 5 -2
BITMAP
1000
8880
C880
4080
0180
0100
0300
0600
0C00
1800
3000
ENDCHAR
STARTCHAR 30C4
ENCODING 12484
SWIDTH 977 0
DWIDTH 19 0
BBX 11 13 4 -1
BITMAP
0800
0420
8420
4060
4040
0040
0080
0180
0300
0200
0C00
1800
2000
ENDCHAR
STARTCHAR 30C5
ENCODING 12485
SWIDTH 977 0
DWIDTH 19 0
BBX 14 16 4 -1
BITMAP
0010
0028
0034
0810
0420
8420
4060
4040
0040
0080
0180
0300
0200
0C00
1800
2000
ENDCHAR
STARTCHAR 30C6
ENCODING 12486
SWIDTH 977 0
DWIDTH 19 0
BBX 11 13 4 -1
BITMAP
7FC0
0000
0000
FFE0
0400
0400
0400
0400
0400
0800
1800
3000
2000
ENDCHAR
STARTCHAR 30C7
ENCODING 12487
SWIDTH 977 0
DWIDTH 19 0
BBX 14 16 4 -1
BITMAP
0010
0028
0034
7F90
0000
0000
FFE0
0400
0400
0400
0400
0400
0800
1800
3000
2000
ENDCHAR
STARTCHAR 30C8
ENCODING 12488
SWIDTH 977 0
DWIDTH 19 0
BBX 7 16 7 -2
BITMAP
C0
C0
C0
C0
C0
C0
E0
D8
C4
C2
C0
C0
C0
C0
C0
C0
ENDCHAR
STARTCHAR 30C9
ENCODING 12489
SWIDTH 977 0
DWIDTH 19 0
BBX 8 15 7 -2
BITMAP
C6
CF
C7
C2
C0
E0
D8
C4
C2
C0
C0
C0
C0
C0
C0
ENDCHAR
STARTCHAR 30CA
ENCODING 12490
SWIDTH 977 0
DWIDTH 19 0
BBX 11 15 4 -1
BITMAP
0400
0400
0400
0400
0400
FFE0
0400
0400
0400
0400
0800
0800
1000
3000
6000
ENDCHAR
STARTCHAR 30CB
ENCODING 12491
SWIDTH 977 0
DWIDTH 19 0
BBX 13 8 3 2
BITMAP
3FE0
0000
0000
0000
0000
0000
0000
FFF8
ENDCHAR
STARTCHAR 30CC
ENCODING 12492
SWIDTH 977 0
DWIDTH 19 0
BBX 9 13 5 -1
BITMAP
FF00
0080
0180
0100
4100
3300
0E00
0600
0D00
1880
3080
6000
8000
ENDCHAR
STARTCHAR 30CD
ENCODING 12493
SWIDTH 977 0
DWIDTH 19 0
BBX 12 17 4 -2
BITMAP
0800
0400
0200
0200
0000
3F00
0100
0300
0780
04C0
0C60
3430
6410
C400
0400
0400
0400
ENDCHAR
STARTCHAR 30CE
ENCODING 12494
SWIDTH 977 0
DWIDTH 19 0
BBX 9 11 5 0
BITMAP
0080
0180
0180
0300
0200
0600
0C00
1800
3000
6000
C000
ENDCHAR
STARTCHAR 30CF
ENCODING 12495
SWIDTH 977 0
DWIDTH 19 0
BBX 12 8 3 2
BITMAP
0880
08C0
1860
1020
1010
2010
4010
8010
ENDCHAR
STARTCHAR 30D0
ENCODING 12496
SWIDTH 977 0
DWIDTH 19 0
BBX 14 10 3 2
BITMAP
0008
0034
089C
08C8
1860
1020
1010
2010
4010
8010
ENDCHAR
STARTCHAR 30D1
ENCODING 12497
SWIDTH 977 0
DWIDTH 19 0
BBX 14 11 3 2
BITMAP
001C
0024
0024
089C
08C0
1860
1020
1010
2010
4010
8010
ENDCHAR
STARTCHAR 30D2
ENCODING 12498
SWIDTH 977 0
DWIDTH 19 0
BBX 9 11 5 0
BITMAP
8000
8080
8300
8600
9800
E000
8000
8000
8000
8000
FF80
ENDCHAR
STARTCHAR 30D3
ENCODING 12499
SWIDTH 977 0
DWIDTH 19 0
BBX 12 15 5 0
BITMAP
0040
00A0
0050
8040
8000
8080
8300
8600
9800
E000
8000
8000
8000
8000
FF80
ENDCHAR
STARTCHAR 30D4
ENCODING 12500
SWIDTH 977 0
DWIDTH 19 0
BBX 12 14 5 0
BITMAP
0060
0090
0090
8060
8080
8300
8600
9800
E000
8000
8000
8000
8000
FF80
ENDCHAR
STARTCHAR 30D5
ENCODING 12501
SWIDTH 977 0
DWIDTH 19 0
BBX 11 12 4 -1
BITMAP
FFC0
0060
0040
0040
00C0
0080
0180
0100
0200
0400
1800
2000
ENDCHAR
STARTCHAR 30D6
ENCODING 12502
SWIDTH 977 0
DWIDTH 19 0
BBX 14 15 4 -1
BITMAP
0010
0028
0014
FFC8
0060
0040
0040
00C0
0080
0180
0100
0200
0400
1800
2000
ENDCHAR
STARTCHAR 30D7
ENCODING 12503
SWIDTH 977 0
DWIDTH 19 0
BBX 14 16 4 -1
BITMAP
0018
0024
0024
0018
FFC0
0060
0040
0040
00C0
0080
0180
0100
0200
0400
1800
2000
ENDCHAR
STARTCHAR 30D8
ENCODING 12504
SWIDTH 977 0
DWIDTH 19 0
BBX 13 10 3 1
BITMAP
0C00
1A00
1100
2080
4040
C060
8030
0010
0008
0008
ENDCHAR
STARTCHAR 30D9
ENCODING 12505
SWIDTH 977 0
DWIDTH 19 0
BBX 14 12 3 1
BITMAP
0010
002C
0034
0C18
1208
3100
6080
4040
8020
0010
0018
0008
ENDCHAR
STARTCHAR 30DA
ENCODING 12506
SWIDTH 977 0
DWIDTH 19 0
BBX 13 11 3 1
BITMAP
0030
0C48
1A48
1130
2080
4040
C060
8030
0010
0008
0008
ENDCHAR
STARTCHAR 30DB
ENCODING 12507
SWIDTH 977 0
DWIDTH 19 0
BBX 12 14 3 -2
BITMAP
0200
0200
0200
7FF0
0200
0200
0200
1240
3240
2220
4210
8210
0200
0200
ENDCHAR
STARTCHAR 30DC
ENCODING 12508
SWIDTH 977 0
DWIDTH 19 0
BBX 15 16 3 -2
BITMAP
0008
0014
020A
0208
0200
7FF0
0200
0200
0200
1240
3240
2220
4210
8210
0200
0200
ENDCHAR
STARTCHAR 30DD
ENCODING 12509
SWIDTH 977 0
DWIDTH 19 0
BBX 14 16 3 -2
BITMAP
0018
0224
0224
0218
0200
7FF0
0200
0200
0200
1240
3240
2220
4210
8210
0200
0200
ENDCHAR
STARTCHAR 30DE
ENCODING 12510
SWIDTH 977 0
DWIDTH 19 0
BBX 11 10 4 -1
BITMAP
FFE0
0020
0060
0040
0080
3100
1E00
0400
0200
0100
ENDCHAR
STARTCHAR 30DF
ENCODING 12511
SWIDTH 977 0
DWIDTH 19 0
BBX 7 15 6 -2
BITMAP
60
18
0C
02
00
60
18
0C
04
00
C0
30
18
04
02
ENDCHAR
STARTCHAR 30E0
ENCODING 12512
SWIDTH 977 0
DWIDTH 19 0
BBX 12 11 4 0
BITMAP
0400
0400
0400
0C00
0800
1800
1040
3060
2060
27F0
F810
ENDCHAR
STARTCHAR 30E1
ENCODING 12513
SWIDTH 977 0
DWIDTH 19 0
BBX 9 13 5 -1
BITMAP
0080
0080
0180
2100
1B00
0E00
0600
0F00
0980
1080
2000
C000
8000
ENDCHAR
STARTCHAR 30E2
ENCODING 12514
SWIDTH 977 0
DWIDTH 19 0
BBX 11 13 4 -1
BITMAP
7FC0
0800
0800
0800
0800
FFE0
0800
0800
0800
0800
0800
0800
0FE0
ENDCHAR
STARTCHAR 30E3
ENCODING 12515
SWIDTH 977 0
DWIDTH 19 0
BBX 10 12 5 -2
BITMAP
2000
3000
13C0
1EC0
7080
9980
0800
0800
0800
0400
0400
0400
ENDCHAR
STARTCHAR 30E4
ENCODING 12516
SWIDTH 977 0
DWIDTH 19 0
BBX 12 15 3 -2
BITMAP
0800
0800
0800
0DF0
3E10
E410
0420
0600
0200
0200
0200
0300
0100
0100
0100
ENDCHAR
STARTCHAR 30E5
ENCODING 12517
SWIDTH 977 0
DWIDTH 19 0
BBX 11 8 4 0
BITMAP
7F80
0180
0180
0180
0180
0180
0180
FFE0
ENDCHAR
STARTCHAR 30E6
ENCODING 12518
SWIDTH 977 0
DWIDTH 19 0
BBX 13 8 3 2
BITMAP
3FC0
0040
0040
0040
0040
0040
0040
FFF8
ENDCHAR
STARTCHAR 30E7
ENCODING 12519
SWIDTH 977 0
DWIDTH 19 0
BBX 8 10 6 -1
BITMAP
FF
03
03
03
FF
03
03
03
FF
03
ENDCHAR
STARTCHAR 30E8
ENCODING 12520
SWIDTH 977 0
DWIDTH 19 0
BBX 9 13 5 -1
BITMAP
FF80
0080
0080
0080
0080
FF80
0080
0080
0080
0080
0080
FF80
0080
ENDCHAR
STARTCHAR 30E9
ENCODING 12521
SWIDTH 977 0
DWIDTH 19 0
BBX 11 15 4 -2
BITMAP
3F80
0000
0000
0000
FFC0
0020
0040
0040
00C0
0080
0180
0300
0600
0C00
1000
ENDCHAR
STARTCHAR 30EA
ENCODING 12522
SWIDTH 977 0
DWIDTH 19 0
BBX 8 14 5 -1
BITMAP
01
C1
C1
C1
C1
C1
C1
C1
01
02
06
04
18
10
ENDCHAR
STARTCHAR 30EB
ENCODING 12523
SWIDTH 977 0
DWIDTH 19 0
BBX 13 14 3 -2
BITMAP
0200
1200
1200
1200
1200
1208
1208
1210
1210
3220
2220
6240
C280
8300
ENDCHAR
STARTCHAR 30EC
ENCODING 12524
SWIDTH 977 0
DWIDTH 19 0
BBX 10 13 5 -2
BITMAP
C000
C000
C000
C000
C000
C040
C0C0
C180
C300
C600
DC00
F000
E000
ENDCHAR
STARTCHAR 30ED
ENCODING 12525
SWIDTH 977 0
DWIDTH 19 0
BBX 11 10 4 0
BITMAP
FFE0
C060
C060
C060
C060
C060
C060
C060
FFE0
C060
ENDCHAR
STARTCHAR 30EE
ENCODING 12526
SWIDTH 977 0
DWIDTH 19 0
BBX 9 9 5 -2
BITMAP
FF80
8080
8080
8080
0180
0100
0200
0C00
1800
ENDCHAR
STARTCHAR 30EF
ENCODING 12527
SWIDTH 977 0
DWIDTH 19 0
BBX 11 14 4 -2
BITMAP
FFE0
8020
8020
8020
8020
0020
0060
0040
0040
0080
0180
0300
0600
0800
ENDCHAR
STARTCHAR 30F0
ENCODING 12528
SWIDTH 977 0
DWIDTH 19 0
BBX 12 15 4 -2
BITMAP
0100
0100
0100
7FE0
2100
2100
2100
2100
FFF0
0100
0100
0100
0100
0100
0100
ENDCHAR
STARTCHAR 30F1
ENCODING 12529
SWIDTH 977 0
DWIDTH 19 0
BBX 11 10 4 1
BITMAP
7FE0
0060
00C0
0500
0600
0400
0400
0400
0400
FFE0
ENDCHAR
STARTCHAR 30F2
ENCODING 12530
SWIDTH 977 0
DWIDTH 19 0
BBX 10 14 4 -2
BITMAP
7FC0
0040
0040
0040
0040
FFC0
0080
0080
0180
0100
0200
0400
1800
3000
ENDCHAR
STARTCHAR 30F3
ENCODING 12531
SWIDTH 977 0
DWIDTH 19 0
BBX 10 13 5 -1
BITMAP
8000
6000
3000
1000
0040
00C0
0080
0100
0200
0C00
1800
6000
C000
ENDCHAR
STARTCHAR 30F4
ENCODING 12532
SWIDTH 977 0
DWIDTH 19 0
BBX 14 16 4 -1
BITMAP
0010
0028
0414
0408
0400
FFE0
8020
8020
8020
8020
0060
0040
00C0
0180
0600
0C00
ENDCHAR
STARTCHAR 30F5
ENCODING 12533
SWIDTH 977 0
DWIDTH 19 0
BBX 9 11 5 -1
BITMAP
0800
0800
0800
FF80
0880
1880
1880
1080
3080
6180
8600
ENDCHAR
STARTCHAR 30F6
ENCODING 12534
SWIDTH 977 0
DWIDTH 19 0
BBX 10 12 4 -2
BITMAP
1000
1000
3000
7FC0
C200
8200
0200
0600
0400
0C00
1800
1000
ENDCHAR
STARTCHAR 3131
ENCODING 12593
SWIDTH 977 0
DWIDTH 19 0
BBX 12 9 3 1
BITMAP
FFF0
0010
0010
0010
0010
0010
0010
0010
0010
ENDCHAR
STARTCHAR 3132
ENCODING 12594
SWIDTH 977 0
DWIDTH 19 0
BBX 13 9 3 1
BITMAP
FDF8
0C08
0C08
0C08
0C08
0C08
0C08
0C08
0C08
ENDCHAR
STARTCHAR 3133
ENCODING 12595
SWIDTH 977 0
DWIDTH 19 0
BBX 14 9 3 1
BITMAP
FC20
0C20
0C20
0C20
0C60
0C50
0CD8
0D8C
0D04
ENDCHAR
STARTCHAR 3134
ENCODING 12596
SWIDTH 977 0
DWIDTH 19 0
BBX 11 9 4 1
BITMAP
8000
8000
8000
8000
8000
8000
8000
8000
FFE0
ENDCHAR
STARTCHAR 3135
ENCODING 12597
SWIDTH 977 0
DWIDTH 19 0
BBX 13 9 3 1
BITMAP
83F8
8040
8040
8040
8060
80A0
8190
8318
FA08
ENDCHAR
STARTCHAR 3136
ENCODING 12598
SWIDTH 977 0
DWIDTH 19 0
BBX 15 10 2 1
BITMAP
0020
C020
C3FE
C000
C078
C08C
C184
C184
C08C
FC78
ENDCHAR
STARTCHAR 3137
ENCODING 12599
SWIDTH 977 0
DWIDTH 19 0
BBX 11 9 4 1
BITMAP
FFE0
8000
8000
8000
8000
8000
8000
8000
FFE0
ENDCHAR
STARTCHAR 3138
ENCODING 12600
SWIDTH 977 0
DWIDTH 19 0
BBX 14 9 3 1
BITMAP
FDF8
8100
8100
8100
8100
8100
8100
8100
FDFC
ENDCHAR
STARTCHAR 3139
ENCODING 12601
SWIDTH 977 0
DWIDTH 19 0
BBX 11 9 4 1
BITMAP
FFE0
0020
0020
0020
FFE0
8000
8000
8000
FFE0
ENDCHAR
STARTCHAR 313A
ENCODING 12602
SWIDTH 977 0
DWIDTH 19 0
BBX 13 9 3 1
BITMAP
FDF8
0418
0418
0418
FC18
8018
8018
8018
FE18
ENDCHAR
STARTCHAR 313B
ENCODING 12603
SWIDTH 977 0
DWIDTH 19 0
BBX 13 9 3 1
BITMAP
F9F8
0908
0908
0908
F908
8108
8108
8108
FDF8
ENDCHAR
STARTCHAR 313C
ENCODING 12604
SWIDTH 977 0
DWIDTH 19 0
BBX 13 9 3 1
BITMAP
F908
0908
0908
0908
F9F8
8108
8108
8108
FDF8
ENDCHAR
STARTCHAR 313D
ENCODING 12605
SWIDTH 977 0
DWIDTH 19 0
BBX 14 9 3 1
BITMAP
FC20
0C20
0C20
0C20
FC60
8050
80D8
8188
FD04
ENDCHAR
STARTCHAR 313E
ENCODING 12606
SWIDTH 977 0
DWIDTH 19 0
BBX 13 9 3 1
BITMAP
FDF8
0D80
0D80
0D80
FDF8
8180
8180
8180
FDF8
ENDCHAR
STARTCHAR 313F
ENCODING 12607
SWIDTH 977 0
DWIDTH 19 0
BBX 13 9 3 1
BITMAP
FBF8
0890
0890
0890
F890
8090
8090
8090
FFF8
ENDCHAR
STARTCHAR 3140
ENCODING 12608
SWIDTH 977 0
DWIDTH 19 0
BBX 14 10 3 1
BITMAP
0060
F860
0BFC
0800
08F0
F918
8108
8108
8118
FCF0
ENDCHAR
STARTCHAR 3141
ENCODING 12609
SWIDTH 977 0
DWIDTH 19 0
BBX 11 9 4 1
BITMAP
FFE0
8020
8020
8020
8020
8020
8020
8020
FFE0
ENDCHAR
STARTCHAR 3142
ENCODING 12610
SWIDTH 977 0
DWIDTH 19 0
BBX 11 9 4 1
BITMAP
8020
8020
8020
8020
FFE0
8020
8020
8020
FFE0
ENDCHAR
STARTCHAR 3143
ENCODING 12611
SWIDTH 977 0
DWIDTH 19 0
BBX 13 9 3 1
BITMAP
8508
8508
8508
8508
FDF8
8508
8508
8508
FDF8
ENDCHAR
STARTCHAR 3144
ENCODING 12612
SWIDTH 977 0
DWIDTH 19 0
BBX 14 9 3 1
BITMAP
8420
8420
8420
8420
FC70
8470
84D8
858C
FD04
ENDCHAR
STARTCHAR 3145
ENCODING 12613
SWIDTH 977 0
DWIDTH 19 0
BBX 13 9 3 1
BITMAP
0200
0200
0200
0600
0700
0D80
18C0
3060
C018
ENDCHAR
STARTCHAR 3146
ENCODING 12614
SWIDTH 977 0
DWIDTH 19 0
BBX 14 9 2 1
BITMAP
1830
1830
1830
1830
1830
3870
2448
428C
8104
ENDCHAR
STARTCHAR 3147
ENCODING 12615
SWIDTH 977 0
DWIDTH 19 0
BBX 11 9 4 1
BITMAP
1F00
3180
4040
4060
C060
4060
4040
3180
1F00
ENDCHAR
STARTCHAR 3148
ENCODING 12616
SWIDTH 977 0
DWIDTH 19 0
BBX 13 9 3 1
BITMAP
FFF8
0200
0200
0600
0700
0D80
18C0
2060
C018
ENDCHAR
STARTCHAR 3149
ENCODING 12617
SWIDTH 977 0
DWIDTH 19 0
BBX 15 9 2 1
BITMAP
FEFE
1030
1030
1030
1830
3838
2448
42C4
8086
ENDCHAR
STARTCHAR 314A
ENCODING 12618
SWIDTH 977 0
DWIDTH 19 0
BBX 13 11 3 1
BITMAP
0200
0200
0200
FFF8
0200
0200
0700
0D80
18C0
3060
C018
ENDCHAR
STARTCHAR 314B
ENCODING 12619
SWIDTH 977 0
DWIDTH 19 0
BBX 12 9 3 1
BITMAP
FFF0
0010
0010
0010
FFF0
0010
0010
0010
0010
ENDCHAR
STARTCHAR 314C
ENCODING 12620
SWIDTH 977 0
DWIDTH 19 0
BBX 11 9 4 1
BITMAP
FFE0
8000
8000
8000
FFE0
8000
8000
8000
FFE0
ENDCHAR
STARTCHAR 314D
ENCODING 12621
SWIDTH 977 0
DWIDTH 19 0
BBX 13 9 3 1
BITMAP
FFF0
1040
1040
1040
1040
1040
1040
1040
FFF8
ENDCHAR
STARTCHAR 314E
ENCODING 12622
SWIDTH 977 0
DWIDTH 19 0
BBX 13 10 3 1
BITMAP
0200
0200
FFF8
0000
0F80
3060
2020
2020
3060
0F80
ENDCHAR
STARTCHAR 314F
ENCODING 12623
SWIDTH 977 0
DWIDTH 19 0
BBX 4 18 9 -3
BITMAP
80
80
80
80
80
80
80
F0
80
80
80
80
80
80
80
80
80
80
ENDCHAR
STARTCHAR 3150
ENCODING 12624
SWIDTH 977 0
DWIDTH 19 0
BBX 6 18 7 -3
BITMAP
8C
8C
8C
8C
8C
8C
8C
8C
FC
8C
8C
8C
8C
8C
8C
8C
8C
0C
ENDCHAR
STARTCHAR 3151
ENCODING 12625
SWIDTH 977 0
DWIDTH 19 0
BBX 4 18 9 -3
BITMAP
80
80
80
80
80
F0
80
80
80
80
80
F0
80
80
80
80
80
80
ENDCHAR
STARTCHAR 3152
ENCODING 12626
SWIDTH 977 0
DWIDTH 19 0
BBX 6 18 7 -3
BITMAP
8C
8C
8C
8C
8C
FC
8C
8C
8C
8C
FC
8C
8C
8C
8C
8C
8C
0C
ENDCHAR
STARTCHAR 3153
ENCODING 12627
SWIDTH 977 0
DWIDTH 19 0
BBX 6 18 6 -3
BITMAP
0C
0C
0C
0C
0C
0C
0C
FC
0C
0C
0C
0C
0C
0C
0C
0C
0C
0C
ENDCHAR
STARTCHAR 3154
ENCODING 12628
SWIDTH 977 0
DWIDTH 19 0
BBX 9 18 4 -3
BITMAP
0C80
0C80
0C80
0C80
0C80
0C80
0C80
FC80
0C80
0C80
0C80
0C80
0C80
0C80
0C80
0C80
0C80
0080
ENDCHAR
STARTCHAR 3155
ENCODING 12629
SWIDTH 977 0
DWIDTH 19 0
BBX 6 18 6 -3
BITMAP
0C
0C
0C
0C
0C
FC
0C
0C
0C
0C
FC
0C
0C
0C
0C
0C
0C
0C
ENDCHAR
STARTCHAR 3156
ENCODING 12630
SWIDTH 977 0
DWIDTH 19 0
BBX 8 18 5 -3
BITMAP
19
19
19
19
19
F9
19
19
19
19
F9
19
19
19
19
19
19
19
ENDCHAR
STARTCHAR 3157
ENCODING 12631
SWIDTH 977 0
DWIDTH 19 0
BBX 17 8 1 2
BITMAP
008000
008000
008000
008000
008000
008000
008000
FFFF80
ENDCHAR
STARTCHAR 3158
ENCODING 12632
SWIDTH 977 0
DWIDTH 19 0
BBX 17 18 1 -3
BITMAP
000400
000400
000400
000400
000400
000400
060400
060780
060400
060400
060400
060400
060400
FFF400
000400
000400
000400
000400
ENDCHAR
STARTCHAR 3159
ENCODING 12633
SWIDTH 977 0
DWIDTH 19 0
BBX 16 18 1 -3
BITMAP
0013
0013
0013
0013
0013
0013
0C13
0C13
0C1F
0C13
0C13
0C13
0C13
FFD3
0013
0013
0013
0003
ENDCHAR
STARTCHAR 315A
ENCODING 12634
SWIDTH 977 0
DWIDTH 19 0
BBX 15 18 1 -3
BITMAP
0006
0006
0006
0006
0006
0006
0206
0206
0206
0206
0206
0206
0206
FFF6
0006
0006
0006
0006
ENDCHAR
STARTCHAR 315B
ENCODING 12635
SWIDTH 977 0
DWIDTH 19 0
BBX 17 8 1 2
BITMAP
041000
041000
041000
041000
041000
041000
041000
FFFF80
ENDCHAR
STARTCHAR 315C
ENCODING 12636
SWIDTH 977 0
DWIDTH 19 0
BBX 17 12 1 -3
BITMAP
FFFF80
008000
008000
008000
008000
008000
008000
008000
008000
008000
008000
008000
ENDCHAR
STARTCHAR 315D
ENCODING 12637
SWIDTH 977 0
DWIDTH 19 0
BBX 15 18 1 -3
BITMAP
0002
0002
0002
0002
0002
0002
FFF2
0202
0202
0202
027E
0202
0202
0202
0202
0202
0202
0002
ENDCHAR
STARTCHAR 315E
ENCODING 12638
SWIDTH 977 0
DWIDTH 19 0
BBX 15 18 1 -3
BITMAP
0012
0012
0012
0012
0012
0012
FFD2
0C12
0C12
0C12
0DF2
0C12
0C12
0C12
0C12
0C12
0C12
0002
ENDCHAR
STARTCHAR 315F
ENCODING 12639
SWIDTH 977 0
DWIDTH 19 0
BBX 15 18 1 -3
BITMAP
0002
0002
0002
0002
0002
0002
FFF2
0202
0202
0202
0202
0202
0202
0202
0202
0202
0202
0002
ENDCHAR
STARTCHAR 3160
ENCODING 12640
SWIDTH 977 0
DWIDTH 19 0
BBX 17 12 1 -3
BITMAP
FFFF80
041000
041000
041000
041000
041000
041000
041000
041000
041000
041000
041000
ENDCHAR
STARTCHAR 3161
ENCODING 12641
SWIDTH 977 0
DWIDTH 19 0
BBX 17 1 1 4
BITMAP
FFFF80
ENDCHAR
STARTCHAR 3162
ENCODING 12642
SWIDTH 977 0
DWIDTH 19 0
BBX 15 18 1 -3
BITMAP
0002
0002
0002
0002
0002
0002
0002
0002
0002
0002
0002
0002
FFFA
0002
0002
0002
0002
0002
ENDCHAR
STARTCHAR 3163
ENCODING 12643
SWIDTH 977 0
DWIDTH 19 0
BBX 1 18 9 -3
BITMAP
80
80
80
80
80
80
80
80
80
80
80
80
80
80
80
80
80
80
ENDCHAR
STARTCHAR 3164
ENCODING 12644
SWIDTH 977 0
DWIDTH 19 0
BBX 0 0 0 0
BITMAP
ENDCHAR
STARTCHAR 3165
ENCODING 12645
SWIDTH 977 0
DWIDTH 19 0
BBX 14 9 3 1
BITMAP
8180
8180
8180
8180
8180
8180
8180
8180
FDFC
ENDCHAR
STARTCHAR 3166
ENCODING 12646
SWIDTH 977 0
DWIDTH 19 0
BBX 13 9 3 1
BITMAP
81F8
8100
8100
8100
8100
8100
8100
8100
FDF8
ENDCHAR
STARTCHAR 3167
ENCODING 12647
SWIDTH 977 0
DWIDTH 19 0
BBX 15 9 2 1
BITMAP
C010
C010
C010
C010
C030
C028
C06C
C0C6
FF82
ENDCHAR
STARTCHAR 3168
ENCODING 12648
SWIDTH 977 0
DWIDTH 19 0
BBX 15 10 2 2
BITMAP
C020
C020
C030
C070
C048
C0C8
C08C
C084
C104
FDFE
ENDCHAR
STARTCHAR 3169
ENCODING 12649
SWIDTH 977 0
DWIDTH 19 0
BBX 15 9 2 0
BITMAP
FF88
1888
1888
1888
F898
C098
C094
C0A4
FCA2
ENDCHAR
STARTCHAR 316A
ENCODING 12650
SWIDTH 977 0
DWIDTH 19 0
BBX 14 9 3 1
BITMAP
FDF8
0580
0580
0580
FD80
8180
8180
8180
FDFC
ENDCHAR
STARTCHAR 316B
ENCODING 12651
SWIDTH 977 0
DWIDTH 19 0
BBX 16 9 2 0
BITMAP
FA4C
1A4C
1A4C
1A4C
FBCC
C24C
C25E
C252
FBE3
ENDCHAR
STARTCHAR 316C
ENCODING 12652
SWIDTH 977 0
DWIDTH 19 0
BBX 15 10 3 2
BITMAP
F820
0820
0870
0850
F858
8088
8088
8184
8104
FDFE
ENDCHAR
STARTCHAR 316D
ENCODING 12653
SWIDTH 977 0
DWIDTH 19 0
BBX 15 9 2 1
BITMAP
FDFE
0400
0478
044C
FC84
C084
C084
C0CC
FE78
ENDCHAR
STARTCHAR 316E
ENCODING 12654
SWIDTH 977 0
DWIDTH 19 0
BBX 13 9 3 1
BITMAP
FD08
8D08
8D08
8D08
8DF8
8D08
8D08
8D08
FDF8
ENDCHAR
STARTCHAR 316F
ENCODING 12655
SWIDTH 977 0
DWIDTH 19 0
BBX 14 9 2 1
BITMAP
FC20
8420
8420
8430
8430
8470
8458
848C
FD04
ENDCHAR
STARTCHAR 3170
ENCODING 12656
SWIDTH 977 0
DWIDTH 19 0
BBX 14 10 3 2
BITMAP
0020
FC20
8460
8450
84D0
8498
8488
8588
8504
FDFC
ENDCHAR
STARTCHAR 3171
ENCODING 12657
SWIDTH 977 0
DWIDTH 19 0
BBX 9 14 5 -1
BITMAP
FF80
8080
8080
8080
FF80
0000
0000
3E00
6300
4100
C100
4100
6300
3E00
ENDCHAR
STARTCHAR 3172
ENCODING 12658
SWIDTH 977 0
DWIDTH 19 0
BBX 14 9 2 1
BITMAP
82FC
8204
8204
8204
FE04
8204
8204
8204
FE04
ENDCHAR
STARTCHAR 3173
ENCODING 12659
SWIDTH 977 0
DWIDTH 19 0
BBX 15 9 2 1
BITMAP
86FE
86C0
86C0
86C0
FEC0
86C0
86C0
86C0
FEFE
ENDCHAR
STARTCHAR 3174
ENCODING 12660
SWIDTH 977 0
DWIDTH 19 0
BBX 14 9 2 1
BITMAP
C89C
C884
C884
C884
F884
C9C4
C944
CB64
FA24
ENDCHAR
STARTCHAR 3175
ENCODING 12661
SWIDTH 977 0
DWIDTH 19 0
BBX 15 9 2 0
BITMAP
991E
9910
9910
9990
F990
9990
9B90
9A50
FC5E
ENDCHAR
STARTCHAR 3176
ENCODING 12662
SWIDTH 977 0
DWIDTH 19 0
BBX 15 9 2 1
BITMAP
86FE
8610
8610
8610
FE30
8638
864C
86C6
FF82
ENDCHAR
STARTCHAR 3177
ENCODING 12663
SWIDTH 977 0
DWIDTH 19 0
BBX 15 9 2 1
BITMAP
C27E
C240
C240
C240
FE7C
C240
C240
C240
FE7E
ENDCHAR
STARTCHAR 3178
ENCODING 12664
SWIDTH 977 0
DWIDTH 19 0
BBX 9 14 5 -1
BITMAP
8080
8080
FF80
8080
8080
FF80
0000
3E00
6300
4100
C100
4100
6300
3E00
ENDCHAR
STARTCHAR 3179
ENCODING 12665
SWIDTH 977 0
DWIDTH 19 0
BBX 13 14 3 -1
BITMAP
8508
8508
FDF8
8508
8508
FDF8
0000
0F80
18C0
1040
3040
1040
18C0
0F80
ENDCHAR
STARTCHAR 317A
ENCODING 12666
SWIDTH 977 0
DWIDTH 19 0
BBX 14 9 2 1
BITMAP
08FC
0804
0804
0804
1804
1404
2604
6304
C104
ENDCHAR
STARTCHAR 317B
ENCODING 12667
SWIDTH 977 0
DWIDTH 19 0
BBX 15 9 2 1
BITMAP
10C0
10C0
10C0
10C0
18C0
38C0
2CC0
46C0
82FE
ENDCHAR
STARTCHAR 317C
ENCODING 12668
SWIDTH 977 0
DWIDTH 19 0
BBX 15 9 2 1
BITMAP
10FC
10C0
10C0
10C0
38C0
28C0
6CC0
44C0
82FE
ENDCHAR
STARTCHAR 317D
ENCODING 12669
SWIDTH 977 0
DWIDTH 19 0
BBX 14 10 2 1
BITMAP
1084
1084
1084
1084
10FC
3884
2884
6C84
C684
82FC
ENDCHAR
STARTCHAR 317E
ENCODING 12670
SWIDTH 977 0
DWIDTH 19 0
BBX 15 9 2 1
BITMAP
10FE
1010
1010
1010
3018
3828
686C
C446
8282
ENDCHAR
STARTCHAR 317F
ENCODING 12671
SWIDTH 977 0
DWIDTH 19 0
BBX 11 10 4 2
BITMAP
0400
0C00
0A00
1300
1100
2180
6080
40C0
C060
FFE0
ENDCHAR
STARTCHAR 3180
ENCODING 12672
SWIDTH 977 0
DWIDTH 19 0
BBX 15 10 2 1
BITMAP
3838
4464
C642
82C2
82C2
82C2
82C2
C642
4464
3838
ENDCHAR
STARTCHAR 3181
ENCODING 12673
SWIDTH 977 0
DWIDTH 19 0
BBX 9 10 5 1
BITMAP
0800
0800
3E00
6300
C180
C180
C180
C180
6300
3E00
ENDCHAR
STARTCHAR 3182
ENCODING 12674
SWIDTH 977 0
DWIDTH 19 0
BBX 15 10 2 1
BITMAP
1000
1030
7C30
C430
8630
8630
8630
8648
C48C
3906
ENDCHAR
STARTCHAR 3183
ENCODING 12675
SWIDTH 977 0
DWIDTH 19 0
BBX 15 11 2 1
BITMAP
1000
1020
7820
4430
8670
8648
82C8
868C
8484
4504
39FE
ENDCHAR
STARTCHAR 3184
ENCODING 12676
SWIDTH 977 0
DWIDTH 19 0
BBX 12 14 3 -1
BITMAP
7FF0
10C0
10C0
10C0
10C0
FFF0
0000
0F80
18C0
1040
3040
1040
18C0
0F80
ENDCHAR
STARTCHAR 3185
ENCODING 12677
SWIDTH 977 0
DWIDTH 19 0
BBX 17 10 1 1
BITMAP
180C00
180C00
FF7F80
000000
3C1E00
662300
422100
422100
662300
3C1E00
ENDCHAR
STARTCHAR 3186
ENCODING 12678
SWIDTH 977 0
DWIDTH 19 0
BBX 15 11 2 0
BITMAP
FFFE
0000
0000
0000
07C0
0C60
0820
1830
0820
0C60
07C0
ENDCHAR
STARTCHAR 3187
ENCODING 12679
SWIDTH 977 0
DWIDTH 19 0
BBX 17 18 1 -3
BITMAP
000400
000400
000400
000400
000400
000780
198400
198400
198400
198400
198400
198780
198400
FFF400
000400
000400
000400
000400
ENDCHAR
STARTCHAR 3188
ENCODING 12680
SWIDTH 977 0
DWIDTH 19 0
BBX 16 18 1 -3
BITMAP
0013
0013
0013
0013
0013
001F
3213
3213
3213
3213
3213
321F
3213
FFD3
0013
0013
0013
0003
ENDCHAR
STARTCHAR 3189
ENCODING 12681
SWIDTH 977 0
DWIDTH 19 0
BBX 14 18 2 -3
BITMAP
000C
000C
000C
000C
000C
000C
118C
118C
118C
118C
118C
118C
118C
FFEC
000C
000C
000C
000C
ENDCHAR
STARTCHAR 318A
ENCODING 12682
SWIDTH 977 0
DWIDTH 19 0
BBX 15 19 1 -4
BITMAP
0002
0002
0002
0002
0002
0002
FFF2
1982
1982
19BE
1982
1982
1982
19BE
1982
1982
1982
1982
0002
ENDCHAR
STARTCHAR 318B
ENCODING 12683
SWIDTH 977 0
DWIDTH 19 0
BBX 15 18 1 -3
BITMAP
0012
0012
0012
0012
0012
0012
FF92
2612
2612
26F2
2612
2612
26F2
2612
2612
2612
2612
0002
ENDCHAR
STARTCHAR 318C
ENCODING 12684
SWIDTH 977 0
DWIDTH 19 0
BBX 15 18 1 -3
BITMAP
0002
0002
0002
0002
0002
0002
FFF2
0882
0882
0882
0882
0882
0882
0882
0882
0882
0882
0002
ENDCHAR
STARTCHAR 318D
ENCODING 12685
SWIDTH 977 0
DWIDTH 19 0
BBX 3 4 8 4
BITMAP
E0
E0
E0
E0
ENDCHAR
STARTCHAR 318E
ENCODING 12686
SWIDTH 977 0
DWIDTH 19 0
BBX 9 18 6 -3
BITMAP
0180
0180
0180
0180
0180
0180
0180
C180
E180
E180
C180
0180
0180
0180
0180
0180
0180
0180
ENDCHAR
STARTCHAR 3200
ENCODING 12800
SWIDTH 977 0
DWIDTH 19 0
BBX 17 17 1 -3
BITMAP
100400
200400
200200
400100
400100
9FF880
800880
800880
800880
800880
800880
800880
400900
400100
200200
100600
180400
ENDCHAR
STARTCHAR 3201
ENCODING 12801
SWIDTH 977 0
DWIDTH 19 0
BBX 17 17 1 -3
BITMAP
100400
200400
200200
400100
4C0100
8C0080
8C0080
8C0080
8C0080
8C0080
8C0080
8FFC80
400100
400100
200200
100600
180400
ENDCHAR
STARTCHAR 3202
ENCODING 12802
SWIDTH 977 0
DWIDTH 19 0
BBX 17 17 1 -3
BITMAP
100400
200400
200200
400100
4FFD00
880080
880080
880080
880080
880080
880080
8FFC80
400100
400100
200200
100600
180400
ENDCHAR
STARTCHAR 3203
ENCODING 12803
SWIDTH 977 0
DWIDTH 19 0
BBX 17 17 1 -2
BITMAP
100400
200400
200200
400100
400100
8FF880
800880
800880
8FF880
880080
880080
880080
4FFD00
400100
200200
100600
180400
ENDCHAR
STARTCHAR 3204
ENCODING 12804
SWIDTH 977 0
DWIDTH 19 0
BBX 17 18 1 -3
BITMAP
100400
300400
200200
400100
400100
4FF900
880880
880880
880880
880880
880880
880880
4FF900
400100
400100
200200
100400
180400
ENDCHAR
STARTCHAR 3205
ENCODING 12805
SWIDTH 977 0
DWIDTH 19 0
BBX 17 17 1 -3
BITMAP
100400
200400
200200
400100
480900
880880
880880
8FF880
880880
880880
880880
8FF880
400100
400100
200200
100600
180400
ENDCHAR
STARTCHAR 3206
ENCODING 12806
SWIDTH 977 0
DWIDTH 19 0
BBX 17 16 1 -2
BITMAP
100400
200600
200200
400100
408100
808080
808080
80C080
814080
822080
841080
480900
400100
200200
100600
180400
ENDCHAR
STARTCHAR 3207
ENCODING 12807
SWIDTH 977 0
DWIDTH 19 0
BBX 17 17 1 -3
BITMAP
100400
200400
200200
400100
43E100
863080
8C1880
880880
880880
880880
8C1880
863080
43E100
400100
200200
100600
180400
ENDCHAR
STARTCHAR 3208
ENCODING 12808
SWIDTH 977 0
DWIDTH 19 0
BBX 17 16 1 -2
BITMAP
100400
200600
200200
400100
400100
9FFC80
808080
80C080
814080
836080
861080
580D00
400100
200200
100600
180400
ENDCHAR
STARTCHAR 3209
ENCODING 12809
SWIDTH 977 0
DWIDTH 19 0
BBX 17 17 1 -3
BITMAP
100400
200400
200200
400100
408100
808080
9FFC80
808080
81C080
814080
822080
841080
580D00
400100
200200
100600
180400
ENDCHAR
STARTCHAR 320A
ENCODING 12810
SWIDTH 977 0
DWIDTH 19 0
BBX 17 17 1 -2
BITMAP
100400
200400
200200
400100
400100
9FF880
800880
800880
800880
9FF880
800880
800880
400900
400100
200200
100600
180400
ENDCHAR
STARTCHAR 320B
ENCODING 12811
SWIDTH 977 0
DWIDTH 19 0
BBX 17 16 1 -2
BITMAP
100400
200600
200200
400100
4FF900
880080
880080
8FF880
880080
880080
880080
4FF900
400100
200200
100600
180400
ENDCHAR
STARTCHAR 320C
ENCODING 12812
SWIDTH 977 0
DWIDTH 19 0
BBX 17 18 1 -3
BITMAP
100400
300400
200200
400100
400100
5FFD00
800080
863080
862080
822080
822080
822080
5FFD00
400100
400100
200200
100400
180400
ENDCHAR
STARTCHAR 320D
ENCODING 12813
SWIDTH 977 0
DWIDTH 19 0
BBX 17 16 1 -2
BITMAP
100400
200600
200200
400100
408100
808080
9FFC80
800080
83E080
841080
841080
461100
43E100
200200
100600
180400
ENDCHAR
STARTCHAR 320E
ENCODING 12814
SWIDTH 977 0
DWIDTH 19 0
BBX 17 17 1 -3
BITMAP
100400
200200
400100
401100
9F9080
809080
809080
809080
811C80
831080
821080
8C1080
981080
401100
401100
200200
100400
ENDCHAR
STARTCHAR 320F
ENCODING 12815
SWIDTH 977 0
DWIDTH 19 0
BBX 17 17 1 -3
BITMAP
100400
200200
400100
401100
881080
881080
881080
881C80
881080
881080
8FF080
801080
801080
401100
401100
200200
100400
ENDCHAR
STARTCHAR 3210
ENCODING 12816
SWIDTH 977 0
DWIDTH 19 0
BBX 17 16 1 -2
BITMAP
100400
200200
400100
401100
8F9080
881080
881080
881E80
881080
881080
8FD080
801080
401100
401100
200200
100400
ENDCHAR
STARTCHAR 3211
ENCODING 12817
SWIDTH 977 0
DWIDTH 19 0
BBX 17 16 1 -2
BITMAP
100400
200200
400100
401100
8F9080
809080
809080
8F9C80
881080
881080
8FF080
801080
401100
401100
200200
100400
ENDCHAR
STARTCHAR 3212
ENCODING 12818
SWIDTH 977 0
DWIDTH 19 0
BBX 17 17 1 -3
BITMAP
100400
200200
400100
401100
8F9080
889080
889080
889C80
889080
889080
8F9080
801080
801080
401100
400100
200200
100400
ENDCHAR
STARTCHAR 3213
ENCODING 12819
SWIDTH 977 0
DWIDTH 19 0
BBX 17 16 1 -2
BITMAP
100400
200200
400100
401100
909080
909080
909080
9F9080
909C80
909080
9F9080
801080
401100
401100
200200
100400
ENDCHAR
STARTCHAR 3214
ENCODING 12820
SWIDTH 977 0
DWIDTH 19 0
BBX 17 17 1 -3
BITMAP
100400
200200
400100
401100
821080
821080
821080
821080
851C80
851080
889080
905080
801080
401100
401100
200200
100400
ENDCHAR
STARTCHAR 3215
ENCODING 12821
SWIDTH 977 0
DWIDTH 19 0
BBX 17 18 1 -3
BITMAP
100400
200200
400100
401100
871080
889080
909080
909080
90DC80
909080
909080
889080
871080
801080
401100
201100
200200
100400
ENDCHAR
STARTCHAR 3216
ENCODING 12822
SWIDTH 977 0
DWIDTH 19 0
BBX 17 17 1 -3
BITMAP
100400
200200
400100
401100
9FD080
821080
821080
821C80
831080
851080
889080
907080
801080
401100
401100
200200
100400
ENDCHAR
STARTCHAR 3217
ENCODING 12823
SWIDTH 977 0
DWIDTH 19 0
BBX 17 17 1 -3
BITMAP
100400
200200
401100
421100
821080
9FD080
821080
821C80
861080
851080
889080
905080
801080
401100
401100
200200
100400
ENDCHAR
STARTCHAR 3218
ENCODING 12824
SWIDTH 977 0
DWIDTH 19 0
BBX 17 17 1 -3
BITMAP
100400
200200
401100
5F9100
809080
809080
9F9080
811C80
831080
861080
8C1080
981080
801080
401100
401100
200200
100400
ENDCHAR
STARTCHAR 3219
ENCODING 12825
SWIDTH 977 0
DWIDTH 19 0
BBX 17 18 1 -3
BITMAP
100400
200200
400100
401100
8F9080
881080
881080
8F9080
881C80
881080
881080
8FD080
801080
801080
401100
201100
200200
100400
ENDCHAR
STARTCHAR 321A
ENCODING 12826
SWIDTH 977 0
DWIDTH 19 0
BBX 17 16 1 -2
BITMAP
100400
200200
400100
401100
9FD080
801080
889080
889C80
891080
891080
9FD080
801080
401100
401100
200200
100400
ENDCHAR
STARTCHAR 321B
ENCODING 12827
SWIDTH 977 0
DWIDTH 19 0
BBX 17 17 1 -3
BITMAP
100400
200200
400100
421100
821080
9FD080
801080
871080
889C80
989080
889080
871080
801080
401100
401100
200200
100400
ENDCHAR
STARTCHAR 321C
ENCODING 12828
SWIDTH 977 0
DWIDTH 19 0
BBX 17 16 1 -2
BITMAP
200200
200200
5FFD00
40C100
814080
863080
980E80
800080
800080
BFFF80
808080
808080
408100
408100
208200
200200
ENDCHAR
STARTCHAR 3260
ENCODING 12896
SWIDTH 977 0
DWIDTH 19 0
BBX 17 17 1 -3
BITMAP
03E000
0C1800
100400
200200
400100
5FF900
800900
800880
800880
800880
800900
400900
400900
200200
100400
0C1800
03E000
ENDCHAR
STARTCHAR 3261
ENCODING 12897
SWIDTH 977 0
DWIDTH 19 0
BBX 17 17 1 -3
BITMAP
03E000
0C1800
100400
200200
480100
480100
880100
880080
880080
880080
880100
4FFD00
400100
200200
100400
0C1800
03E000
ENDCHAR
STARTCHAR 3262
ENCODING 12898
SWIDTH 977 0
DWIDTH 19 0
BBX 17 17 1 -3
BITMAP
03E000
0C1800
100400
200200
4FF900
480100
880100
880080
880080
880080
880100
4FFD00
400100
200200
100400
0C1800
03E000
ENDCHAR
STARTCHAR 3263
ENCODING 12899
SWIDTH 977 0
DWIDTH 19 0
BBX 17 17 1 -3
BITMAP
03E000
0C1800
100400
200200
4FF900
400900
800900
800880
8FF880
880080
880100
4FFD00
400100
200200
100400
0C1800
03E000
ENDCHAR
STARTCHAR 3264
ENCODING 12900
SWIDTH 977 0
DWIDTH 19 0
BBX 17 17 1 -3
BITMAP
03E000
0C1800
100400
200200
4FF900
480900
880900
880880
880880
880880
880900
4FF900
400100
200200
100400
0C1800
03E000
ENDCHAR
STARTCHAR 3265
ENCODING 12901
SWIDTH 977 0
DWIDTH 19 0
BBX 17 17 1 -3
BITMAP
03E000
0C1800
100400
200200
480900
480900
880900
8FF880
880880
880880
880900
4FF900
400100
200200
100400
0C1800
03E000
ENDCHAR
STARTCHAR 3266
ENCODING 12902
SWIDTH 977 0
DWIDTH 19 0
BBX 17 17 1 -3
BITMAP
03E000
0C1800
100400
200200
408100
408100
808100
808080
81C080
814080
822100
441100
480900
200200
100400
0C1800
03E000
ENDCHAR
STARTCHAR 3267
ENCODING 12903
SWIDTH 977 0
DWIDTH 19 0
BBX 17 17 1 -3
BITMAP
03E000
0C1800
100400
200200
43E100
441100
880900
880880
880880
880880
841100
43E100
400100
200200
100400
0C1800
03E000
ENDCHAR
STARTCHAR 3268
ENCODING 12904
SWIDTH 977 0
DWIDTH 19 0
BBX 17 17 1 -3
BITMAP
03E000
0C1800
100400
200200
400100
5FFD00
808100
80C080
814080
814080
822100
4C1900
580D00
200200
100400
0C1800
03E000
ENDCHAR
STARTCHAR 3269
ENCODING 12905
SWIDTH 977 0
DWIDTH 19 0
BBX 17 17 1 -3
BITMAP
03E000
0C1800
100400
208200
408100
5FFD00
808100
81C080
814080
822080
8C1900
500700
400100
200200
100400
0C1800
03E000
ENDCHAR
STARTCHAR 326A
ENCODING 12906
SWIDTH 977 0
DWIDTH 19 0
BBX 17 17 1 -3
BITMAP
03E000
0C1800
100400
200200
5FF900
400900
800900
800880
9FF880
800880
800900
400900
400100
200200
100400
0C1800
03E000
ENDCHAR
STARTCHAR 326B
ENCODING 12907
SWIDTH 977 0
DWIDTH 19 0
BBX 17 17 1 -3
BITMAP
03E000
0C1800
100400
200200
4FF900
480100
880100
880080
8FF880
880080
880100
4FF900
400100
200200
100400
0C1800
03E000
ENDCHAR
STARTCHAR 326C
ENCODING 12908
SWIDTH 977 0
DWIDTH 19 0
BBX 17 17 1 -3
BITMAP
03E000
0C1800
100400
200200
5FFD00
400100
863100
863080
863080
862080
822100
5FFD00
400100
200200
100400
0C1800
03E000
ENDCHAR
STARTCHAR 326D
ENCODING 12909
SWIDTH 977 0
DWIDTH 19 0
BBX 17 17 1 -3
BITMAP
03E000
0C1800
100400
208200
408100
5FFD00
800100
83E080
863080
841880
841900
463100
43E100
200200
100400
0C1800
03E000
ENDCHAR
STARTCHAR 326E
ENCODING 12910
SWIDTH 977 0
DWIDTH 19 0
BBX 17 17 1 -3
BITMAP
03E000
0C1800
100400
201200
5F9100
409100
809100
809080
811C80
831080
821100
4C1100
581100
201200
101400
0C1800
03E000
ENDCHAR
STARTCHAR 326F
ENCODING 12911
SWIDTH 977 0
DWIDTH 19 0
BBX 17 17 1 -3
BITMAP
03E000
0C1800
100400
201200
481100
481100
881100
881C80
881080
881080
8FF100
401100
401100
201200
100400
0C1800
03E000
ENDCHAR
STARTCHAR 3270
ENCODING 12912
SWIDTH 977 0
DWIDTH 19 0
BBX 17 17 1 -3
BITMAP
03E000
0C1800
100400
201200
4F9100
481100
881100
881C80
881080
881080
8FD100
401100
401100
201200
100400
0C1800
03E000
ENDCHAR
STARTCHAR 3271
ENCODING 12913
SWIDTH 977 0
DWIDTH 19 0
BBX 17 17 1 -3
BITMAP
03E000
0C1800
101400
2F9200
409100
409100
809100
8F9C80
881080
881080
881100
4FF100
401100
201200
101400
0C1800
03E000
ENDCHAR
STARTCHAR 3272
ENCODING 12914
SWIDTH 977 0
DWIDTH 19 0
BBX 17 17 1 -3
BITMAP
03E000
0C1800
100400
201200
4F9100
489100
889100
889C80
889080
889080
8F9100
401100
401100
201200
100400
0C1800
03E000
ENDCHAR
STARTCHAR 3273
ENCODING 12915
SWIDTH 977 0
DWIDTH 19 0
BBX 17 17 1 -3
BITMAP
03E000
0C1800
100400
201200
509100
509100
909100
9F9C80
909080
909080
909100
5F9100
401100
201200
101400
0C1800
03E000
ENDCHAR
STARTCHAR 3274
ENCODING 12916
SWIDTH 977 0
DWIDTH 19 0
BBX 17 17 1 -3
BITMAP
03E000
0C1800
100400
201200
421100
421100
821100
821080
851C80
851080
889100
505100
401100
201200
101400
0C1800
03E000
ENDCHAR
STARTCHAR 3275
ENCODING 12917
SWIDTH 977 0
DWIDTH 19 0
BBX 17 17 1 -3
BITMAP
03E000
0C1800
100400
271200
489100
509100
909100
90DC80
909080
909080
889100
471100
401100
201200
101400
0C1800
03E000
ENDCHAR
STARTCHAR 3276
ENCODING 12918
SWIDTH 977 0
DWIDTH 19 0
BBX 17 17 1 -3
BITMAP
03E000
0C1800
101400
3FD200
421100
421100
821100
831C80
851080
849080
88D100
507100
401100
201200
101400
0C1800
03E000
ENDCHAR
STARTCHAR 3277
ENCODING 12919
SWIDTH 977 0
DWIDTH 19 0
BBX 17 17 1 -3
BITMAP
03E000
0C1800
100400
221200
421100
5FD100
821100
821C80
861080
851080
889100
505100
401100
201200
101400
0C1800
03E000
ENDCHAR
STARTCHAR 3278
ENCODING 12920
SWIDTH 977 0
DWIDTH 19 0
BBX 17 17 1 -3
BITMAP
03E000
0C1800
101400
3F9200
409100
409100
809100
9F1C80
811080
821080
861100
4C1100
581100
201200
101400
0C1800
03E000
ENDCHAR
STARTCHAR 3279
ENCODING 12921
SWIDTH 977 0
DWIDTH 19 0
BBX 17 17 1 -3
BITMAP
03E000
0C1800
101400
2F9200
481100
481100
881100
8F9C80
881080
881080
8FD100
401100
401100
201200
101400
0C1800
03E000
ENDCHAR
STARTCHAR 327A
ENCODING 12922
SWIDTH 977 0
DWIDTH 19 0
BBX 17 17 1 -3
BITMAP
03E000
0C1800
100400
201200
5FD100
401100
889100
889C80
891080
891080
9FD100
401100
401100
201200
101400
0C1800
03E000
ENDCHAR
STARTCHAR 327B
ENCODING 12923
SWIDTH 977 0
DWIDTH 19 0
BBX 17 17 1 -3
BITMAP
03E000
0C1800
100400
221200
421100
5FD100
801100
871080
889C80
989080
889100
471100
401100
201200
101400
0C1800
03E000
ENDCHAR
STARTCHAR 327E
ENCODING 12926
SWIDTH 977 0
DWIDTH 19 0
BBX 17 17 1 -3
BITMAP
03E000
0C1800
100400
23E200
441100
441100
841100
83E080
800080
9FFC80
808100
408100
408100
208200
100400
0C1800
03E000
ENDCHAR
STARTCHAR 327F
ENCODING 12927
SWIDTH 977 0
DWIDTH 19 0
BBX 16 16 1 -2
BITMAP
03E0
0C18
180C
3006
6002
4263
42C0
4380
F39F
0241
0261
6001
2002
3004
0C18
03F0
ENDCHAR
STARTCHAR 3380
ENCODING 13184
SWIDTH 977 0
DWIDTH 19 0
BBX 16 17 2 -3
BITMAP
0008
0008
001C
001C
B814
C424
8224
8226
8222
827E
8242
8242
C481
B881
8000
8000
8000
ENDCHAR
STARTCHAR 3381
ENCODING 13185
SWIDTH 977 0
DWIDTH 19 0
BBX 16 14 2 0
BITMAP
0008
0008
001C
001C
B814
C424
8424
8426
8422
847E
8442
8442
8481
8481
ENDCHAR
STARTCHAR 3382
ENCODING 13186
SWIDTH 977 0
DWIDTH 19 0
BBX 17 17 1 -3
BITMAP
000400
000400
000E00
000E00
210A00
211200
211200
411300
411100
423F00
422100
422100
464080
7A4080
800000
800000
800000
ENDCHAR
STARTCHAR 3383
ENCODING 13187
SWIDTH 977 0
DWIDTH 19 0
BBX 17 14 2 0
BITMAP
000400
000400
000E00
000E00
FE0A00
921200
921200
921300
921100
923F00
922100
922100
924080
924080
ENDCHAR
STARTCHAR 3384
ENCODING 13188
SWIDTH 977 0
DWIDTH 19 0
BBX 15 14 3 0
BITMAP
8010
8010
8038
8038
9828
B048
B048
A04C
E044
E0FC
A084
B084
B102
9902
ENDCHAR
STARTCHAR 3388
ENCODING 13192
SWIDTH 977 0
DWIDTH 19 0
BBX 16 14 2 0
BITMAP
0006
0002
0002
0002
39C2
4A22
8022
8022
81E2
8262
8462
8462
4C62
33A7
ENDCHAR
STARTCHAR 3389
ENCODING 13193
SWIDTH 977 0
DWIDTH 19 0
BBX 17 14 1 0
BITMAP
800300
800100
800100
800100
977100
A40900
A80900
A80900
C83900
E8C900
A88900
A88900
BC9900
976B80
ENDCHAR
STARTCHAR 338A
ENCODING 13194
SWIDTH 977 0
DWIDTH 19 0
BBX 15 17 2 -3
BITMAP
007E
0040
0040
0040
B840
C440
827E
8240
8240
8240
8240
8240
C440
B840
8000
8000
8000
ENDCHAR
STARTCHAR 338B
ENCODING 13195
SWIDTH 977 0
DWIDTH 19 0
BBX 15 14 2 0
BITMAP
007E
0040
0040
0040
BC40
C640
827E
8240
8240
8240
8240
8240
8240
8240
ENDCHAR
STARTCHAR 338C
ENCODING 13196
SWIDTH 977 0
DWIDTH 19 0
BBX 16 17 1 -3
BITMAP
003F
0020
0020
0020
2120
2120
213F
4120
4120
4220
4220
4220
4620
7A20
8000
8000
8000
ENDCHAR
STARTCHAR 338D
ENCODING 13197
SWIDTH 977 0
DWIDTH 19 0
BBX 17 14 1 -4
BITMAP
211E80
212180
214080
414080
414080
424080
424080
424080
462180
7A1E80
800080
800080
802100
001E00
ENDCHAR
STARTCHAR 338E
ENCODING 13198
SWIDTH 977 0
DWIDTH 19 0
BBX 17 14 1 -4
BITMAP
FE1E80
922180
924080
924080
924080
924080
924080
924080
922180
921E80
000080
000080
002100
001E00
ENDCHAR
STARTCHAR 338F
ENCODING 13199
SWIDTH 977 0
DWIDTH 19 0
BBX 16 18 1 -4
BITMAP
8000
8000
8000
8000
863D
8C43
9881
B081
E081
E081
B081
9881
8C43
863D
0001
0001
0042
003C
ENDCHAR
STARTCHAR 3390
ENCODING 13200
SWIDTH 977 0
DWIDTH 19 0
BBX 16 14 2 0
BITMAP
8200
8200
8200
8200
823F
8202
FE06
8204
820C
8218
8210
8230
8220
827F
ENDCHAR
STARTCHAR 3391
ENCODING 13201
SWIDTH 977 0
DWIDTH 19 0
BBX 17 14 1 0
BITMAP
811000
811000
811000
811000
991380
B11180
B1F180
A11300
E11300
E11300
A11300
B11600
B11600
991780
ENDCHAR
STARTCHAR 3392
ENCODING 13202
SWIDTH 977 0
DWIDTH 19 0
BBX 17 14 1 0
BITMAP
848800
848800
C48800
C48800
CC8B80
CC8980
CCF980
CC8B00
AC8B00
B48B00
B48B00
B48E00
948E00
948F80
ENDCHAR
STARTCHAR 3393
ENCODING 13203
SWIDTH 977 0
DWIDTH 19 0
BBX 17 14 1 0
BITMAP
391000
411000
411000
811000
811380
811180
81F180
991300
891300
891300
891300
891600
491600
391780
ENDCHAR
STARTCHAR 3394
ENCODING 13204
SWIDTH 977 0
DWIDTH 19 0
BBX 17 14 1 0
BITMAP
F91000
211000
211000
211000
211380
211180
21F180
211300
211300
211300
211300
211600
211600
211780
ENDCHAR
STARTCHAR 3395
ENCODING 13205
SWIDTH 977 0
DWIDTH 19 0
BBX 16 17 1 -3
BITMAP
000E
0011
0011
0021
2121
2122
2122
4124
412C
4238
4230
4270
4611
7A0E
8000
8000
8000
ENDCHAR
STARTCHAR 3396
ENCODING 13206
SWIDTH 977 0
DWIDTH 19 0
BBX 15 14 2 0
BITMAP
001C
0022
0022
0042
FE42
9244
9244
9248
9258
9270
9260
92E0
9222
921C
ENDCHAR
STARTCHAR 3397
ENCODING 13207
SWIDTH 977 0
DWIDTH 19 0
BBX 16 14 1 0
BITMAP
010E
0111
0111
0121
3D21
4322
8122
8124
812C
8138
8130
8170
4311
3D0E
ENDCHAR
STARTCHAR 3398
ENCODING 13208
SWIDTH 977 0
DWIDTH 19 0
BBX 15 14 2 0
BITMAP
801C
8022
8022
8042
8642
8C44
9844
B048
E058
E070
B060
98E0
8C22
861C
ENDCHAR
STARTCHAR 3399
ENCODING 13209
SWIDTH 977 0
DWIDTH 19 0
BBX 16 14 2 0
BITMAP
3000
4000
4000
4000
F5CE
4631
4421
4421
4421
4421
4421
4421
4421
4421
ENDCHAR
STARTCHAR 339A
ENCODING 13210
SWIDTH 977 0
DWIDTH 19 0
BBX 16 10 2 0
BITMAP
B87F
C449
8449
8449
8449
8449
8449
8449
8449
8449
ENDCHAR
STARTCHAR 339B
ENCODING 13211
SWIDTH 977 0
DWIDTH 19 0
BBX 17 13 1 -3
BITMAP
213F80
212480
212480
412480
412480
422480
422480
422480
462480
7A2480
800000
800000
800000
ENDCHAR
STARTCHAR 339C
ENCODING 13212
SWIDTH 977 0
DWIDTH 19 0
BBX 17 10 1 0
BITMAP
FE3F80
922480
922480
922480
922480
922480
922480
922480
922480
922480
ENDCHAR
STARTCHAR 339D
ENCODING 13213
SWIDTH 977 0
DWIDTH 19 0
BBX 14 10 2 0
BITMAP
39FC
4924
8124
8124
8124
8124
8124
8124
4924
3124
ENDCHAR
STARTCHAR 339E
ENCODING 13214
SWIDTH 977 0
DWIDTH 19 0
BBX 17 14 1 0
BITMAP
800000
800000
800000
800000
9AE700
B31880
B21080
A21080
E21080
E21080
A21080
B21080
B21080
9A1080
ENDCHAR
STARTCHAR 339F
ENCODING 13215
SWIDTH 977 0
DWIDTH 19 0
BBX 18 14 1 0
BITMAP
0001C0
000040
000080
000100
FCFDC0
949400
949400
949400
949400
949400
949400
949400
949400
949400
ENDCHAR
STARTCHAR 33A0
ENCODING 13216
SWIDTH 977 0
DWIDTH 19 0
BBX 17 14 1 0
BITMAP
000380
000080
000100
000200
73FB80
424800
824800
824800
824800
824800
824800
824800
C24800
724800
ENDCHAR
STARTCHAR 33A1
ENCODING 13217
SWIDTH 977 0
DWIDTH 19 0
BBX 15 14 3 0
BITMAP
000E
0002
0004
0008
B9CE
C620
8420
8420
8420
8420
8420
8420
8420
8420
ENDCHAR
STARTCHAR 33A2
ENCODING 13218
SWIDTH 977 0
DWIDTH 19 0
BBX 17 14 2 0
BITMAP
800380
800080
800100
800200
97F380
A49000
A49000
A49000
C49000
E49000
A49000
A49000
B49000
949000
ENDCHAR
STARTCHAR 33A3
ENCODING 13219
SWIDTH 977 0
DWIDTH 19 0
BBX 19 15 1 0
BITMAP
0000C0
000040
0000C0
000020
0000C0
FCFC00
949400
949400
949400
949400
949400
949400
949400
949400
949400
ENDCHAR
STARTCHAR 33A4
ENCODING 13220
SWIDTH 977 0
DWIDTH 19 0
BBX 18 15 1 0
BITMAP
000180
000080
000180
000040
0001C0
73F800
424800
824800
824800
824800
824800
824800
824800
C24800
724800
ENDCHAR
STARTCHAR 33A5
ENCODING 13221
SWIDTH 977 0
DWIDTH 19 0
BBX 15 15 3 0
BITMAP
000C
0004
000C
0002
000E
B9C0
C620
8420
8420
8420
8420
8420
8420
8420
8420
ENDCHAR
STARTCHAR 33A6
ENCODING 13222
SWIDTH 977 0
DWIDTH 19 0
BBX 17 15 2 0
BITMAP
000300
800100
800300
800080
800380
97F000
A49000
A49000
A49000
C49000
E49000
A49000
A49000
B49000
949000
ENDCHAR
STARTCHAR 33A7
ENCODING 13223
SWIDTH 977 0
DWIDTH 19 0
BBX 17 16 1 -2
BITMAP
FE1000
921000
921000
922000
922380
922480
922400
922400
924600
924300
004080
004080
004480
008300
008000
008000
ENDCHAR
STARTCHAR 33A8
ENCODING 13224
SWIDTH 977 0
DWIDTH 19 0
BBX 18 16 1 -2
BITMAP
004180
004040
004080
008100
FCB9C0
94C800
94C000
94C000
956000
951000
950800
950800
954800
963000
020000
020000
ENDCHAR
STARTCHAR 33A9
ENCODING 13225
SWIDTH 977 0
DWIDTH 19 0
BBX 15 14 2 0
BITMAP
F800
8400
8200
8200
823C
8246
8402
F802
801E
8062
8082
8082
8086
807A
ENDCHAR
STARTCHAR 33AA
ENCODING 13226
SWIDTH 977 0
DWIDTH 19 0
BBX 15 14 2 0
BITMAP
8780
8480
8440
8440
945C
A442
A482
A702
C40E
E432
A422
A422
B426
941A
ENDCHAR
STARTCHAR 33AB
ENCODING 13227
SWIDTH 977 0
DWIDTH 19 0
BBX 17 14 1 0
BITMAP
84F000
849000
C48800
C48800
CC8F00
CC8880
CC9080
CCE080
AC8380
B48C80
B48880
B48880
948980
948680
ENDCHAR
STARTCHAR 33AC
ENCODING 13228
SWIDTH 977 0
DWIDTH 19 0
BBX 16 14 1 0
BITMAP
39E0
4120
4110
8110
811E
8111
8121
99C1
8907
8919
8911
8911
4913
390D
ENDCHAR
STARTCHAR 33AD
ENCODING 13229
SWIDTH 977 0
DWIDTH 19 0
BBX 16 14 2 0
BITMAP
0001
0001
0001
0001
BF1D
C093
80A1
80A1
83A1
8CA1
88A1
88A1
8993
869D
ENDCHAR
STARTCHAR 33AE
ENCODING 13230
SWIDTH 977 0
DWIDTH 19 0
BBX 17 16 1 -2
BITMAP
002400
002400
002400
002400
FCE580
852A00
852A00
852A00
8D2B00
952980
952880
953080
953080
9CF300
001000
001000
ENDCHAR
STARTCHAR 33AF
ENCODING 13231
SWIDTH 977 0
DWIDTH 19 0
BBX 18 18 1 -2
BITMAP
0001C0
000040
002480
002500
0025C0
002400
FCE580
852A00
852A00
852A00
8D2B00
952980
952880
953080
953080
9CF300
001000
001000
ENDCHAR
STARTCHAR 33B0
ENCODING 13232
SWIDTH 977 0
DWIDTH 19 0
BBX 15 13 2 -3
BITMAP
B83C
C462
8240
8240
8230
821C
8206
8202
C442
B83C
8000
8000
8000
ENDCHAR
STARTCHAR 33B1
ENCODING 13233
SWIDTH 977 0
DWIDTH 19 0
BBX 16 10 2 0
BITMAP
BC1E
C631
8220
8220
8218
820E
8203
8201
8221
821E
ENDCHAR
STARTCHAR 33B2
ENCODING 13234
SWIDTH 977 0
DWIDTH 19 0
BBX 16 13 1 -3
BITMAP
211E
2131
2120
4120
4118
420E
4203
4201
4621
7A1E
8000
8000
8000
ENDCHAR
STARTCHAR 33B3
ENCODING 13235
SWIDTH 977 0
DWIDTH 19 0
BBX 14 10 3 0
BITMAP
FE1C
9224
9220
9220
9230
9218
9204
9204
9224
9218
ENDCHAR
STARTCHAR 33B4
ENCODING 13236
SWIDTH 977 0
DWIDTH 19 0
BBX 16 17 2 -3
BITMAP
0101
0101
0082
0082
B882
C444
8244
8244
8264
8228
8228
8238
C410
B810
8000
8000
8000
ENDCHAR
STARTCHAR 33B5
ENCODING 13237
SWIDTH 977 0
DWIDTH 19 0
BBX 16 14 2 0
BITMAP
0101
0101
0082
0082
BC82
C644
8244
8244
8264
8228
8228
8238
8210
8210
ENDCHAR
STARTCHAR 33B6
ENCODING 13238
SWIDTH 977 0
DWIDTH 19 0
BBX 17 17 1 -3
BITMAP
008080
008080
004100
004100
214100
212200
212200
412200
413200
421400
421400
421C00
460800
7A0800
800000
800000
800000
ENDCHAR
STARTCHAR 33B7
ENCODING 13239
SWIDTH 977 0
DWIDTH 19 0
BBX 17 14 2 0
BITMAP
008080
008080
004100
004100
FE4100
922200
922200
922200
923200
921400
921400
921C00
920800
920800
ENDCHAR
STARTCHAR 33B8
ENCODING 13240
SWIDTH 977 0
DWIDTH 19 0
BBX 16 14 2 0
BITMAP
8101
8101
8082
8082
8682
8C44
9844
B044
E064
E028
B028
9838
8C10
8610
ENDCHAR
STARTCHAR 33B9
ENCODING 13241
SWIDTH 977 0
DWIDTH 19 0
BBX 17 14 2 0
BITMAP
828080
C28080
C64100
C64100
C64100
E62200
AA2200
AA2200
BA3200
BA1400
BA1400
921C00
920800
920800
ENDCHAR
STARTCHAR 33BA
ENCODING 13242
SWIDTH 977 0
DWIDTH 19 0
BBX 16 17 2 -3
BITMAP
0111
0111
0111
0093
F092
98BA
88BA
88AA
88EE
88CE
884E
884C
9844
F044
8000
8000
8000
ENDCHAR
STARTCHAR 33BB
ENCODING 13243
SWIDTH 977 0
DWIDTH 19 0
BBX 16 14 2 0
BITMAP
0111
0111
0111
0193
B892
C4BA
84BA
84AA
84EE
84CE
84CE
844C
8444
8444
ENDCHAR
STARTCHAR 33BC
ENCODING 13244
SWIDTH 977 0
DWIDTH 19 0
BBX 18 17 0 -3
BITMAP
004440
004440
004440
0024C0
212480
212E80
212E80
412A80
413B80
423380
421380
421300
461100
7A1100
800000
800000
800000
ENDCHAR
STARTCHAR 33BD
ENCODING 13245
SWIDTH 977 0
DWIDTH 19 0
BBX 17 14 2 0
BITMAP
008880
008880
008880
00C980
FE4900
925D00
925D00
925500
927700
926700
926700
922600
922200
922200
ENDCHAR
STARTCHAR 33BE
ENCODING 13246
SWIDTH 977 0
DWIDTH 19 0
BBX 15 14 3 0
BITMAP
8222
8222
8222
8326
9924
B174
B174
A154
E1DC
E19C
A19C
B098
B088
9888
ENDCHAR
STARTCHAR 33BF
ENCODING 13247
SWIDTH 977 0
DWIDTH 19 0
BBX 16 14 2 0
BITMAP
8511
8511
C511
C593
CC92
CCBA
CCBA
CCAA
ACEE
B4CE
B4CE
B44C
9444
9444
ENDCHAR
STARTCHAR 33C0
ENCODING 13248
SWIDTH 977 0
DWIDTH 19 0
BBX 14 14 3 0
BITMAP
8070
8088
8088
8104
9904
B104
B104
A104
E104
E104
A104
B088
B088
99DC
ENDCHAR
STARTCHAR 33C1
ENCODING 13249
SWIDTH 977 0
DWIDTH 19 0
BBX 16 14 1 0
BITMAP
821C
C222
C622
C641
C641
E641
AA41
AA41
BA41
BA41
BA41
9222
9222
9277
ENDCHAR
STARTCHAR 33C2
ENCODING 13250
SWIDTH 977 0
DWIDTH 19 0
BBX 17 10 1 0
BITMAP
707E00
084A00
084A00
084A00
384A00
C84A00
884A00
884A00
9B4B80
6B4B80
ENDCHAR
STARTCHAR 33C3
ENCODING 13251
SWIDTH 977 0
DWIDTH 19 0
BBX 16 17 1 -3
BITMAP
F800
8C00
8400
8400
843D
8843
F0C1
8881
8481
8481
8481
8481
8843
F03D
0001
0001
0001
ENDCHAR
STARTCHAR 33C4
ENCODING 13252
SWIDTH 977 0
DWIDTH 19 0
BBX 16 10 2 0
BITMAP
3C1E
6231
4020
8040
8040
8040
8040
C060
6231
3C1E
ENDCHAR
STARTCHAR 33C5
ENCODING 13253
SWIDTH 977 0
DWIDTH 19 0
BBX 17 14 1 0
BITMAP
000080
000080
000080
000080
3C1E80
622180
404080
804080
804080
804080
804080
C04080
622180
3C1E80
ENDCHAR
STARTCHAR 33C6
ENCODING 13254
SWIDTH 977 0
DWIDTH 19 0
BBX 17 17 1 -3
BITMAP
314000
414000
814000
824000
824B80
825480
825480
825480
846480
847480
845480
845480
445C80
784B80
080080
080080
000700
ENDCHAR
STARTCHAR 33C7
ENCODING 13255
SWIDTH 977 0
DWIDTH 19 0
BBX 18 14 1 0
BITMAP
1E0000
210000
400000
400000
801C00
802200
804100
804100
804100
804100
C04100
404100
2122C0
1E1CC0
ENDCHAR
STARTCHAR 33C8
ENCODING 13256
SWIDTH 977 0
DWIDTH 19 0
BBX 16 14 1 0
BITMAP
013E
0123
0121
0121
3D21
4322
813C
8122
8121
8121
8121
8121
4322
3D3C
ENDCHAR
STARTCHAR 33C9
ENCODING 13257
SWIDTH 977 0
DWIDTH 19 0
BBX 16 18 2 -4
BITMAP
1E00
2000
4000
4000
8063
8063
8026
8E26
8236
8234
8214
421C
621C
3E18
0018
0018
0010
0030
ENDCHAR
STARTCHAR 33CA
ENCODING 13258
SWIDTH 977 0
DWIDTH 19 0
BBX 16 14 2 0
BITMAP
8000
8000
8000
8000
BC1E
C623
8201
8201
820F
8231
8241
8241
8243
823D
ENDCHAR
STARTCHAR 33CF
ENCODING 13263
SWIDTH 977 0
DWIDTH 19 0
BBX 14 14 2 0
BITMAP
8000
8020
8020
8020
86FC
8C20
9820
B020
E020
E020
B020
9820
8C20
861C
ENDCHAR
STARTCHAR 33D0
ENCODING 13264
SWIDTH 977 0
DWIDTH 19 0
BBX 16 14 2 0
BITMAP
C000
4000
4000
4000
45CE
4631
4421
4421
4421
4421
4421
4421
4421
E421
ENDCHAR
STARTCHAR 33D3
ENCODING 13267
SWIDTH 977 0
DWIDTH 19 0
BBX 15 14 2 0
BITMAP
E000
2000
2000
2000
2306
218C
20C8
20D8
2070
2070
2058
20D8
218C
FB06
ENDCHAR
STARTCHAR 33D6
ENCODING 13270
SWIDTH 977 0
DWIDTH 19 0
BBX 17 14 1 0
BITMAP
000300
000100
000100
000100
FC7100
945100
948900
948900
948900
948900
948900
948900
94D100
947380
ENDCHAR
STARTCHAR 33D8
ENCODING 13272
SWIDTH 977 0
DWIDTH 19 0
BBX 17 13 2 -3
BITMAP
F0FC00
989400
889400
889400
889400
889400
889400
889400
9E9580
F69580
800000
800000
800000
ENDCHAR
STARTCHAR 33DB
ENCODING 13275
SWIDTH 977 0
DWIDTH 19 0
BBX 15 10 2 0
BITMAP
785E
C470
8060
8040
6040
3840
0C40
0440
8440
7840
ENDCHAR
STARTCHAR 33DC
ENCODING 13276
SWIDTH 977 0
DWIDTH 19 0
BBX 17 14 1 0
BITMAP
380000
440000
800000
800000
80C180
40C300
304300
186200
046600
022400
022C00
022800
841800
781000
ENDCHAR
STARTCHAR 33DD
ENCODING 13277
SWIDTH 977 0
DWIDTH 19 0
BBX 17 14 1 0
BITMAP
88A000
88A000
88A000
C9A000
492E00
5D3100
5D2080
552080
772080
672080
672080
262080
223100
222E00
ENDCHAR
STARTCHAR AC00
ENCODING 44032
SWIDTH 977 0
DWIDTH 19 0
BBX 16 18 2 -3
BITMAP
0008
0008
FF88
0188
0108
0108
0308
0208
060F
0C08
1808
3008
6008
C008
0008
0008
0008
0008
ENDCHAR
STARTCHAR AC01
ENCODING 44033
SWIDTH 977 0
DWIDTH 19 0
BBX 16 18 2 -3
BITMAP
0008
FF08
0108
0308
0208
060F
0C08
3808
E008
C008
0000
3FF8
0008
0008
0008
0008
0008
0008
ENDCHAR
STARTCHAR AC02
ENCODING 44034
SWIDTH 977 0
DWIDTH 19 0
BBX 16 18 2 -3
BITMAP
0008
FF08
0108
0308
0208
060F
0C08
1808
6008
C008
0000
0000
7EF8
0208
0208
0208
0208
0208
ENDCHAR
STARTCHAR AC03
ENCODING 44035
SWIDTH 977 0
DWIDTH 19 0
BBX 16 18 2 -3
BITMAP
0008
FF08
0108
0308
0208
060F
0C08
1808
6008
C008
0000
0000
7E30
0630
0630
0638
064C
0786
ENDCHAR
STARTCHAR AC04
ENCODING 44036
SWIDTH 977 0
DWIDTH 19 0
BBX 16 18 2 -3
BITMAP
0008
FF08
0108
0308
0308
0608
0C0F
1808
3008
6008
8008
0008
3008
3008
3000
3000
3000
3FFC
ENDCHAR
STARTCHAR AC05
ENCODING 44037
SWIDTH 977 0
DWIDTH 19 0
BBX 16 19 2 -4
BITMAP
0008
FF08
0108
0308
0308
060F
0408
0C08
1008
6008
8000
0000
43FC
4060
4060
4060
4C90
7908
6204
ENDCHAR
STARTCHAR AC06
ENCODING 44038
SWIDTH 977 0
DWIDTH 19 0
BBX 16 18 2 -3
BITMAP
0008
FF08
0108
0308
0208
060F
0C08
1808
6008
C008
0020
0020
43FC
4000
40F8
4108
4108
7CF8
ENDCHAR
STARTCHAR AC07
ENCODING 44039
SWIDTH 977 0
DWIDTH 19 0
BBX 16 18 2 -3
BITMAP
0008
FF08
0108
0308
0208
060F
0C08
3808
E008
C008
0000
3FF8
3000
3000
3000
3000
3000
3FFC
ENDCHAR
STARTCHAR AC08
ENCODING 44040
SWIDTH 977 0
DWIDTH 19 0
BBX 16 18 2 -3
BITMAP
0008
FF08
0108
0308
0208
060F
0C08
3808
E008
8008
0000
3FF8
0008
0008
3FF8
3000
3000
3FFC
ENDCHAR
STARTCHAR AC09
ENCODING 44041
SWIDTH 977 0
DWIDTH 19 0
BBX 16 18 2 -3
BITMAP
0008
FF08
0108
0308
0208
060F
0C08
1808
6008
8008
0000
7EF8
0208
0208
7E08
6008
6008
7F08
ENDCHAR
STARTCHAR AC0A
ENCODING 44042
SWIDTH 977 0
DWIDTH 19 0
BBX 16 18 2 -3
BITMAP
0008
FF08
0108
0308
0208
060F
0C08
1808
6008
8008
0000
7EF8
0688
0688
7E88
6088
6088
7EF8
ENDCHAR
STARTCHAR AC0B
ENCODING 44043
SWIDTH 977 0
DWIDTH 19 0
BBX 16 18 2 -3
BITMAP
0008
FF08
0108
0308
0208
060F
0C08
1808
6008
C008
0000
0000
7D88
0588
7DF8
4188
4188
7FF8
ENDCHAR
STARTCHAR AC0C
ENCODING 44044
SWIDTH 977 0
DWIDTH 19 0
BBX 16 18 2 -3
BITMAP
0008
FF08
0108
0308
0208
060F
0C08
1808
6008
C008
0000
0000
7E30
0230
7E30
4030
4048
7E84
ENDCHAR
STARTCHAR AC0D
ENCODING 44045
SWIDTH 977 0
DWIDTH 19 0
BBX 16 18 2 -3
BITMAP
0008
FF08
0108
0308
0208
060F
0C08
1808
6008
C008
0008
0000
7EF8
0680
7EF8
4080
4080
7EFC
ENDCHAR
STARTCHAR AC0E
ENCODING 44046
SWIDTH 977 0
DWIDTH 19 0
BBX 16 18 2 -3
BITMAP
0008
FF08
0108
0308
0208
060F
0C08
1808
6008
C008
0000
0000
7DFC
04D8
7CD8
40D8
40D8
7DFC
ENDCHAR
STARTCHAR AC0F
ENCODING 44047
SWIDTH 977 0
DWIDTH 19 0
BBX 16 18 2 -3
BITMAP
0008
FF08
0108
0308
0208
060F
0C08
1808
6008
C008
0020
7C20
05FC
04F8
7C8C
4184
408C
7EF8
ENDCHAR
STARTCHAR AC10
ENCODING 44048
SWIDTH 977 0
DWIDTH 19 0
BBX 16 18 2 -3
BITMAP
0008
FF08
0108
0308
0208
060F
0C08
1808
6008
C008
0000
3FF8
3008
3008
3008
3008
3008
3FF8
ENDCHAR
STARTCHAR AC11
ENCODING 44049
SWIDTH 977 0
DWIDTH 19 0
BBX 16 18 2 -3
BITMAP
0008
FF08
0108
0308
0208
060F
0C08
3808
E008
C008
0000
3008
3008
3008
3FF8
3008
3008
3FF8
ENDCHAR
STARTCHAR AC12
ENCODING 44050
SWIDTH 977 0
DWIDTH 19 0
BBX 16 18 2 -3
BITMAP
0008
FF08
0108
0308
0208
060F
0C08
3808
E008
8008
0000
2210
2210
2210
3E38
2228
2264
3E82
ENDCHAR
STARTCHAR AC13
ENCODING 44051
SWIDTH 977 0
DWIDTH 19 0
BBX 16 18 2 -3
BITMAP
0008
FF08
0108
0308
0308
0608
040F
0808
3008
6008
8008
0108
0100
0380
06C0
0C60
3838
600C
ENDCHAR
STARTCHAR AC14
ENCODING 44052
SWIDTH 977 0
DWIDTH 19 0
BBX 16 18 2 -3
BITMAP
0008
FF08
0108
0308
0308
060F
0C08
1808
3008
E008
8000
0810
0830
0C30
1C38
3668
60C4
4182
ENDCHAR
STARTCHAR AC15
ENCODING 44053
SWIDTH 977 0
DWIDTH 19 0
BBX 16 18 2 -3
BITMAP
0008
FF08
0108
0308
0308
060F
0408
0808
3008
6008
8008
0FE0
1818
3008
200C
3008
1818
0FE0
ENDCHAR
STARTCHAR AC16
ENCODING 44054
SWIDTH 977 0
DWIDTH 19 0
BBX 16 18 2 -3
BITMAP
0008
FF08
0108
0308
0208
060F
0C08
1808
6008
8008
0000
7FF8
0300
0380
0680
0C60
3030
600C
ENDCHAR
STARTCHAR AC17
ENCODING 44055
SWIDTH 977 0
DWIDTH 19 0
BBX 16 18 2 -3
BITMAP
0008
FF08
0108
0308
0208
060F
0C08
1808
6008
C108
0100
3FFC
0180
0380
06C0
0C60
3838
600C
ENDCHAR
ENDFONT
